<svg width="349" height="409" viewBox="0 0 349 409" fill="none" xmlns="http://www.w3.org/2000/svg">
<path d="M116.828 227.005C117.349 225.963 117.434 224.757 117.066 223.653C116.698 222.548 115.906 221.635 114.864 221.114C113.823 220.593 112.617 220.507 111.512 220.876C110.408 221.244 109.494 222.036 108.974 223.077C106.634 228.597 104.295 233.007 101.557 237.938C101.556 237.94 101.555 237.942 101.554 237.944C100.73 239.421 99.7513 240.933 98.7252 242.421C93.9728 249.252 88.3251 255.718 82.8317 262.496C82.826 262.504 82.8202 262.511 82.8145 262.518C74.7213 272.472 66.2823 282.532 58.4788 293.044C58.4636 293.065 58.4484 293.085 58.4332 293.105C50.6205 303.485 43.8515 315.208 39.542 327.742C39.5271 327.785 39.5122 327.827 39.4974 327.869C37.873 333.405 39.8406 336.94 40.9748 339.866C42.2929 342.804 43.7568 345.34 45.2269 347.81C45.2383 347.829 45.2497 347.848 45.2611 347.867C51.3032 357.708 60.4247 363.816 69.1645 368.887C69.1899 368.901 69.2152 368.916 69.2406 368.93C77.7279 373.658 86.3098 375.453 94.5611 377.301C94.6009 377.31 94.6407 377.318 94.6807 377.327C108.356 380.149 121.833 382.17 135.469 384.065C135.525 384.072 135.581 384.08 135.637 384.087C146.727 385.622 158.11 386.878 168.923 388.146C168.99 388.154 169.055 388.163 169.121 388.172C176.645 389.582 186.344 392.862 195.749 394.578C195.824 394.592 195.899 394.606 195.974 394.62C211.21 396.359 221.859 389.83 231.962 382.57C231.991 382.547 232.019 382.525 232.047 382.502C241.458 374.506 243.607 363.81 244.296 353.953C244.297 353.944 244.297 353.935 244.298 353.927C244.382 343.196 241.528 335.398 241.07 327.463C241.067 327.435 241.065 327.406 241.063 327.378C239.784 312.907 237.487 299.163 234.699 285.315L234.732 285.489C234.731 285.48 234.729 285.471 234.727 285.462C234.719 285.413 234.71 285.365 234.702 285.317C233.695 279.556 232.876 273.534 232.737 267.892C232.737 267.89 232.737 267.888 232.737 267.886C232.716 266.615 232.42 265.345 232.261 264.074C232.086 262.695 231.312 261.373 230.21 260.397C229.103 259.422 227.758 258.874 226.37 258.874C224.983 258.874 223.638 259.422 222.53 260.397C221.428 261.373 220.654 262.695 220.48 264.074C220.321 265.345 220.025 266.615 220.003 267.886C220.003 267.888 220.003 267.89 220.003 267.892C219.946 274.711 220.503 281.117 221.623 287.629C221.633 287.683 221.642 287.737 221.652 287.791C221.654 287.801 221.656 287.811 221.657 287.821L221.691 287.995C224.405 301.417 227.151 315.112 228.313 328.377C228.315 328.403 228.317 328.428 228.319 328.453C228.993 337.776 231.687 346.725 231.447 353.354C231.447 353.359 231.447 353.364 231.446 353.369C231.087 360.833 228.431 368.888 223.97 372.331C223.949 372.348 223.928 372.365 223.907 372.382C216.418 378.2 205.556 383.138 198.307 381.945C198.24 381.933 198.172 381.921 198.105 381.908C189.287 380.363 181.37 377.612 170.713 375.685C170.64 375.676 170.567 375.667 170.494 375.658C159.115 374.42 148.334 373.365 137.286 371.854C137.231 371.847 137.176 371.839 137.121 371.832C123.747 369.995 110.254 367.956 97.2251 365.28C97.1867 365.272 97.1483 365.264 97.11 365.255C89.1638 363.534 81.1807 361.867 75.017 358.544C74.9934 358.531 74.9698 358.518 74.9463 358.505C66.7792 354.069 59.0507 348.904 54.5982 342.062C54.5868 342.045 54.5754 342.027 54.564 342.009C53.0965 339.73 51.6523 337.469 50.5801 335.355C49.4476 333.293 49.1104 331.151 49.251 331.223C49.2642 331.184 49.2774 331.145 49.2906 331.106C53.1124 319.558 59.113 308.985 66.4348 299.013C66.4495 298.993 66.4642 298.973 66.4789 298.953C74.0121 288.573 82.1307 278.682 90.2281 268.409C90.2335 268.402 90.239 268.395 90.2444 268.388C95.5302 261.65 101.007 254.829 106.029 247.377C107.126 245.732 108.207 244.04 109.224 242.221C109.225 242.219 109.226 242.217 109.227 242.215C111.948 237.346 114.831 231.816 116.828 227.005Z" fill="#07FF13"/>
<path d="M124.464 109.029C124.753 108.129 124.672 107.151 124.24 106.311C123.808 105.47 123.059 104.835 122.159 104.546C121.259 104.258 120.281 104.338 119.44 104.771C118.6 105.203 117.965 105.952 117.676 106.852C116.715 109.854 115.478 112.649 113.823 115.157C112.361 117.406 110.502 119.44 108.437 121.741C108.435 121.744 108.432 121.746 108.43 121.749C99.1084 132.292 88.4818 141.556 77.8366 150.786C77.8202 150.8 77.8038 150.814 77.7874 150.829C70.5684 157.17 64.0692 163.875 57.6783 170.912C57.6507 170.942 57.6231 170.973 57.5956 171.004C50.8061 178.555 44.5838 187.472 41.4665 197.854C41.4481 197.915 41.4297 197.975 41.4115 198.034C36.1326 214.856 45.5546 230.245 51.5843 242.256L51.5156 242.122C51.5264 242.145 51.5373 242.167 51.5482 242.19C56.1403 251.632 61.8742 261.275 70.3273 268.836C71.2426 269.663 72.1731 270.457 73.1004 271.218L73.1576 271.264C73.1636 271.269 73.1695 271.274 73.1755 271.279C74.0946 271.996 75.1351 272.871 76.8666 273.776C78.6261 274.683 80.3695 275.055 81.654 275.253C83.1401 275.46 84.6787 275.156 85.9496 274.325C87.2205 273.495 88.1168 272.218 88.4452 270.76C88.7737 269.301 88.5109 267.763 87.7186 266.469C86.9264 265.173 85.6667 264.239 84.235 263.79C83.3257 263.492 82.8818 263.257 82.6643 263.08C82.4167 262.907 81.7079 262.353 80.8653 261.673C80.8598 261.668 80.8544 261.664 80.8489 261.66L80.9061 261.706C80.0927 261.039 79.3077 260.371 78.5467 259.691C71.7206 253.676 66.5141 245.662 62.0005 236.96C61.9899 236.94 61.9793 236.919 61.9687 236.899L61.8999 236.766C55.009 224.28 47.4977 212.473 50.9765 200.805C50.9903 200.754 51.0042 200.704 51.0182 200.653C53.3194 192.067 58.4407 184.312 64.6122 177.201C64.6379 177.171 64.6637 177.142 64.6895 177.112C70.6712 170.283 77.1201 163.593 83.7172 157.507C83.7336 157.492 83.7499 157.478 83.7663 157.463C94.3831 147.783 104.231 137.261 113.753 126.492C113.755 126.489 113.757 126.486 113.76 126.483C115.712 124.302 117.952 121.881 119.781 119.072C121.856 115.931 123.364 112.473 124.464 109.029Z" fill="#07FF13"/>
<path d="M253.373 99.5199C253.547 98.1363 253.165 96.7402 252.309 95.6387C251.454 94.5372 250.197 93.8205 248.813 93.6463C247.43 93.4721 246.034 93.8546 244.932 94.7097C243.831 95.5648 243.114 96.8224 242.94 98.206C242.341 103.79 243.852 107.832 244.87 111.669C247.035 118.928 249.419 125.792 251.746 132.782C251.747 132.785 251.749 132.789 251.75 132.792C255.653 143.938 260.856 153.733 265.688 163.456C265.692 163.464 265.697 163.473 265.701 163.481C269.718 171.59 274.121 179.732 278.175 187.527C278.183 187.544 278.192 187.561 278.2 187.578C283.399 198.03 289.107 209.885 290.404 219.328C290.406 219.344 290.407 219.361 290.408 219.377C289.666 230.173 283.413 245.537 277.458 257.648C277.452 257.66 277.447 257.671 277.441 257.682C275.127 262.432 270.391 266.586 265.447 271.608C265.442 271.613 265.436 271.619 265.431 271.624L266.401 270.837C259.702 275.236 253.15 280.236 246.329 284.582C245.234 285.271 244.121 285.943 243.025 286.548C242.484 286.847 241.933 287.134 241.416 287.38C241.168 287.5 240.913 287.614 240.692 287.706C240.495 287.795 240.26 287.863 240.318 287.888C240.318 287.888 240.319 287.888 240.319 287.888L240.775 287.901C240.495 287.93 240.169 288.369 239.532 288.744C238.911 289.127 238.025 289.409 237.263 289.492C237.476 290.225 237.572 291.157 238.018 292.03C238.445 292.9 239.263 293.657 240.151 293.805L240.607 293.818C240.61 293.818 240.613 293.818 240.616 293.818C244.828 293.407 246.797 292.442 249.615 291.586C257.79 288.795 265.683 285.49 272.93 280.868L273.9 280.081C273.906 280.076 273.911 280.07 273.916 280.065C278.445 275.466 284.382 270.671 288.197 263.16C288.203 263.147 288.209 263.135 288.216 263.122C294.734 249 301.094 236.983 302.426 218.55C302.424 218.516 302.422 218.482 302.419 218.448C300.185 203.665 294.118 193.528 288.572 182.24C288.563 182.222 288.554 182.204 288.544 182.186C284.192 174.024 279.978 166.331 275.854 158.317C275.85 158.308 275.845 158.299 275.841 158.291C270.744 148.472 265.06 139.053 261.719 129.448C261.718 129.444 261.717 129.441 261.716 129.438C259.398 122.48 256.984 115.503 254.963 108.717C253.934 105.178 253.033 101.666 253.373 99.5199Z" fill="#07FF13"/>
<path d="M66.7746 359.627C66.597 358.378 65.9306 357.251 64.922 356.494C63.9134 355.736 62.6452 355.41 61.3964 355.588C60.1477 355.766 59.0206 356.432 58.2632 357.441C57.5058 358.449 57.1801 359.717 57.3577 360.966C57.4937 361.877 57.6552 362.499 57.8208 363.139C58.9448 367.17 60.3318 370.652 62.2443 374.312C62.2469 374.316 62.2495 374.321 62.2521 374.326C62.4664 374.607 62.6339 376.436 64.3039 378.251C64.3065 378.254 64.3091 378.257 64.3118 378.26L65.8088 379.31C68.2717 380.584 70.8038 381.626 73.4998 382.394C74.853 382.776 76.244 383.09 77.7671 383.28C79.3798 383.404 80.6749 383.749 83.7024 382.91L84.1432 382.743C84.1454 382.742 84.1477 382.742 84.1499 382.741C84.9594 382.4 85.7009 382.002 86.3408 381.619C86.9804 381.236 87.5218 380.872 87.9843 380.565C89.2679 379.711 90.1593 378.383 90.4616 376.871C90.7639 375.36 90.4525 373.788 89.5963 372.504C88.7402 371.22 87.4097 370.328 85.8981 370.026C84.3864 369.724 82.8175 370.035 81.5359 370.892C81.0735 371.202 80.6896 371.454 80.375 371.642C80.0585 371.831 79.8128 371.957 79.5963 372.053C79.5957 372.053 79.5951 372.054 79.5945 372.054L80.0353 371.887C80.4988 371.759 80.2203 371.863 79.9549 371.87C79.6621 371.892 79.2567 371.894 78.8301 371.877C77.967 371.842 76.9881 371.734 76.0053 371.576C74.0324 371.257 71.9997 370.737 70.1062 370.004L71.6032 371.055C71.6035 371.055 71.6039 371.056 71.6042 371.056C71.7053 371.193 71.67 371.358 71.4802 371.178C71.2936 371.012 71.0072 370.532 70.6401 369.841C70.6381 369.837 70.6361 369.834 70.6341 369.83C69.1568 367.038 67.8394 363.705 67.0164 360.708C66.902 360.281 66.7991 359.812 66.7746 359.627Z" fill="#07FF13"/>
<path d="M195.844 388.607C195.408 387.073 194.38 385.775 192.986 384.999C191.593 384.223 189.948 384.032 188.414 384.468C186.88 384.905 185.582 385.933 184.806 387.326C184.03 388.719 183.839 390.364 184.276 391.898C184.47 392.582 184.68 393.222 184.899 393.842C186.58 398.116 187.523 400.893 191.172 405.758C191.175 405.761 191.178 405.764 191.18 405.767C192.546 407.506 195.736 408.61 197.521 408.386C199.384 408.271 200.471 407.796 201.409 407.396C201.413 407.394 201.417 407.393 201.422 407.391L202.154 407C205.81 404.606 209.154 402.467 212.737 398.222C212.742 398.216 212.746 398.21 212.751 398.204L213.113 397.69C214.05 396.131 214.272 395.488 214.586 394.974C214.728 394.731 214.87 394.52 215.045 394.311C216.036 393.222 216.558 391.755 216.52 390.254C216.48 388.753 215.884 387.341 214.837 386.307C213.79 385.273 212.372 384.693 210.87 384.671C209.37 384.651 207.908 385.19 206.832 386.194C206.225 386.776 205.645 387.415 205.132 388.069C204.057 389.428 203.275 390.901 202.99 391.321L203.352 390.807C203.351 390.808 203.349 390.81 203.348 390.812C201.887 392.596 198.703 395.001 195.776 396.817L196.508 396.426C196.508 396.426 196.507 396.426 196.506 396.427C196.359 396.508 196.302 396.43 196.974 396.375C197.306 396.358 197.889 396.389 198.545 396.644C199.203 396.89 199.805 397.359 200.118 397.719C200.119 397.72 200.12 397.721 200.122 397.722C200.241 397.868 200.011 397.578 199.855 397.33C199.68 397.063 199.486 396.744 199.294 396.413C198.907 395.745 198.522 395.02 198.155 394.284C197.423 392.813 196.749 391.274 196.239 389.836C196.088 389.409 195.954 388.992 195.844 388.607Z" fill="#07FF13"/>
<path d="M137.07 326.369C138.183 325.256 138.809 323.746 138.809 322.171C138.809 320.596 138.183 319.086 137.07 317.972C135.956 316.859 134.446 316.233 132.871 316.233C131.296 316.233 129.786 316.859 128.673 317.972C128.13 318.515 127.594 319.051 127.054 319.591C122.541 324.3 118.541 327.463 113.422 334.368L111.943 336.82L112.941 339.504C112.941 339.505 112.942 339.507 112.942 339.508C114.964 344.328 117.201 346.423 119.209 348.718L119.46 348.967C119.46 348.967 119.461 348.968 119.462 348.968C123.108 352.396 128.088 354.228 133.657 354.142C134.589 354.129 135.539 354.062 136.502 353.942C136.159 353.034 135.814 352.162 135.464 351.326C133.372 346.323 131.067 342.607 128.074 339.802C128.074 339.801 128.073 339.801 128.073 339.8L128.323 340.049C126.404 338.065 124.215 336.042 124.071 335.366C124.071 335.366 124.071 335.366 124.071 335.365L123.59 340.501C125.9 337.402 131.287 332.198 135.454 327.986C135.992 327.447 136.527 326.912 137.07 326.369Z" fill="#07FF13"/>
<path d="M234.016 344.137C233.101 344.998 232.565 346.188 232.527 347.444C232.489 348.7 232.951 349.92 233.812 350.835C234.673 351.75 235.862 352.286 237.118 352.324C238.375 352.363 239.594 351.9 240.51 351.039C241.626 349.99 242.744 348.94 243.863 347.889C253.764 338.599 263.73 329.307 273.432 319.64C273.463 319.609 273.494 319.578 273.525 319.548C274.544 318.502 275.809 317.149 276.436 314.757C277.097 312.325 276.248 309.634 275.352 308.18C273.498 305.184 271.734 303.885 270.15 302.548C270.129 302.532 270.109 302.516 270.088 302.499C265.597 298.956 260.742 295.406 254.65 293.067C254.635 293.061 254.62 293.056 254.605 293.05C249.424 291.094 244.052 291.273 239.361 292.359C237.762 292.724 236.194 293.192 234.628 293.739C234.162 293.904 233.711 294.147 233.371 294.507C233.031 294.867 232.83 295.31 232.811 295.774C232.791 296.237 232.955 296.696 233.263 297.083C233.572 297.469 234.001 297.749 234.452 297.954C235.96 298.63 237.459 299.23 238.925 299.775C243.334 301.394 247.172 302.538 250.564 303.833C250.574 303.837 250.584 303.841 250.595 303.845C254.813 305.441 259.159 308.177 263.421 311.268C263.441 311.283 263.461 311.297 263.48 311.311C264.977 312.364 266.449 313.421 266.79 313.695C266.874 313.74 266.868 313.68 266.855 313.468C266.84 313.263 266.869 312.908 266.956 312.691C267.156 312.227 267.195 312.498 266.831 312.839C266.801 312.87 266.77 312.9 266.74 312.931C257.197 322.439 247.29 331.679 237.379 340.978C236.258 342.03 235.137 343.083 234.016 344.137Z" fill="#07FF13"/>
<path d="M171.653 63.4605C171.653 62.0826 171.106 60.7612 170.132 59.7869C169.157 58.8126 167.836 58.2652 166.458 58.2652C165.08 58.2652 163.759 58.8126 162.784 59.7869C161.81 60.7612 161.263 62.0826 161.263 63.4605C161.265 63.768 161.255 64.1278 161.295 64.7304C161.324 65.0481 161.335 65.3926 161.512 66.1091C161.619 66.48 161.722 66.9532 162.237 67.7955C162.51 68.2205 162.919 68.7674 163.652 69.3041C164.377 69.8478 165.463 70.2546 166.386 70.3133C167.271 70.3793 167.911 70.2421 168.414 70.0938C168.443 70.0851 168.471 70.0763 168.5 70.0675C171.529 69.1464 173.867 67.2638 175.471 65.8965C176.28 65.2087 176.966 64.6241 177.41 64.3429C177.627 64.2015 177.774 64.1433 177.79 64.1594C177.811 64.1733 177.679 64.2563 177.484 64.3001L176.29 64.336C176.311 64.3422 176.336 64.349 176.365 64.3571C176.978 64.4696 178.958 65.5699 180.831 66.6362C180.896 66.6721 180.961 66.7083 181.027 66.7448C184.497 68.6825 188.384 70.6463 192.423 72.1732C192.996 72.3912 193.571 72.6017 194.154 72.8074C195.199 73.1715 196.356 73.2546 197.434 72.9277C198.511 72.6016 199.414 71.9046 199.96 70.962C200.507 70.0194 200.662 68.8895 200.409 67.7926C200.157 66.695 199.51 65.7326 198.674 65.0067C198.214 64.6081 197.755 64.217 197.292 63.8308C193.995 61.1005 190.655 58.6312 186.725 56.4332C186.649 56.3912 186.573 56.3498 186.498 56.3089C184.193 55.1444 181.924 53.8486 177.796 53.2615C177.585 53.2385 177.369 53.2203 177.15 53.2079L175.956 53.2438C171.009 54.2904 169.618 56.9196 168.283 58.015C167.014 59.2958 166.18 59.914 165.423 60.1429C165.415 60.1452 165.408 60.1474 165.401 60.1497C165.834 60.0222 166.407 59.8957 167.221 59.9562C168.069 60.0092 169.083 60.3891 169.746 60.8883C170.419 61.3809 170.779 61.87 171.012 62.2309C171.447 62.9468 171.501 63.2753 171.57 63.5014C171.673 63.927 171.653 63.9714 171.659 63.9902C171.658 63.994 171.652 63.7531 171.653 63.4605Z" fill="#07FF13"/>
<path d="M70.236 164.823C71.5994 164.823 72.907 164.282 73.871 163.318C74.8351 162.354 75.3767 161.046 75.3767 159.683C75.3767 158.319 74.8351 157.012 73.871 156.048C72.907 155.084 71.5994 154.542 70.236 154.542C65.8875 154.542 61.6838 154.285 57.9077 153.345C57.9033 153.344 57.8989 153.343 57.8945 153.342C57.9378 153.356 57.7807 153.308 57.5634 153.187C50.8385 148.412 44.0217 136.93 38.1393 127.507C38.1335 127.498 38.1278 127.488 38.122 127.479C32.4203 117.839 29.3933 105.791 26.4085 93.7627C26.4046 93.7472 26.4007 93.7317 26.3969 93.7161C24.239 85.5171 24.8069 79.1381 28.0486 70.7988C28.0542 70.783 28.0598 70.7671 28.0654 70.7512C32.5333 58.2223 40.2083 46.538 48.58 35.3746C48.586 35.3666 48.592 35.3585 48.598 35.3505C53.1466 29.1935 58.3043 24.6814 65.079 21.3996C65.0823 21.398 65.0856 21.3963 65.0888 21.3947C76.1592 15.8898 88.7324 13.0426 101.437 11.7468C101.446 11.746 101.454 11.7451 101.463 11.7442C115.318 9.65928 126.495 17.2649 138.976 26.314L137.527 24.859C137.535 24.87 137.542 24.8811 137.55 24.8921C142.03 31.4353 146.206 38.3239 150.538 45.2364C152.028 47.6027 153.505 49.9563 155.195 52.4126L155.617 52.9544C155.619 52.9559 155.62 52.9574 155.621 52.959C157.358 54.876 158.558 55.868 160.366 57.387C161.327 58.2001 162.495 58.807 163.763 58.9688C165.031 59.1311 166.281 58.8443 167.282 58.141C168.284 57.4377 168.977 56.3591 169.255 55.1118C169.533 53.864 169.358 52.5591 168.92 51.3789C168.058 49.0458 166.285 46.424 164.865 44.8852C164.865 44.8842 164.864 44.8831 164.863 44.8821L165.285 45.4238C163.83 43.3128 162.325 40.974 160.83 38.6728C156.429 31.8797 151.972 25.0014 147.193 18.1927C147.185 18.1812 147.177 18.1696 147.169 18.1581L145.721 16.7031C134.109 8.29315 117.532 -2.47701 100.283 0.508981C100.274 0.509963 100.265 0.510947 100.256 0.511932C86.6249 2.01115 72.8615 5.11966 60.1239 11.4827C60.12 11.4846 60.1162 11.4866 60.1124 11.4885C52.1945 15.2455 44.7876 21.7428 39.7621 28.7203C39.7553 28.7295 39.7484 28.7386 39.7415 28.7478C31.0963 40.3376 22.8143 52.72 17.6821 67.0964C17.6756 67.1147 17.6692 67.133 17.6628 67.1513C14.1718 75.2716 12.9991 87.3908 15.8034 96.3743C15.808 96.3925 15.8126 96.4106 15.8172 96.4288C18.9265 108.53 21.8547 121.164 28.9458 133.109C28.9532 133.121 28.9606 133.133 28.968 133.144C35.7332 143.201 40.3102 153.202 52.6745 162.234C53.4332 162.64 54.2906 163.035 55.4085 163.318C55.4144 163.32 55.4203 163.321 55.4263 163.323C60.511 164.577 65.4835 164.815 70.236 164.823Z" fill="#07FF13"/>
<path d="M280.975 182.444C279.548 182.648 278.261 183.41 277.396 184.563C276.532 185.716 276.16 187.165 276.364 188.591C276.568 190.018 277.33 191.305 278.483 192.17C279.636 193.034 281.085 193.406 282.512 193.202C291.028 191.122 294.58 187.2 299.367 183.589C301.938 181.462 304.381 179.255 306.754 176.999C306.757 176.995 306.761 176.991 306.765 176.988C315.112 169.081 320.14 159.064 324.712 149.976C324.715 149.969 324.719 149.961 324.723 149.954C328.598 142.268 330.785 134.344 332.628 126.687C332.628 126.686 332.628 126.686 332.628 126.686C335.976 111.974 338.672 97.2843 339.378 81.7882C339.379 81.7783 339.379 81.7684 339.379 81.7585C339.852 70.4403 338.298 58.3408 333.725 47.5567C333.718 47.5396 333.711 47.5225 333.704 47.5054C328.106 33.4518 317.004 21.7156 304.379 14.2794C304.366 14.2715 304.353 14.2636 304.34 14.2558C294.339 8.1551 282.718 5.16853 271.543 4.40471C271.532 4.40393 271.522 4.40316 271.511 4.40238C254.303 2.58293 239.142 13.4238 228.597 22.938C228.59 22.9443 228.582 22.9505 228.575 22.9568C219.728 30.8979 210.573 38.0353 202.363 48.5885L202.222 48.7904C202.219 48.7945 202.216 48.7987 202.214 48.8028C200.756 50.984 199.437 53.1391 198.154 55.246C197.14 56.9117 196.151 58.5537 195.171 60.097C195.17 60.0982 195.17 60.0993 195.169 60.1005C193.395 62.916 191.184 66.0235 189.338 69.653C188.629 71.0504 188.466 72.6741 188.916 74.184C189.366 75.6937 190.386 76.963 191.759 77.7159C193.132 78.4688 194.751 78.6471 196.266 78.2147C197.781 77.7824 199.062 76.7722 199.86 75.423C201.454 72.7118 203.509 69.9918 205.588 66.7188C205.589 66.7175 205.59 66.7162 205.591 66.7149C206.689 64.9834 207.7 63.2971 208.7 61.6477C209.96 59.5675 211.197 57.5401 212.458 55.647C212.46 55.6434 212.463 55.6398 212.465 55.6363L212.324 55.8382C218.56 47.6853 227.944 39.9167 236.649 32.18C236.656 32.1737 236.663 32.1675 236.67 32.1612C247.237 22.7403 258.163 15.3426 270.616 16.6196C270.625 16.6203 270.635 16.621 270.644 16.6217C280.504 17.3054 289.929 19.7892 298.035 24.7035C298.046 24.7104 298.057 24.7173 298.069 24.7241C309.067 31.2487 317.789 40.5665 322.465 52.1374C322.471 52.1521 322.477 52.1668 322.483 52.1815C326.337 61.3175 327.631 71.1137 327.246 81.3274C327.246 81.3363 327.246 81.3452 327.245 81.3541C326.637 95.3803 324.096 109.911 320.953 123.979C320.953 123.979 320.953 123.979 320.953 123.98C319.215 131.429 317.725 138.737 314.663 145.005C314.66 145.012 314.657 145.018 314.654 145.024C310.246 154.211 305.895 162.879 299.27 169.119C299.267 169.121 299.264 169.124 299.261 169.127C297.036 171.245 294.764 173.293 292.442 175.214C288.627 178.419 283.367 182.037 280.975 182.444Z" fill="#07FF13"/>
<path d="M323.413 119.042C323.949 118.583 324.282 117.93 324.337 117.227C324.393 116.523 324.166 115.826 323.708 115.29C323.249 114.753 322.597 114.421 321.893 114.365C321.189 114.31 320.493 114.536 319.956 114.995C318.552 116.215 317.649 117.545 316.855 118.867C315.587 121.027 314.684 123.223 313.903 125.438C313.895 125.461 313.887 125.483 313.879 125.506C313.062 128.181 313.667 130.134 314.335 131.816C314.351 131.854 314.368 131.891 314.384 131.928C318.127 138.666 324.2 140.045 329.446 141.833C329.502 141.849 329.558 141.865 329.614 141.881C334.263 143.304 340.029 142.639 344.09 139.223C344.16 139.165 344.228 139.107 344.296 139.048C350.41 133.399 347.679 125.577 347.112 121.072L346.933 120.361C346.914 120.315 346.896 120.269 346.878 120.223C344.507 114.503 340.683 110.226 337.26 106.078L337.087 105.888C337.076 105.877 337.065 105.866 337.054 105.854C336.775 105.575 336.478 105.3 336.171 105.04C334.817 103.893 333.353 103.096 331.95 102.467C331.225 102.142 330.404 102.121 329.665 102.414C328.927 102.707 328.331 103.29 328.012 104.029C327.692 104.768 327.676 105.601 327.969 106.34C328.262 107.078 328.84 107.662 329.573 107.968C330.679 108.426 331.658 108.931 332.407 109.545C332.582 109.687 332.748 109.837 332.914 110.001C332.92 110.007 332.927 110.014 332.933 110.021L332.76 109.831C336.248 113.974 339.706 118.011 341.483 122.377C341.497 122.411 341.511 122.446 341.524 122.48L341.345 121.77C342.384 127.504 343.222 132.497 340.494 134.657C340.456 134.689 340.418 134.722 340.378 134.755C337.983 136.748 334.513 137.292 331.21 136.308C331.159 136.294 331.109 136.279 331.058 136.264C326.343 134.916 321.015 132.616 319.589 129.595C319.578 129.572 319.568 129.549 319.558 129.526C319.083 128.538 318.796 127.437 318.905 127.257C318.912 127.236 318.919 127.216 318.927 127.195C319.624 125.207 320.441 123.264 321.435 121.578C322.04 120.553 322.74 119.614 323.413 119.042Z" fill="#07FF13"/>
<path d="M322.592 68.7951C323.285 68.7951 323.949 68.52 324.439 68.0303C324.928 67.5405 325.204 66.8763 325.204 66.1838C325.204 65.4912 324.928 64.827 324.439 64.3373C323.949 63.8476 323.285 63.5724 322.592 63.5724C321.591 63.5957 321.084 63.9927 320.779 64.2197C320.482 64.46 320.325 64.6546 320.202 64.8102C319.96 65.1283 319.837 65.3602 319.729 65.5677C319.517 65.9882 319.393 66.3204 319.277 66.6514C319.051 67.3065 318.897 67.9003 318.759 68.4959C318.399 70.0836 318.187 71.6144 318.029 73.1514C318.027 73.1726 318.025 73.1938 318.023 73.2149C317.881 74.3911 318.24 75.9594 319.015 76.9918C319.765 78.0372 320.615 78.6083 321.202 79.0394C321.222 79.0536 321.241 79.0676 321.261 79.0816C323.685 80.9079 327.176 81.6 329.986 81.1942C329.987 81.1941 329.987 81.1941 329.987 81.1941C333.646 80.7201 337.112 79.6668 340.366 77.2021C340.387 77.1854 340.407 77.1688 340.428 77.152C345.783 72.0477 344.091 65.9868 345 61.9299C345.009 61.878 345.017 61.8263 345.024 61.7746C345.481 58.8589 344.957 55.8502 343.958 53.3059L343.732 52.8526C343.715 52.8265 343.699 52.8005 343.683 52.7746C341.574 49.3503 338.387 46.4513 335.208 44.4149C335.174 44.3923 335.14 44.3699 335.107 44.3477L334.958 44.2552C334.95 44.2508 334.942 44.2463 334.935 44.2419C333.841 43.603 332.56 43.169 331.575 42.867C330.935 42.6649 330.236 42.7271 329.633 43.0342C329.03 43.3416 328.574 43.8686 328.361 44.5052C328.149 45.1419 328.198 45.8375 328.496 46.4451C328.794 47.0523 329.316 47.5215 329.949 47.7438C330.941 48.0859 331.624 48.3798 332.334 48.7888C332.339 48.7917 332.344 48.7945 332.349 48.7974L332.199 48.7049C332.231 48.7263 332.264 48.7478 332.296 48.7693C335.22 50.6702 337.512 52.804 339.248 55.5781C339.262 55.599 339.275 55.62 339.288 55.641L339.061 55.1877C339.823 57.1542 340.122 59.0986 339.833 60.9955C339.828 61.0292 339.822 61.063 339.817 61.0969C339.108 66.2682 339.423 71.3859 337.109 73.0893C337.098 73.098 337.087 73.1069 337.076 73.1158C335.133 74.6248 332.169 75.6691 329.378 75.9913C329.378 75.9913 329.378 75.9914 329.377 75.9914C327.387 76.2279 325.793 75.8851 324.291 74.8133C324.279 74.8047 324.267 74.7961 324.255 74.7875C323.685 74.3893 323.362 74.0969 323.281 73.9702C323.211 73.8433 323.219 73.9341 323.224 73.689C323.224 73.685 323.225 73.6809 323.225 73.6767C323.365 72.2993 323.561 70.9293 323.85 69.6643C323.957 69.1968 324.079 68.743 324.21 68.3662C324.273 68.1824 324.344 68.0127 324.381 67.9424C324.394 67.9126 324.411 67.9019 324.334 68.0052C324.292 68.0565 324.229 68.145 324.037 68.3019C323.839 68.4432 323.455 68.7726 322.592 68.7951Z" fill="#07FF13"/>
<path d="M38.6711 119.05C38.9693 118.514 39.0421 117.881 38.8738 117.291C38.7054 116.701 38.3095 116.202 37.7732 115.904C37.2369 115.606 36.6042 115.533 36.0142 115.701C35.4242 115.87 34.9252 116.265 34.6271 116.802C34.0338 117.869 33.4197 118.908 32.7678 119.904C30.2875 123.749 27.1013 126.864 23.0653 128.44C23.0334 128.452 23.0014 128.465 22.9694 128.478C19.4851 129.908 15.1332 128.934 12.0623 126.597C12.0291 126.572 11.9965 126.546 11.9643 126.521C6.87405 122.749 6.85847 115.161 4.9167 107.645C4.91303 107.632 4.90944 107.618 4.90593 107.604C4.39531 105.865 5.49064 103.746 7.13177 101.205L6.90214 101.527C6.91816 101.508 6.93423 101.49 6.95035 101.472C8.19821 100.05 9.88126 99.1039 11.7369 98.6686L11.7803 98.6566C11.7925 98.6534 11.8046 98.6502 11.8167 98.647C12.1512 98.5588 12.4415 98.4814 12.7151 98.418C13.7337 98.1783 14.8742 98.0538 16.0766 97.9491C16.7994 97.8866 17.4601 97.5387 17.9123 96.9715C18.3645 96.4049 18.5712 95.6652 18.4879 94.926C18.4047 94.1868 18.0388 93.5116 17.4719 93.0598C16.9049 92.6072 16.1834 92.415 15.4648 92.5147C14.1627 92.6968 12.793 92.9121 11.3729 93.319C11.0127 93.4219 10.6751 93.5299 10.3798 93.6219C10.3691 93.6252 10.3584 93.6285 10.3477 93.6319L10.3912 93.6199C7.63232 94.3966 5.05162 96.0437 3.20602 98.265C3.18212 98.2935 3.15831 98.322 3.13459 98.3507L2.90495 98.6723C1.52136 101.046 -0.813744 104.598 0.285022 108.809C0.292816 108.839 0.300779 108.869 0.308913 108.899C2.17774 115.255 1.74984 124.518 9.02905 130.246C9.07696 130.283 9.12532 130.321 9.17413 130.358C13.4868 133.603 19.4126 134.873 24.6666 132.782C24.7065 132.766 24.7464 132.75 24.7862 132.735C29.861 130.776 33.9036 126.718 36.6394 122.437C37.3693 121.322 38.0383 120.188 38.6711 119.05Z" fill="#07FF13"/>
<path d="M53.8032 55.5293C54.348 55.0726 54.6891 54.4181 54.7513 53.7099C54.8136 53.0017 54.592 52.2977 54.1352 51.7529C53.6784 51.2081 53.024 50.867 52.3157 50.8047C51.6075 50.7425 50.9036 50.9641 50.3587 51.4209C49.9374 51.7736 48.8596 52.3508 47.9142 52.7809C45.2652 53.9783 42.3059 54.9923 39.5544 55.519C39.542 55.5213 39.5297 55.5235 39.5174 55.5257C36.913 55.9723 33.7838 55.4163 30.9742 54.4938C30.9491 54.4856 30.9241 54.4773 30.899 54.4689C26.6207 53.0488 23.5194 47.8213 21.3849 42.5985C21.3838 42.596 21.3828 42.5934 21.3817 42.5909C21.2967 42.3315 21.2529 42.2788 21.4357 41.6612C21.4371 41.6571 21.4384 41.6531 21.4397 41.649C22.2084 39.1811 26.5858 36.9099 30.6238 34.9435L30.7749 34.8617C30.79 34.853 30.805 34.8442 30.8201 34.8355C32.5136 33.848 34.0905 33.0806 35.7002 32.7279L35.4684 32.7675C35.4754 32.7666 35.4823 32.7656 35.4893 32.7647C36.1167 32.6793 36.675 32.6872 37.3967 32.7706C38.3508 32.8833 39.4139 33.1173 40.4816 33.3945C41.1702 33.5739 41.9049 33.4712 42.5231 33.1125C43.1413 32.7536 43.5923 32.1681 43.778 31.4812C43.9636 30.7943 43.8689 30.0613 43.5156 29.4399C43.1623 28.8186 42.5794 28.3598 41.8942 28.1679C40.6947 27.8359 39.4691 27.5254 38.0979 27.3332C37.0953 27.1903 35.9024 27.1415 34.8045 27.2839C34.7932 27.2853 34.7819 27.2866 34.7707 27.288L34.5389 27.3276C32.0866 27.8354 29.8967 28.9205 28.0223 30.012C28.0055 30.0217 27.9887 30.0315 27.972 30.0412L28.1231 29.9594C24.2319 32.1593 18.899 33.4921 16.1474 39.9112C16.1445 39.9201 16.1416 39.9289 16.1387 39.9377C15.6932 41.1554 15.5236 43.1778 16.2236 44.7245C16.2247 44.7273 16.2258 44.73 16.227 44.7328C18.6626 50.3314 21.7322 57.0062 29.137 59.7615C29.1681 59.7718 29.1992 59.7821 29.2303 59.7923C32.7666 60.9161 36.4485 61.4568 40.471 60.8016C40.4868 60.7987 40.5026 60.7958 40.5185 60.7929C43.9756 60.1185 47.0396 59.0472 50.1531 57.6524C51.3281 57.0873 52.3945 56.6373 53.8032 55.5293Z" fill="#07FF13"/>
<path d="M265.857 330.568C265.195 331.892 265.086 333.425 265.555 334.829C266.023 336.234 267.03 337.395 268.354 338.057C269.678 338.719 271.211 338.828 272.615 338.36C274.02 337.891 275.181 336.884 275.843 335.56C276.119 335.008 276.381 334.472 276.641 333.941C279.166 328.754 281.674 323.65 284.266 318.559C284.267 318.558 284.267 318.557 284.267 318.556L283.896 319.183C286.103 315.923 288.575 313.135 291.37 309.653L291.429 309.576C291.429 309.576 291.43 309.576 291.43 309.575C291.864 309.004 292.295 308.412 292.708 307.82C293.079 307.288 293.431 306.762 293.757 306.276C294.601 305.018 294.91 303.478 294.613 301.993C294.316 300.508 293.437 299.199 292.173 298.356C290.909 297.513 289.363 297.206 287.878 297.503C286.392 297.8 285.09 298.677 284.253 299.94C283.929 300.43 283.63 300.879 283.332 301.311C283 301.791 282.666 302.257 282.315 302.731C282.315 302.731 282.315 302.731 282.315 302.731L282.374 302.654C280.017 305.675 277.137 309.244 274.689 312.868L274.317 313.494C274.317 313.495 274.316 313.496 274.316 313.497C271.687 318.658 269.122 323.88 266.612 329.036C266.358 329.556 266.1 330.083 265.857 330.568Z" fill="#07FF13"/>
<path d="M287.656 297.967C287.015 299.047 286.829 300.338 287.139 301.555C287.449 302.772 288.231 303.816 289.311 304.458C290.391 305.099 291.682 305.285 292.899 304.974C294.116 304.664 295.16 303.883 295.801 302.802C296.277 302.002 296.747 301.211 297.224 300.412C300.38 295.175 303.741 289.421 306.853 285.017C306.92 284.925 307.033 284.808 306.882 284.967C306.833 285.01 306.705 285.162 306.274 285.375C305.855 285.597 304.941 285.803 304.147 285.623C303.363 285.459 302.937 285.118 302.767 284.976C302.584 284.815 302.572 284.774 302.587 284.802C302.715 284.96 303.132 285.868 303.404 286.752C303.974 288.516 304.477 291.016 304.663 292.608L305.005 290.382C305.015 290.357 305.024 290.34 305.026 290.335C305.148 290.453 302.864 292.082 300.732 293.026L300.554 293.116C300.453 293.169 300.349 293.225 300.249 293.279C297.773 294.618 295.477 296.086 293.259 297.62C292.465 298.171 291.685 298.728 290.911 299.297C289.935 300.014 289.259 301.079 289.047 302.278C288.835 303.477 289.1 304.707 289.788 305.703C290.476 306.699 291.533 307.383 292.73 307.608C293.926 307.833 295.161 307.578 296.178 306.92C296.938 306.427 297.695 305.943 298.454 305.465C300.573 304.13 302.696 302.843 304.795 301.71C304.88 301.664 304.968 301.617 305.052 301.572L304.874 301.662C307.438 300.233 310.332 299.549 313.341 295.074C313.529 294.743 313.703 294.391 313.855 294.02L314.197 291.795C313.82 288.712 313.318 286.535 312.45 283.793C311.975 282.437 311.546 281.098 310.323 279.308C309.645 278.476 308.82 277.036 306.04 276.335C304.661 276.033 303.145 276.345 302.188 276.827C301.701 277.061 301.331 277.303 300.98 277.57C300.677 277.801 300.406 278.044 300.158 278.294C299.714 278.753 299.564 278.965 299.364 279.216C295.263 285.013 292.397 290.106 289.09 295.557C288.609 296.363 288.135 297.16 287.656 297.967Z" fill="#07FF13"/>
<path d="M294.508 298.553C293.059 298.298 291.568 298.628 290.363 299.472C289.158 300.315 288.337 301.603 288.082 303.052C287.826 304.501 288.156 305.991 289 307.197C289.844 308.402 291.131 309.223 292.58 309.478C293.62 309.662 294.657 309.844 295.693 310.027C301.4 311.051 307.382 312.028 312.632 313.181C312.643 313.184 312.653 313.186 312.664 313.189C312.698 313.195 312.657 313.201 312.453 313.114C312.258 313.024 311.845 312.833 311.335 312.272C310.82 311.731 310.397 310.758 310.332 310.08C310.25 309.388 310.35 309.01 310.393 308.83C310.397 308.818 310.4 308.807 310.403 308.796C309.153 313.084 307.292 316.755 304.479 318.817L310.353 318.181C310.346 318.178 310.339 318.174 310.332 318.171C305.954 315.966 300.879 311.954 297.686 308.037L297.719 308.08C297.717 308.078 297.715 308.076 297.714 308.074C297.454 307.737 297.193 307.412 296.933 307.089C296.305 306.312 295.737 305.625 295.118 304.782C294.341 303.731 293.147 303.022 291.83 302.791C290.511 302.56 289.177 302.827 288.09 303.551C287.004 304.276 286.245 305.405 285.95 306.711C285.657 308.015 285.853 309.39 286.524 310.511C287.066 311.423 287.697 312.469 288.313 313.389C288.575 313.78 288.837 314.159 289.11 314.531C289.111 314.534 289.113 314.536 289.115 314.539L289.148 314.583C293.829 320.461 298.673 324.678 305.465 328.249C305.477 328.255 305.489 328.26 305.502 328.266L308.642 329.774L311.376 327.631C316.835 323.486 319.573 317.354 321.165 311.908C321.179 311.859 321.193 311.809 321.207 311.759C321.406 311.005 321.591 310.017 321.437 308.73C321.304 307.456 320.629 305.908 319.715 304.918C317.815 302.927 316.292 302.707 315.227 302.395C315.213 302.392 315.198 302.388 315.184 302.385C309.008 301.032 303.427 300.149 297.619 299.102C296.583 298.919 295.546 298.736 294.508 298.553Z" fill="#07FF13"/>
<path d="M288.442 299.604C288.89 299.454 289.379 299.489 289.802 299.7L289.983 299.791C291.072 300.336 292.162 300.88 293.251 301.425C293.311 301.455 293.372 301.486 293.432 301.516C293.855 301.727 294.176 302.097 294.325 302.545C294.474 302.993 294.44 303.482 294.229 303.904C294.017 304.326 293.647 304.647 293.199 304.797C292.752 304.946 292.263 304.911 291.84 304.7C291.78 304.67 291.719 304.64 291.659 304.609C290.569 304.065 289.48 303.52 288.391 302.975C288.33 302.945 288.27 302.915 288.209 302.884C287.787 302.673 287.466 302.303 287.317 301.855C287.167 301.407 287.202 300.918 287.413 300.496C287.624 300.074 287.995 299.753 288.442 299.604Z" fill="#07FF13"/>
<path d="M283.038 302.36C283.081 303.461 283.558 304.5 284.367 305.248C285.175 305.997 286.248 306.394 287.349 306.352C288.45 306.309 289.489 305.831 290.238 305.023C290.986 304.215 291.383 303.142 291.341 302.041C291.311 301.254 291.279 300.464 291.248 299.673C291.022 293.339 290.604 286.301 290.783 280.859C290.785 280.836 290.788 280.818 290.784 280.849C290.778 280.871 290.776 280.96 290.677 281.271C290.63 281.405 290.544 281.651 290.267 282.005C290 282.357 289.46 282.776 288.936 282.954C287.841 283.295 287.517 283.043 287.492 283.07C287.474 283.054 288.055 283.364 288.55 283.745C289.683 284.582 290.511 285.442 292.285 286.959C292.01 286.749 291.762 286.483 291.58 286.22C291.058 285.439 291.053 284.912 291.032 284.681C291.025 284.439 291.045 284.389 291.038 284.39C291.029 284.405 290.947 284.621 290.829 284.827C290.818 284.848 290.803 284.873 290.786 284.902C290.363 285.647 289.058 287.012 287.779 288.81C287.746 288.857 287.713 288.904 287.68 288.953C286.845 290.132 286.291 292.101 286.457 293.835C286.554 295.079 286.91 296.139 287.244 297.07C287.461 297.586 287.938 298.05 288.481 298.369C289.029 298.687 289.598 298.835 290.152 298.77C290.705 298.704 291.224 298.427 291.682 297.99C292.136 297.553 292.491 296.99 292.582 296.438C292.73 295.802 293.056 295.273 293.405 294.96C293.906 294.513 294.333 294.451 294.754 293.833C294.771 293.809 294.788 293.784 294.806 293.76C295.543 292.685 296.773 291.567 298.195 289.317C298.26 289.208 298.327 289.092 298.392 288.973C298.797 288.22 299.149 287.422 299.396 286.373C299.532 285.325 300.145 283.949 298.608 281.363C298.317 280.941 297.935 280.534 297.508 280.206C296.695 279.549 295.066 278.046 293.436 276.914C292.55 276.319 291.69 275.692 290.06 275.136C289.235 274.907 288.027 274.498 286.125 275.124C284.136 275.798 283.06 277.7 282.786 278.667C282.649 279.089 282.604 279.392 282.579 279.535C282.552 279.707 282.531 279.885 282.52 279.992C282.245 287.492 282.737 293.408 282.946 300.005C282.977 300.794 283.008 301.58 283.038 302.36Z" fill="#07FF13"/>
<path d="M312.558 292.229C311.599 292.964 310.971 294.05 310.813 295.249C310.654 296.447 310.978 297.659 311.714 298.618C312.449 299.577 313.535 300.205 314.733 300.363C315.931 300.522 317.143 300.198 318.102 299.463C318.625 299.062 319.159 298.688 319.702 298.347C321.907 296.871 325.035 295.987 326.16 296.212C326.168 296.213 326.172 296.214 326.172 296.214C325.68 296.177 324.604 295.453 324.351 294.902C324.056 294.368 324.129 294.296 324.127 294.418C324.16 294.689 324.119 295.506 324.017 296.355C323.853 298.148 323.344 300.055 323.628 303.181C323.621 303.117 323.616 303.043 323.617 302.958C323.595 302.486 323.949 301.799 324.245 301.605C324.541 301.382 324.674 301.442 324.663 301.509L325.792 301.441C325.691 301.444 325.589 301.448 325.487 301.452C321.078 301.606 316.298 301.908 311.581 302.783C311.555 302.788 311.529 302.794 311.503 302.799C310.846 302.926 310.188 303.23 309.53 303.59C308.741 304.023 307.95 304.537 307.16 304.924C307.95 305.31 308.741 305.824 309.53 306.257C310.188 306.617 310.846 306.921 311.503 307.049C311.529 307.054 311.555 307.059 311.581 307.064C315.953 307.952 320.211 309.318 324.856 310.148C324.966 310.167 325.075 310.185 325.184 310.203L326.313 310.136C328.894 309.948 332.836 307.273 332.803 303.076C332.808 302.729 332.788 302.398 332.749 302.073C332.635 301.336 332.883 299.386 333.113 297.341C333.213 296.266 333.356 295.143 333.204 293.484C333.099 292.648 332.973 291.608 332.183 290.234C331.448 288.841 329.514 287.523 328.062 287.299C327.946 287.274 327.829 287.252 327.712 287.232C321.983 286.61 318.386 288.562 314.847 290.634C314.051 291.135 313.29 291.669 312.558 292.229Z" fill="#07FF13"/>
<path d="M317.146 299.488C317.871 299.488 318.566 299.2 319.079 298.687C319.592 298.174 319.88 297.479 319.88 296.754C319.88 296.029 319.592 295.333 319.079 294.82C318.566 294.307 317.871 294.019 317.146 294.019C316.838 294.011 316.191 294.05 315.777 294.135C314.263 294.449 313.322 294.855 312.254 295.253C312.253 295.253 312.252 295.254 312.25 295.254C308.205 296.857 304.391 298.565 300.516 300.25C300.247 300.368 299.979 300.485 299.71 300.603C299.046 300.894 298.524 301.436 298.26 302.112C297.995 302.787 298.01 303.54 298.301 304.204C298.591 304.868 299.134 305.39 299.81 305.654C300.485 305.919 301.237 305.904 301.902 305.613C302.171 305.496 302.439 305.378 302.707 305.261C306.557 303.585 310.444 301.851 314.227 300.353C314.228 300.353 314.229 300.352 314.23 300.352C315.149 299.995 316.193 299.62 316.764 299.514C316.929 299.489 316.867 299.489 317.146 299.488Z" fill="#07FF13"/>
<path d="M301.714 270.429C301.865 270.444 302.016 270.459 302.168 270.474C304.891 270.747 307.614 271.019 310.337 271.291C310.489 271.306 310.64 271.321 310.791 271.337C310.64 271.321 310.489 271.306 310.337 271.291C307.614 271.019 304.891 270.747 302.168 270.474C302.016 270.459 301.865 270.444 301.714 270.429Z" fill="#07FF13"/>
<path d="M309.884 260.443C310.08 260.595 310.277 260.746 310.474 260.897C314.014 263.621 317.554 266.344 321.094 269.067C321.291 269.218 321.488 269.37 321.684 269.521C321.488 269.37 321.291 269.218 321.094 269.067C317.554 266.344 314.014 263.621 310.474 260.897C310.277 260.746 310.08 260.595 309.884 260.443Z" fill="#07FF13"/>
<path d="M303.529 264.415C302.897 264.415 302.291 264.666 301.844 265.113C301.398 265.56 301.146 266.166 301.146 266.798C301.146 267.43 301.398 268.036 301.844 268.483C302.291 268.93 302.897 269.181 303.529 269.181C303.815 269.181 304.077 269.181 304.319 269.188C305.202 269.21 305.841 269.328 306.566 269.613C306.567 269.613 306.567 269.614 306.568 269.614C307.839 270.102 310.857 269.321 312.28 270.86C312.28 270.86 312.28 270.86 312.281 270.861C313.695 272.411 314.767 274.23 315.812 276.04C315.955 276.288 316.096 276.535 316.238 276.783C316.096 276.535 315.955 276.288 315.812 276.04C314.767 274.23 313.695 272.411 312.281 270.861C312.28 270.86 312.28 270.86 312.28 270.86C310.997 269.468 310.758 266.203 308.321 265.182C308.32 265.182 308.319 265.181 308.318 265.181C307.103 264.684 305.654 264.441 304.451 264.424C304.123 264.415 303.815 264.415 303.529 264.415Z" fill="#07FF13"/>
<path d="M308.068 260.443C308.301 260.536 308.533 260.629 308.765 260.725C310.289 261.334 311.734 262.142 313.034 263.149C313.034 263.149 313.035 263.149 313.035 263.15C315.296 264.913 317.304 266.974 319.337 268.99C319.515 269.167 319.692 269.344 319.869 269.521C319.692 269.344 319.515 269.167 319.337 268.99C317.304 266.974 315.296 264.913 313.035 263.15C313.035 263.149 313.034 263.149 313.034 263.149C311.734 262.142 310.289 261.334 308.765 260.725C308.533 260.629 308.301 260.536 308.068 260.443Z" fill="#07FF13"/>
<path d="M301.714 340.326C301.986 340.235 302.259 340.145 302.531 340.054C307.433 338.42 312.335 336.786 317.236 335.152C317.509 335.061 317.781 334.97 318.053 334.88C317.781 334.97 317.509 335.061 317.236 335.152C312.335 336.786 307.433 338.42 302.531 340.054C302.259 340.145 301.986 340.235 301.714 340.326Z" fill="#07FF13"/>
<path d="M298.99 333.064C299.329 333.08 299.667 333.096 300.005 333.112C304.866 333.298 309.748 333.711 314.602 333.227C314.623 333.224 314.643 333.221 314.663 333.218C315.261 333.129 315.859 333.011 316.403 332.752C316.954 332.517 317.393 331.957 317.328 331.339C317.313 331 317.227 330.669 317.146 330.341C317.227 330.669 317.313 331 317.328 331.339C317.393 331.957 316.954 332.517 316.403 332.752C315.859 333.011 315.261 333.129 314.663 333.218C314.643 333.221 314.623 333.224 314.602 333.227C309.748 333.711 304.866 333.298 300.005 333.112C299.667 333.096 299.329 333.08 298.99 333.064Z" fill="#07FF13"/>
<path d="M301.714 338.51C302.062 338.374 302.41 338.238 302.758 338.102C309.021 335.651 315.285 333.2 321.548 330.749C321.896 330.613 322.244 330.477 322.592 330.341C322.244 330.477 321.896 330.613 321.548 330.749C315.285 333.2 309.021 335.651 302.758 338.102C302.41 338.238 302.062 338.374 301.714 338.51Z" fill="#07FF13"/>
<path d="M304.005 327.188C303.282 327.067 302.54 327.239 301.943 327.665C301.346 328.092 300.943 328.738 300.823 329.461C300.702 330.185 300.874 330.927 301.3 331.523C301.727 332.12 302.373 332.523 303.096 332.644C303.218 332.664 303.342 332.685 303.467 332.706C304.721 332.879 306 333.222 308.036 332.908C308.036 332.907 308.036 332.907 308.037 332.907C309.951 332.583 311.174 330.97 311.4 329.822C311.439 329.672 311.47 329.522 311.496 329.369C311.547 328.994 311.574 328.615 311.511 328.262C311.447 327.909 311.296 327.608 311.054 327.394C310.812 327.18 310.495 327.066 310.136 327.046C309.779 327.026 309.406 327.099 309.039 327.195C308.901 327.228 308.767 327.261 308.639 327.293C308.116 327.426 307.68 327.529 307.426 327.524C307.162 327.522 307.136 327.442 307.017 327.471C307.017 327.471 307.017 327.471 307.017 327.471C306.649 327.561 305.494 327.445 304.366 327.248C304.247 327.228 304.127 327.208 304.005 327.188Z" fill="#07FF13"/>
<path d="M306.04 332.692C305.717 332.369 305.278 332.187 304.822 332.187C304.365 332.187 303.927 332.369 303.603 332.692C303.28 333.015 303.099 333.453 303.099 333.91C303.099 334.367 303.28 334.805 303.603 335.128C303.633 335.166 303.953 335.457 304.222 335.569C304.495 335.695 304.696 335.732 304.85 335.757C305.694 335.846 305.955 335.749 306.375 335.708C306.378 335.708 306.381 335.707 306.384 335.707C308.164 335.438 309.74 335.087 311.377 334.757C311.486 334.734 311.595 334.712 311.704 334.689C312.152 334.597 312.544 334.331 312.796 333.95C313.047 333.568 313.136 333.102 313.044 332.655C312.952 332.207 312.686 331.815 312.304 331.563C311.923 331.312 311.457 331.223 311.01 331.315C310.9 331.337 310.792 331.36 310.683 331.382C309.074 331.709 307.41 332.069 305.915 332.294C305.912 332.294 305.91 332.294 305.908 332.295C305.759 332.315 305.616 332.332 305.499 332.34C305.392 332.352 305.258 332.34 305.378 332.353C305.422 332.361 305.514 332.372 305.685 332.45C305.853 332.517 306.088 332.733 306.04 332.692Z" fill="#07FF13"/>
<path d="M326.243 283.805C326.349 283.877 326.455 283.949 326.561 284.021C328.049 285.032 329.547 286.033 331.003 287.089C331.003 287.089 331.003 287.089 331.004 287.089C331.409 287.39 331.818 287.688 332.17 288.048C332.259 288.141 332.339 288.241 332.415 288.344C332.339 288.241 332.259 288.141 332.17 288.048C331.818 287.688 331.409 287.39 331.004 287.089C331.003 287.089 331.003 287.089 331.003 287.089C329.547 286.033 328.049 285.032 326.561 284.021C326.455 283.949 326.349 283.877 326.243 283.805Z" fill="#07FF13"/>
<path d="M327.838 288.486C328.502 287.822 328.874 286.922 328.875 285.984C328.875 285.045 328.502 284.145 327.838 283.481C327.174 282.817 326.274 282.445 325.335 282.445C324.397 282.445 323.497 282.817 322.833 283.481C322.654 283.68 322.408 283.87 322.062 284.607C321.879 285.05 321.676 285.638 321.802 286.574C321.936 287.487 322.413 288.187 322.829 288.59C323.205 288.955 323.501 289.119 323.729 289.239C323.926 289.339 324.09 289.401 324.231 289.449C324.457 289.524 324.636 289.562 324.744 289.583C325.2 289.662 325.329 289.651 325.49 289.661C326.926 289.659 327.509 289.58 328.437 289.549L327.103 289.349C327.126 289.358 327.149 289.366 327.172 289.374C328.151 289.717 329.689 289.498 330.504 289.531L330.259 289.216C330.258 289.212 330.256 289.208 330.255 289.204C330.22 289.095 330.261 288.853 330.415 288.633C330.547 288.438 330.772 288.303 330.98 288.306C331.19 288.304 331.374 288.41 331.504 288.524C331.565 288.577 331.675 288.645 331.77 288.699C331.867 288.754 331.941 288.792 332.016 288.817C332.09 288.842 332.172 288.856 332.283 288.87C332.391 288.883 332.52 288.895 332.601 288.89C332.924 288.892 333.578 288.703 333.803 287.996C333.928 287.626 333.907 287.243 333.792 287.006C333.787 286.997 333.783 286.988 333.779 286.979L333.533 286.664C332.308 284.749 331.213 283.35 329.574 282.716C329.538 282.703 329.502 282.69 329.466 282.678L328.132 282.478C327.669 282.498 327.208 282.521 326.763 282.544C326.541 282.555 326.324 282.566 326.124 282.575C325.938 282.584 325.709 282.588 325.72 282.586C325.746 282.591 325.742 282.574 326.066 282.629C326.144 282.644 326.285 282.673 326.483 282.739C326.606 282.78 326.755 282.837 326.938 282.93C327.15 283.041 327.433 283.196 327.798 283.55C328.2 283.94 328.669 284.626 328.801 285.523C328.924 286.44 328.725 287.014 328.549 287.44C328.216 288.149 327.991 288.314 327.838 288.486Z" fill="#07FF13"/>
<path d="M324.428 281.445C324.583 281.471 324.739 281.496 324.894 281.521C326.94 281.874 329.018 282.139 330.985 282.825C330.989 282.826 330.993 282.828 330.997 282.829C331.689 283.091 332.402 283.523 332.641 284.261C332.696 284.409 332.737 284.561 332.778 284.713C332.737 284.561 332.696 284.409 332.641 284.261C332.402 283.523 331.689 283.091 330.997 282.829C330.993 282.828 330.989 282.826 330.985 282.825C329.018 282.139 326.94 281.874 324.894 281.521C324.739 281.496 324.583 281.471 324.428 281.445Z" fill="#07FF13"/>
</svg>
