<svg width="402" height="333" viewBox="0 0 402 333" fill="none" xmlns="http://www.w3.org/2000/svg">
<path d="M145.742 79.3745C145.454 88.9142 145.017 95.1295 144.076 98.3291C142.761 102.802 139.791 107.963 136.813 112.847C134.524 116.6 131.783 119.22 127.945 123.648C125.306 126.693 121.658 131.69 119.007 136.245C114.218 144.477 113.287 150.463 112.853 153.592C111.9 160.452 111.248 168.815 111.755 174.772C111.915 176.657 113.711 179.077 118.195 183.149C121.271 185.942 127.002 188.954 130.615 190.884C134.228 192.813 135.813 193.247 137.566 193.47C139.319 193.694 141.192 193.694 143.122 193.694" stroke="#07FF13" stroke-width="10" stroke-linecap="round"/>
<path d="M254.027 194.57C258.926 196.593 262.891 197.636 265.434 197.347C270.231 196.801 275.108 190.65 280.114 183.679C283.327 179.205 285.84 171.504 287.399 166.623C289.595 159.746 288.67 155.027 287.152 148.776C286.179 144.767 283.762 139.346 281.135 134.132C275.974 123.884 271.789 118.944 270.628 118.289C267.697 116.637 264.236 111.813 260.083 101.544C258.987 97.819 257.835 93.0491 257.241 87.9179C256.647 82.7867 256.647 77.4386 256.647 71.9285" stroke="#07FF13" stroke-width="10" stroke-linecap="round"/>
<path d="M183.729 57.0365C192.375 55.302 200.575 54.4084 206.899 54.4807C212.543 54.991 214.429 55.2844 216.389 55.3567C217.341 55.429 218.206 55.5735 219.533 55.7225" stroke="#07FF13" stroke-width="10" stroke-linecap="round"/>
<path d="M285.901 135.439C287.342 135.439 291.543 133.56 300.168 127.316C305.646 123.351 312.108 116.158 316.389 110.924C320.671 105.69 322.256 102.221 323.576 98.4103C324.897 94.5996 325.906 90.5525 327.362 86.444C328.818 82.3355 330.691 78.2884 332.088 74.469C333.486 70.6496 334.35 67.1806 335.012 63.37C335.673 59.5593 336.105 55.5122 334.167 50.3919C332.228 45.2716 327.906 39.2009 324.742 35.3508C321.579 31.5008 319.706 30.0554 316.651 28.1544C313.597 26.2535 309.418 23.9408 302.511 21.0872C295.603 18.2336 286.094 14.9092 278.025 13.2689C269.956 11.6285 263.616 11.7731 259.701 12.0643C254.455 12.4547 251.137 14.826 247.792 17.6686C245.622 19.513 244.718 21.9829 243.052 24.9658C240.824 28.9569 237.016 33.9361 234.18 39.1877C231.85 43.5023 230.021 46.0688 228.416 48.342C228.122 48.8545 227.978 49.4327 227.111 50.5255C226.244 51.6183 224.659 53.2083 222.59 55.7224" stroke="#07FF13" stroke-width="10" stroke-linecap="round"/>
<path d="M183.293 53.9704C172.918 35.4691 165.413 25.36 161.489 24.4117C159.739 23.9887 158.431 23.897 153.008 24.0394C147.585 24.1817 138.549 24.8451 129.759 26.0802C120.97 27.3154 112.715 29.1093 107.987 30.4408C101.77 32.1912 99.2761 33.9445 96.7349 35.5454C94.1529 37.172 91.4687 39.7922 88.8533 42.9962C86.4525 45.9372 85.9234 50.7292 86.2116 57.0605C86.3686 60.5095 87.0762 64.4036 88.958 71.473C90.8399 78.5424 94.0099 88.6603 96.4354 95.4625C100.049 105.596 103.087 110.311 105.12 113.153C108.577 117.989 113.274 120.678 115.534 122.295C117.645 123.898 120.26 127.1 121.433 129.156C121.723 129.452 122.155 129.596 123.474 129.307" stroke="#07FF13" stroke-width="10" stroke-linecap="round"/>
<path d="M145.306 78.9367C141.559 77.4913 138.332 76.7467 136.007 76.8912C134.21 77.003 133.084 77.9117 132.069 78.7111C126.662 82.9683 126.094 94.9764 127.032 98.9907C128.836 103.842 130.167 107.547 130.386 108.712C130.46 109.299 130.46 109.877 130.897 111.349" stroke="#07FF13" stroke-width="10" stroke-linecap="round"/>
<path d="M257.024 71.6465C260.433 70.3641 264.32 69.7035 268.72 70.9859C279.188 74.0366 279.39 86.0639 281.34 99.118C281.559 102.91 281.559 106.971 281.239 110.773C280.92 114.575 280.281 117.995 279.622 123.461" stroke="#07FF13" stroke-width="10" stroke-linecap="round"/>
<path d="M110.396 182.694C100.588 190.073 90.7792 197.453 85.8378 202.037C80.8964 206.621 81.1193 208.186 85.0238 214.695C88.9282 221.204 96.5075 232.608 104.316 244.359" stroke="#07FF13" stroke-width="10" stroke-linecap="round"/>
<path d="M286.705 183.372C305.147 196.457 310.342 200.306 311.355 203.111C313.298 208.492 309.916 217.206 306.545 225.327C301.796 233.957 300.222 237.122 299.098 238.812C298.642 239.608 298.419 240.279 297.514 241.648" stroke="#07FF13" stroke-width="10" stroke-linecap="round"/>
<path d="M130.662 211.154C127.966 216.108 126.163 219.957 122.143 225.446C118.599 230.286 111.882 239.209 107.434 248.848C102.986 258.487 100.979 268.55 100.057 276.641C98.481 290.474 100.257 298.102 102.719 303.045C104.424 306.469 107.41 311.566 112.581 316.005C117.752 320.443 125.109 324.021 131.462 325.865C142.631 329.105 149.117 327.26 151.359 326.247C154.43 324.86 162.35 321.86 172.807 317.909C177.187 316.254 179.92 315.971 187.205 315.741C194.491 315.51 206.306 315.51 213.061 315.622C224.137 315.805 229.935 317.99 241.402 321.819C247.114 323.726 250.214 325.214 256.507 327.023C263.127 328.927 271.371 327.938 278.346 325.011C284.705 322.342 287.813 318.682 291.981 315.524C295.991 312.486 297.73 306.959 300.993 297.587C302.631 292.88 303.809 285.965 303.934 272.308C304.023 262.599 299.324 257.938 296.288 250.938C293.025 243.418 291.218 238.734 285.716 230.836C282.089 225.63 277.059 222.918 273.543 219.974C272.756 219.293 271.641 218.622 270.733 217.941C269.824 217.26 269.156 216.589 268.466 215.898" stroke="#07FF13" stroke-width="10" stroke-linecap="round"/>
<path d="M133.364 324.32C130.689 308.666 129.31 299.484 130.759 298.796C135.263 296.659 139.207 304.431 141.453 306.013C142.453 306.718 143.699 306.254 144.719 305.803C148.316 304.214 150.008 300.616 154.065 297.902C155.008 297.271 155.642 296.55 156.321 296.093C157 295.635 157.669 295.412 158.57 296.415C161.958 302.852 163.302 306.904 165.555 314.914C166.011 316.852 166.234 318.194 167.815 320.254" stroke="#07FF13" stroke-width="10" stroke-linecap="round"/>
<path d="M236.717 313.477C244.803 308.314 249.768 299.274 252.133 295.307C252.633 294.467 253.146 293.84 253.71 294.165C257.763 296.502 257.199 302.391 258.776 305.112C261.148 309.204 269.79 302.418 274.418 300.158C275.422 299.668 276.329 299.477 276.9 299.81C277.471 300.142 277.694 301.036 277.809 304.963C277.924 308.89 277.924 315.822 277.924 322.964" stroke="#07FF13" stroke-width="10" stroke-linecap="round"/>
<path d="M189.171 143.134C188.639 143.68 188.345 144.415 188.355 145.177C188.365 145.939 188.677 146.666 189.223 147.198C189.769 147.73 190.504 148.023 191.266 148.013C192.028 148.004 192.755 147.691 193.287 147.146C193.573 146.853 193.851 146.561 194.128 146.264C196.361 143.862 198.495 141.188 200.08 138.086C200.081 138.086 200.081 138.085 200.082 138.084L195.943 139.161C195.498 138.841 195.556 138.83 195.51 138.796C195.49 138.774 195.503 138.789 195.519 138.811C195.553 138.858 195.612 138.942 195.672 139.032C195.794 139.213 195.931 139.427 196.066 139.642C196.339 140.075 196.62 140.531 196.904 140.981C197.474 141.886 198.07 142.786 198.731 143.638L198.799 143.722C198.8 143.723 198.8 143.724 198.801 143.724C199.982 145.149 201.968 146.229 204.327 146.214C204.842 146.209 205.368 146.148 205.889 146.022C205.747 145.505 205.63 145.02 205.521 144.564C205.045 142.495 204.618 141.004 203.563 139.75C203.563 139.749 203.562 139.749 203.562 139.748L203.63 139.833C203.026 139.056 202.399 138.304 201.781 137.528C201.472 137.142 201.165 136.748 200.855 136.335C200.699 136.128 200.542 135.916 200.366 135.68C200.276 135.559 200.184 135.436 200.061 135.28C199.997 135.2 199.931 135.117 199.824 134.996C199.694 134.867 199.665 134.76 199.114 134.368L196.445 132.602L194.975 135.445C194.975 135.445 194.975 135.446 194.974 135.447C193.722 137.91 191.932 140.185 189.925 142.343C189.678 142.608 189.428 142.87 189.171 143.134Z" fill="#07FF13"/>
<path d="M172.451 82.3435C173.127 82.1762 173.708 81.7467 174.067 81.1494C174.426 80.552 174.534 79.8359 174.366 79.1584C174.198 78.481 173.769 77.8977 173.173 77.537C172.576 77.1763 171.862 77.0676 171.186 77.2349C168.435 77.9559 166.332 79.2996 164.372 80.738C162.628 82.0447 161.056 83.4943 159.599 85.0465C159.588 85.0587 159.576 85.0709 159.565 85.0831C156.021 89.9923 155.56 93.8931 154.341 98.1857C154.33 98.2313 154.319 98.277 154.309 98.3227C153.34 103.14 153.826 107.433 154.639 111.762C154.649 111.811 154.659 111.86 154.67 111.909C155.434 116.636 159.478 121.174 163.568 122.888C163.578 122.893 163.588 122.897 163.598 122.902C167.704 124.842 171.815 124.6 175.377 124.242C175.412 124.238 175.447 124.234 175.483 124.23C179.676 123.764 183.315 121.885 186.377 119.896C186.411 119.874 186.445 119.852 186.479 119.83C190.44 117.015 191.454 113.425 192.825 110.575C192.829 110.567 192.833 110.558 192.837 110.549C194.979 105.341 195.31 100.434 195.785 95.605C195.787 95.5865 195.788 95.5679 195.79 95.5494C195.428 86.2019 188.84 82.7091 184.037 78.9431C184.026 78.9354 184.015 78.9277 184.003 78.92C178.095 75.1067 172.017 77.1196 167.683 77.6752C167.478 77.7057 167.273 77.7346 167.077 77.76L166.869 77.794C166.868 77.7943 166.867 77.7945 166.865 77.7948C165.28 78.1179 163.77 79.5538 162.666 81.1834C162.663 81.1871 162.661 81.1909 162.658 81.1947L162.575 81.2616C162.195 81.9708 162.36 82.9341 162.35 83.7183C163.131 83.6201 164.086 83.6922 164.603 83.6253L164.52 83.6922C164.523 83.6921 164.525 83.6921 164.528 83.692C165.703 83.6632 166.972 84.347 168.116 84.1126C168.117 84.1124 168.118 84.1122 168.119 84.112L167.911 84.146C168.155 84.1142 168.401 84.0793 168.638 84.0438C173.578 83.1892 177.961 82.3866 180.425 84.1902C180.435 84.197 180.445 84.2039 180.455 84.2107C184.923 87.1958 189.778 91.851 189.463 95.0283C189.462 95.0345 189.462 95.0406 189.461 95.0468C189.046 99.6433 188.505 104.367 186.981 107.966C186.977 107.975 186.973 107.983 186.97 107.992C185.742 110.847 184.394 113.617 182.993 114.452C182.963 114.471 182.933 114.491 182.903 114.51C180.202 116.273 177.479 117.573 174.766 117.871C174.735 117.874 174.704 117.878 174.673 117.881C171.514 118.242 168.485 118.2 166.36 117.155C166.355 117.153 166.349 117.15 166.344 117.147C163.244 115.69 161.527 113.679 160.856 110.58C160.849 110.548 160.842 110.516 160.835 110.484C160.093 106.832 159.686 102.823 160.267 99.5956C160.273 99.5658 160.279 99.5361 160.285 99.5067C161.102 95.5931 161.847 90.67 163.419 88.6609C163.422 88.658 163.425 88.6551 163.427 88.6522C164.698 87.2976 166.067 86.0414 167.515 84.9573C169.115 83.7603 170.885 82.735 172.451 82.3435Z" fill="#07FF13"/>
<path d="M222.225 84.3033C222.861 84.0193 223.357 83.494 223.606 82.8427C223.854 82.1915 223.834 81.4678 223.549 80.8307C223.264 80.1937 222.739 79.6955 222.088 79.4458C221.438 79.1961 220.715 79.2153 220.079 79.4993C217.529 80.6817 215.725 82.3442 214.065 84.0699C212.587 85.6393 211.296 87.3159 210.132 89.0703C210.121 89.0859 210.111 89.1014 210.101 89.117C207.413 94.4613 207.535 98.3471 207.004 102.729C207.001 102.764 206.999 102.8 206.996 102.836C206.743 107.682 207.836 111.804 209.252 115.914C209.27 115.964 209.288 116.014 209.306 116.064C210.675 120.508 215.24 124.448 219.521 125.462C219.563 125.475 219.606 125.487 219.648 125.5C223.968 126.726 227.892 125.771 231.252 124.822C231.299 124.808 231.345 124.794 231.391 124.78C235.383 123.596 238.567 121.154 241.195 118.713C241.239 118.673 241.283 118.632 241.326 118.592C244.656 115.23 245.112 111.625 245.993 108.641C246.009 108.58 246.025 108.518 246.041 108.456C247.3 103.123 246.918 98.3345 246.664 93.6016C246.659 93.5163 246.653 93.4311 246.648 93.3459C245.028 84.354 238.087 81.8886 232.896 79.0301C232.85 79.0085 232.804 78.9869 232.758 78.9655C226.319 76.1935 220.814 79.2716 216.745 80.5298C216.56 80.5922 216.372 80.6536 216.194 80.7099L215.994 80.7803C215.985 80.7841 215.975 80.7879 215.965 80.7917C214.482 81.3822 213.27 83.0562 212.493 84.8293L212.424 84.9083C212.422 84.912 212.421 84.9158 212.42 84.9195C212.171 85.6733 212.503 86.5923 212.63 87.3637C213.383 87.1419 214.337 87.0599 214.832 86.9031C214.835 86.9023 214.837 86.9015 214.84 86.9007L214.77 86.9797C215.913 86.7558 217.256 87.2097 218.316 86.7858C218.323 86.783 218.33 86.7803 218.337 86.7775L218.137 86.848C218.361 86.7771 218.587 86.7029 218.803 86.63C223.415 84.9526 227.517 83.4281 230.071 84.7416C230.112 84.7605 230.153 84.7795 230.193 84.7986C234.934 86.9618 240.197 90.6892 240.311 93.7569C240.316 93.839 240.321 93.9211 240.327 94.0031C240.602 98.4978 240.764 103.123 239.847 106.842C239.831 106.903 239.816 106.963 239.8 107.024C239.058 109.966 238.18 112.842 236.96 113.902C236.921 113.938 236.883 113.974 236.844 114.01C234.531 116.169 232.12 117.898 229.569 118.648C229.528 118.66 229.488 118.672 229.447 118.684C226.489 119.567 223.587 120.033 221.443 119.381C221.41 119.372 221.377 119.362 221.345 119.352C218.187 118.445 216.329 116.78 215.247 113.876C215.231 113.834 215.215 113.792 215.2 113.749C213.951 110.289 212.98 106.445 213.081 103.221C213.083 103.186 213.084 103.152 213.086 103.117C213.293 99.1674 213.265 94.2407 214.482 92.0244C214.491 92.0107 214.5 91.9971 214.509 91.9835C215.527 90.4486 216.655 88.9909 217.885 87.6862C219.237 86.2534 220.782 84.9516 222.225 84.3033Z" fill="#07FF13"/>
<path d="M190.32 107.536C190.176 108.011 190.226 108.523 190.46 108.96C190.693 109.397 191.091 109.724 191.565 109.868C192.04 110.012 192.552 109.962 192.989 109.728C193.426 109.495 193.753 109.097 193.897 108.623C193.947 108.451 194.109 108.09 194.276 107.765C194.977 106.408 195.886 104.989 196.788 103.582C196.794 103.573 196.8 103.564 196.805 103.556C197.398 102.56 197.534 102.428 197.891 102.13C197.896 102.127 197.9 102.123 197.905 102.119C198.608 101.525 199.858 101.181 201.19 101.161C201.199 101.161 201.208 101.161 201.217 101.16C201.284 101.073 202.594 101.876 203.631 102.81C203.637 102.816 203.644 102.822 203.651 102.827C204.163 103.225 204.358 104.096 205.101 106.053L205.131 106.115C205.133 106.118 205.134 106.122 205.136 106.125C205.37 106.589 205.64 107.119 206.284 107.658C206.285 107.659 206.287 107.66 206.288 107.661C206.62 107.923 206.791 108.004 206.898 108.075C207.184 108.248 207.446 108.431 207.75 108.658C208.218 109.008 208.805 109.166 209.386 109.091C209.968 109.016 210.495 108.716 210.853 108.255C211.212 107.794 211.373 107.208 211.302 106.627C211.231 106.045 210.933 105.515 210.478 105.148C210.114 104.855 209.693 104.543 209.258 104.273C209.106 104.181 209.009 104.111 209.103 104.18C209.103 104.18 209.103 104.18 209.104 104.181C209.241 104.304 209.146 104.273 209.088 104.155C209.088 104.155 209.087 104.154 209.087 104.153L209.116 104.214C208.688 103.413 208.311 101.039 206.35 99.4931C206.343 99.4876 206.336 99.482 206.329 99.4764C205.076 98.6405 204.039 97.1951 201.061 97.0568C201.048 97.0575 201.035 97.0582 201.022 97.0589C199.152 97.1788 197.052 97.5912 195.29 99.148C195.279 99.1577 195.269 99.1673 195.258 99.177C194.409 99.8918 193.864 101.205 193.66 101.535C193.654 101.544 193.649 101.553 193.643 101.561C192.725 102.999 191.798 104.424 190.944 106.07C190.731 106.498 190.521 106.905 190.32 107.536Z" fill="#07FF13"/>
<path d="M243.6 95.6895C243.356 96.3416 243.381 97.0639 243.67 97.6974C243.959 98.3309 244.487 98.8237 245.139 99.0675C245.792 99.3113 246.514 99.286 247.147 98.9973C247.781 98.7085 248.274 98.18 248.517 97.5278C248.585 97.3468 248.65 97.1735 248.714 97.0063C248.974 96.323 249.248 95.7047 249.574 95.0491C249.574 95.0487 249.574 95.0482 249.575 95.0478C250.211 93.7758 251.006 92.5252 251.786 91.444C251.787 91.4435 251.787 91.4429 251.788 91.4424C252.346 90.6708 252.796 89.7897 253.199 88.6813C253.269 88.4901 253.337 88.2919 253.403 88.0856C253.519 87.7147 253.597 87.3253 253.563 86.9462C253.528 86.567 253.383 86.2291 253.134 85.9813C252.886 85.7335 252.547 85.5897 252.168 85.556C251.789 85.5224 251.4 85.6016 251.029 85.7194C250.823 85.786 250.618 85.8619 250.416 85.9467C249.243 86.4364 248.196 87.2378 247.437 88.2863C247.436 88.287 247.436 88.2877 247.435 88.2884C246.395 89.7369 245.633 91.1988 244.874 92.7105C244.873 92.711 244.873 92.7115 244.873 92.712C244.488 93.4817 244.118 94.3216 243.812 95.1264C243.738 95.32 243.667 95.5086 243.6 95.6895Z" fill="#07FF13"/>
<path d="M157.803 95.4708C158.36 95.4708 158.893 95.2498 159.286 94.8564C159.68 94.4631 159.901 93.9295 159.901 93.3732C159.901 92.8168 159.68 92.2833 159.286 91.8899C158.893 91.4965 158.36 91.2755 157.803 91.2755C158.162 91.2842 158.246 91.3291 158.333 91.3482C158.401 91.368 158.441 91.3833 158.465 91.3922C158.514 91.4117 158.522 91.4164 158.525 91.4176C158.527 91.4191 158.497 91.4038 158.464 91.3848C158.395 91.3462 158.302 91.2906 158.207 91.2318C157.517 90.7977 156.754 90.2552 156.017 89.7228L156.084 89.7735C156.082 89.7722 156.08 89.7709 156.079 89.7696C153.345 87.7296 150.936 85.9193 148.272 84.2599L148.344 84.3048C148.344 84.3046 148.344 84.3044 148.343 84.3042C147.776 83.9283 147.261 83.5657 146.873 83.215C146.731 83.087 146.592 82.9494 146.404 82.7595C145.932 82.2815 145.289 82.0118 144.616 82.0107C143.944 82.0096 143.297 82.2774 142.819 82.7539C142.341 83.2305 142.071 83.8765 142.07 84.5488C142.069 85.2212 142.337 85.8648 142.813 86.3392C143 86.5253 143.237 86.7611 143.49 86.9865C144.213 87.6322 144.928 88.1169 145.613 88.5491C145.614 88.5494 145.614 88.5496 145.615 88.5499L145.687 88.5948C148.309 90.1297 151.267 91.4058 153.485 93.0671C153.486 93.068 153.487 93.0689 153.489 93.0698L153.556 93.1205C154.338 93.6844 155.098 94.2307 155.991 94.7942C156.122 94.8753 156.256 94.957 156.417 95.0472C156.5 95.0934 156.587 95.1409 156.709 95.1997C156.772 95.2296 156.838 95.261 156.951 95.3052C157.004 95.3255 157.079 95.3529 157.176 95.381C157.296 95.4096 157.414 95.4619 157.803 95.4708Z" fill="#07FF13"/>
<path d="M198.968 120.433C198.968 120.013 198.802 119.611 198.505 119.314C198.208 119.018 197.806 118.851 197.386 118.851C196.967 118.851 196.564 119.018 196.268 119.314C195.971 119.611 195.804 120.013 195.804 120.433C195.801 120.493 195.816 120.748 195.842 120.87C195.919 121.248 195.985 121.387 196.049 121.569C196.049 121.569 196.049 121.569 196.049 121.569C196.405 122.545 197.195 123.229 198.082 123.544C198.142 123.566 198.201 123.585 198.263 123.605C198.439 123.653 198.618 123.689 198.791 123.679C198.964 123.669 199.118 123.614 199.235 123.51C199.351 123.406 199.424 123.259 199.454 123.089C199.483 122.918 199.468 122.736 199.441 122.555C199.434 122.497 199.427 122.442 199.42 122.386C199.302 121.537 199.185 120.941 199.014 120.465C199.014 120.465 199.014 120.465 199.014 120.464C198.974 120.363 198.935 120.219 198.955 120.302C198.962 120.323 198.97 120.476 198.968 120.433Z" fill="#07FF13"/>
<path d="M203.25 123.597C203.855 123.597 204.436 123.356 204.863 122.928C205.291 122.501 205.532 121.92 205.532 121.315C205.532 120.71 205.291 120.13 204.863 119.702C204.436 119.274 203.855 119.034 203.25 119.034C203.231 119.035 203.255 119.032 203.36 119.039C203.47 119.056 203.658 119.038 204.118 119.245C204.387 119.368 204.783 119.655 205.031 120.059C205.285 120.462 205.353 120.85 205.368 121.096C205.386 121.595 205.306 121.743 205.275 121.869C205.272 121.879 205.269 121.888 205.266 121.897C205.169 122.157 205.177 122.102 205.182 122.106C205.191 122.094 205.216 122.058 205.244 122.017C205.303 121.934 205.379 121.828 205.457 121.711C205.458 121.71 205.458 121.709 205.459 121.708C205.708 121.362 205.943 120.552 205.766 119.972C205.75 119.91 205.732 119.849 205.711 119.787C205.542 119.436 205.373 119.098 205.172 118.823C204.97 118.547 204.739 118.353 204.464 118.261C204.189 118.168 203.888 118.184 203.56 118.282C203.234 118.38 202.895 118.548 202.549 118.726C202.502 118.742 202.457 118.758 202.414 118.772C202.204 118.845 202.041 118.89 201.926 118.924C201.809 118.96 201.738 118.993 201.627 119.161C201.626 119.162 201.625 119.163 201.624 119.164C201.546 119.282 201.465 119.411 201.372 119.567C201.325 119.646 201.276 119.731 201.215 119.841C201.15 119.968 201.09 120.038 200.945 120.431C200.941 120.444 200.937 120.457 200.932 120.47C200.886 120.643 200.795 120.84 200.815 121.388C200.832 121.658 200.906 122.071 201.173 122.495C201.434 122.919 201.851 123.223 202.141 123.357C202.638 123.581 202.868 123.569 203.018 123.589C203.164 123.599 203.229 123.596 203.25 123.597Z" fill="#07FF13"/>
<path d="M181.553 61.333C181.948 61.333 182.327 61.176 182.607 60.8965C182.886 60.617 183.043 60.238 183.043 59.8428C183.043 59.4475 182.886 59.0685 182.607 58.789C182.327 58.5095 181.948 58.3525 181.553 58.3525C180.795 58.3844 180.538 58.7624 180.456 58.823C180.374 58.9089 180.326 58.9748 180.287 59.0307C180.208 59.1489 180.199 59.1714 180.168 59.229C180.115 59.331 180.097 59.375 180.068 59.4398C180.025 59.5426 179.991 59.6314 179.959 59.7188C179.901 59.8805 179.847 60.0421 179.801 60.186C179.705 60.4859 179.619 60.7742 179.535 61.0637C179.367 61.6428 179.211 62.2084 179.057 62.7808C178.75 63.9238 178.458 65.0589 178.171 66.195C177.93 67.1521 177.694 68.1047 177.46 69.0619C177.417 69.2377 177.369 69.4143 177.318 69.5921C177.184 70.06 177.027 70.5106 176.89 71.0624C176.831 71.3603 176.734 71.5873 176.775 72.2379C176.8 72.424 176.814 72.6335 177.007 73.0093C177.167 73.3732 177.76 73.8786 178.267 73.9506C179.239 74.0739 179.418 73.8257 179.669 73.7485C180.252 73.453 180.506 73.2281 180.824 72.989C183.501 70.9322 186.16 68.4806 188.569 66.6842C188.687 66.6036 188.825 66.5262 188.83 66.5282C188.817 66.5243 188.822 66.5737 188.453 66.6069C188.343 66.6115 188.201 66.6058 188.029 66.5633C187.832 66.5158 187.598 66.4082 187.406 66.2485C187.216 66.095 187.069 65.8838 186.999 65.7368C186.927 65.5935 186.892 65.4699 186.873 65.3738C187.167 66.8913 187.512 68.3833 188.204 69.9585C188.489 70.5137 188.577 71.0157 189.453 71.8471C189.479 71.8692 189.507 71.8914 189.535 71.9134C189.838 72.1582 190.307 72.3496 190.728 72.3736C191.15 72.4033 191.483 72.3149 191.725 72.2239C192.209 72.0305 192.439 71.8248 192.643 71.6476C193.031 71.2906 193.246 70.9847 193.447 70.6828C194.305 69.3612 194.816 68.016 195.263 66.7271C195.479 66.0991 195.673 65.4673 195.859 64.9254C195.834 64.946 195.915 64.9799 195.54 65.4005C195.35 65.6305 194.642 66.0064 194.032 65.8843C193.407 65.7586 193.305 65.5876 193.169 65.4914C192.992 65.3253 193.016 65.3203 193.02 65.3382C193.034 65.3636 193.06 65.4114 193.094 65.4831C193.224 65.7543 193.38 66.1591 193.52 66.55C193.805 67.3514 194.08 68.2175 194.359 69.0828C194.946 70.8398 195.41 72.5539 196.435 74.5478C196.66 74.9368 196.832 75.3279 197.363 75.8913C197.604 76.1327 197.918 76.4039 198.419 76.6174C198.906 76.8343 199.645 76.9206 200.256 76.7432C201.73 76.2539 202.073 75.4261 202.409 74.8576C203.505 72.3848 203.136 70.5698 203.064 68.8613C203.024 68.3636 202.98 67.8827 202.948 67.4336C202.942 67.4507 202.977 67.4607 202.904 67.7943C202.874 67.9137 202.764 68.2781 202.443 68.6124C202.11 68.9967 201.447 69.2246 201.145 69.2209C200.782 69.2373 200.633 69.1803 200.528 69.1528C200.419 69.1183 200.388 69.1005 200.363 69.0894C200.321 69.0681 200.349 69.0819 200.391 69.1123C200.57 69.237 200.895 69.5235 201.193 69.8099C201.8 70.3928 202.433 71.0633 203.072 71.7376C204.395 73.098 205.517 74.4693 207.439 75.9177C207.661 76.072 207.904 76.2296 208.22 76.3853C208.496 76.5173 208.746 76.6344 209.171 76.7494C209.376 76.801 209.667 76.8671 210.071 76.8592C210.304 76.8531 210.566 76.8199 210.852 76.727C211.192 76.6182 211.556 76.4129 211.844 76.132C212.136 75.8537 212.345 75.4977 212.452 75.2198C212.557 74.9541 212.606 74.7102 212.63 74.5003C212.669 74.1485 212.641 73.854 212.614 73.6589C212.55 73.2231 212.463 72.9574 212.379 72.6971C212.029 71.7004 211.647 71.007 211.256 70.2824C210.865 69.5717 210.463 68.9013 210.053 68.2366C209.85 67.9079 209.644 67.5804 209.44 67.2578C209.34 67.1 209.237 66.9382 209.14 66.7842C209.095 66.7121 209.043 66.63 209.003 66.5648C208.98 66.5275 208.965 66.5018 208.953 66.4808C208.947 66.4701 208.945 66.4661 208.951 66.4771C208.955 66.4846 208.956 66.4837 208.984 66.5392C209.011 66.6135 209.057 66.6156 209.17 67.0852C209.178 67.1253 209.187 67.1767 209.196 67.251C209.204 67.3452 209.217 67.3577 209.208 67.6285C209.197 67.7852 209.179 67.999 209.058 68.3203C208.908 68.6368 208.786 69.0698 207.947 69.5409C207.157 69.9294 206.457 69.761 206.144 69.646C205.908 69.5563 205.843 69.5118 205.743 69.4541C205.393 69.2265 205.391 69.1819 205.333 69.1333C205.287 69.0866 205.265 69.0618 205.254 69.0492C205.206 68.9931 205.228 69.0178 205.239 69.0344C205.271 69.0791 205.322 69.1528 205.376 69.2309C206.298 70.6149 207.322 72.1742 208.513 73.6188C208.709 73.8546 208.915 74.0786 209.14 74.2951C211.014 76.1179 213.725 76.8863 216.305 76.4204C216.784 76.331 217.377 76.0731 217.827 75.6537C219.065 74.3777 218.902 73.369 218.943 72.7626C218.928 72.1224 218.832 71.644 218.718 71.1972C218.69 71.0904 218.66 70.9878 218.629 70.8881C218.146 69.3901 217.55 68.2232 217.052 67.1189C217.053 67.1228 217.056 67.1271 217.058 67.1319C217.07 67.1581 217.087 67.1969 217.11 67.259C217.122 67.2907 217.134 67.3256 217.149 67.3748C217.172 67.451 217.198 67.5496 217.221 67.6933C217.243 67.8373 217.264 68.0272 217.242 68.3023C217.229 68.7387 216.909 69.7497 216.048 70.2793C215.254 70.756 214.754 70.7021 214.397 70.6871C214.222 70.671 214.089 70.6426 213.982 70.6147C213.903 70.594 213.861 70.5802 213.811 70.5635C213.439 70.4259 213.425 70.3861 213.374 70.3623C213.334 70.3376 213.335 70.3381 213.338 70.341C213.364 70.362 213.482 70.459 213.589 70.5522C213.812 70.7467 214.066 70.9773 214.321 71.21C214.832 71.6764 215.363 72.1646 215.915 72.6518C217.115 73.6318 217.88 74.5901 220.199 75.6088C220.536 75.7299 220.91 75.8284 221.325 75.8791C222.604 76.077 224.446 75.571 225.443 74.1469C225.805 73.6437 225.989 73.1191 226.078 72.6918C226.332 71.0829 226.003 70.4319 225.836 69.7228C225.634 69.05 225.414 68.49 225.197 67.9549C224.765 66.8962 224.33 65.9399 224.021 65.0895C224.031 65.1179 224.048 65.1654 224.067 65.2399C224.079 65.2904 224.104 65.4063 224.116 65.5453C224.126 65.6782 224.136 65.8847 224.08 66.1815C224.043 66.7261 223.336 67.7457 222.731 67.9813C222.457 68.1202 222.251 68.1725 222.084 68.2053C221.941 68.2321 221.841 68.2384 221.763 68.2409C221.623 68.2438 221.574 68.234 221.56 68.2333C221.529 68.2249 221.823 68.3005 222.082 68.3976C222.637 68.598 223.294 68.8824 223.962 69.1733C224.636 69.4668 225.33 69.7749 226.096 70.0801C226.915 70.369 227.497 70.731 229.151 70.8929C229.551 70.9038 229.991 70.9476 230.794 70.781C231.335 70.6664 232.297 70.3171 232.983 69.4591C233.66 68.6083 233.792 67.7868 233.85 67.2648C233.909 66.6004 233.852 66.1559 233.779 65.7453C233.336 63.7132 232.585 62.4423 231.789 61.1184C231.691 60.9605 231.591 60.8047 231.491 60.6523C231.246 60.2796 230.992 59.9248 230.737 59.5851C229.224 57.5919 227.594 55.9546 226.137 54.1937C225.724 53.6959 225.112 53.3781 224.453 53.2977C223.792 53.2181 223.139 53.3824 222.619 53.767C222.099 54.1516 221.751 54.7285 221.634 55.3832C221.519 56.0372 221.644 56.7154 221.999 57.2563C223.314 59.2571 224.629 61.2475 225.831 63.059C226.033 63.3647 226.23 63.6662 226.417 63.9566C226.493 64.0753 226.568 64.1932 226.638 64.3085C227.212 65.2276 227.716 66.3285 227.816 66.8831C227.834 66.9624 227.838 67.0183 227.864 66.8507C227.894 66.7358 227.929 66.3329 228.349 65.8074C228.781 65.277 229.347 65.1106 229.49 65.0846C229.729 65.043 229.588 65.0791 229.412 65.0667C229.572 65.0873 229.297 65.0514 229.064 64.9743C228.811 64.8982 228.515 64.7927 228.208 64.6753C227.589 64.4377 226.929 64.156 226.239 63.8649C225.544 63.5733 224.841 63.2709 223.995 62.9731C223.555 62.827 223.139 62.6701 222.376 62.5507C222.194 62.5255 221.939 62.4967 221.622 62.5045C221.445 62.5094 221.256 62.5242 221.027 62.5669C220.76 62.6187 220.47 62.6973 220.115 62.8771C219.339 63.1951 218.516 64.3843 218.45 65.1034C218.414 65.2927 218.397 65.4712 218.392 65.6365C218.389 65.7822 218.394 65.8963 218.403 66.0144C218.421 66.2389 218.468 66.4728 218.499 66.5959C218.542 66.7722 218.593 66.9294 218.647 67.0758C219.08 68.2232 219.539 69.2062 219.916 70.12C220.103 70.5714 220.27 71.0059 220.376 71.3549C220.428 71.5266 220.464 71.678 220.475 71.7523C220.493 71.8212 220.457 71.8267 220.51 71.5315C220.542 71.3789 220.624 71.1199 220.823 70.8454C221.165 70.3558 221.792 70.2666 221.961 70.3176C222.02 70.3276 222.044 70.3401 222.041 70.3423C222.059 70.3592 221.849 70.2687 221.649 70.1475C221.441 70.0253 221.203 69.8674 220.96 69.6941C220.473 69.3474 219.962 68.9418 219.45 68.519C218.935 68.0943 218.419 67.6493 217.881 67.1871C217.609 66.9537 217.337 66.7193 217.025 66.4626C216.864 66.3321 216.708 66.2031 216.451 66.0186C216.379 65.9683 216.322 65.9279 216.197 65.8495C216.139 65.8135 216.074 65.7753 215.996 65.7334C215.893 65.6785 215.75 65.6052 215.529 65.5291C215.47 65.5093 215.42 65.4932 215.332 65.4698C215.21 65.4382 215.064 65.4074 214.877 65.3902C214.497 65.3734 213.98 65.3214 213.169 65.8086C212.291 66.3493 211.96 67.3809 211.945 67.8455C211.921 68.1366 211.943 68.3452 211.968 68.5108C211.995 68.676 212.027 68.7991 212.058 68.9027C212.078 68.9697 212.096 69.0215 212.115 69.0722C212.151 69.1719 212.186 69.2527 212.219 69.3254C212.225 69.3386 212.231 69.3516 212.237 69.3642C212.806 70.5246 213.331 71.6106 213.639 72.4929C213.656 72.5448 213.673 72.5932 213.688 72.6362C213.753 72.8226 213.798 72.991 213.817 73.008C213.829 73.0123 213.828 72.9759 213.87 72.8151C213.914 72.6664 214.023 72.3131 214.408 71.9571C214.682 71.7018 215.052 71.5491 215.295 71.5072C214.336 71.7481 213.155 71.5115 212.407 70.8206C212.311 70.7354 212.22 70.6444 212.129 70.544C211.089 69.3668 210.169 68.0777 209.167 66.6135C209.099 66.5154 209.034 66.4234 208.94 66.2961C208.892 66.233 208.849 66.1722 208.731 66.0346C208.705 66.0056 208.663 65.9571 208.598 65.8919C208.566 65.8596 208.529 65.8235 208.481 65.781C208.419 65.7264 208.312 65.6329 208.129 65.5209C208.024 65.46 207.955 65.4136 207.713 65.3215C207.392 65.2034 206.684 65.0349 205.889 65.4261C205.044 65.9005 204.92 66.3372 204.768 66.6591C204.645 66.9858 204.626 67.2065 204.615 67.3717C204.607 67.5701 204.612 67.561 204.615 67.6355C204.618 67.693 204.622 67.7421 204.627 67.7857C204.638 67.8727 204.65 67.9386 204.661 67.995C204.776 68.4752 204.83 68.4956 204.87 68.5953C204.913 68.6802 204.925 68.6998 204.938 68.7229C204.963 68.7686 204.985 68.8058 205.008 68.8426C205.047 68.9071 205.07 68.9447 205.104 68.9982C205.161 69.0883 205.219 69.1779 205.268 69.255C205.374 69.4185 205.477 69.5773 205.577 69.731C205.78 70.0442 205.978 70.3528 206.172 70.6593C206.561 71.2772 206.934 71.8886 207.274 72.4942C207.609 73.0884 207.936 73.7304 208.084 74.1554C208.118 74.2488 208.136 74.3366 208.127 74.2865C208.126 74.2625 208.11 74.1839 208.13 73.9993C208.142 73.8908 208.169 73.7403 208.242 73.5561C208.316 73.3648 208.472 73.0939 208.698 72.8786C208.92 72.6611 209.204 72.5036 209.447 72.4263C209.653 72.3597 209.825 72.341 209.955 72.3376C210.182 72.335 210.267 72.3652 210.301 72.3722C210.364 72.3915 210.291 72.3722 210.194 72.3248C210.188 72.3234 210.106 72.2787 210.01 72.2128C208.933 71.4404 207.561 69.972 206.285 68.6625C205.629 67.9867 204.971 67.3015 204.229 66.6026C203.844 66.2472 203.474 65.8972 202.897 65.4917C202.725 65.3755 202.59 65.2846 202.317 65.1471C202.188 65.0845 202.06 65.0241 201.829 64.9511C201.72 64.9174 201.599 64.8867 201.462 64.8636C201.313 64.8382 201.096 64.8173 200.869 64.8324C200.461 64.833 199.673 65.1077 199.263 65.5771C198.869 65.9828 198.7 66.4862 198.648 66.698C198.518 67.2752 198.557 67.4807 198.569 67.7672C198.609 68.2778 198.657 68.755 198.695 69.2176C198.844 70.7359 198.816 72.3487 198.509 72.8847C198.497 72.9128 198.486 72.9146 198.542 72.852C198.598 72.7971 198.742 72.6345 199.116 72.5275C199.424 72.4344 199.835 72.4906 200.034 72.5893C200.243 72.6855 200.302 72.7676 200.315 72.7923C200.36 72.8817 200.183 72.707 200.071 72.5063C199.38 71.28 198.771 69.4833 198.175 67.8005C197.874 66.9442 197.575 66.0724 197.229 65.1688C197.053 64.7171 196.874 64.2582 196.603 63.7218C196.523 63.5679 196.459 63.4493 196.342 63.2612C196.227 63.0901 196.11 62.8858 195.775 62.5772C195.54 62.3959 195.365 62.1714 194.614 62.022C193.892 61.8815 193.076 62.3054 192.802 62.6199C192.273 63.2001 192.274 63.4321 192.164 63.6987C191.955 64.3573 191.79 64.9419 191.606 65.516C191.238 66.6767 190.811 67.7682 190.268 68.6269C190.189 68.7567 190.094 68.8669 190.102 68.8586C190.116 68.8541 190.137 68.8057 190.38 68.7064C190.502 68.6613 190.706 68.6005 190.999 68.6209C191.291 68.6363 191.637 68.7784 191.838 68.9434C191.847 68.9507 191.856 68.9575 191.863 68.9636C191.976 69.0745 191.852 68.9719 191.775 68.8602C191.686 68.7399 191.589 68.5828 191.502 68.4079C190.983 67.3457 190.588 66.0081 190.304 64.6886C190.274 64.5382 190.223 64.3669 190.132 64.1827C190.04 63.9927 189.861 63.7377 189.634 63.5545C189.405 63.3638 189.126 63.2344 188.879 63.1742C188.663 63.1205 188.471 63.1106 188.308 63.1174C187.75 63.1592 187.547 63.2906 187.369 63.3629C187.018 63.5309 186.807 63.6785 186.607 63.8142C183.645 66.0884 181.379 68.2642 178.732 70.3443C178.514 70.5235 178.235 70.7142 178.216 70.7195C178.222 70.7179 178.243 70.706 178.323 70.6841C178.413 70.6677 178.553 70.6056 178.937 70.6746C179.326 70.7251 179.821 71.1497 179.926 71.4088C180.061 71.6764 180.052 71.7757 180.061 71.8396C180.055 72.0176 180.037 71.7708 180.053 71.6063C180.08 71.2255 180.149 70.7594 180.238 70.3029C180.274 70.1224 180.312 69.9446 180.355 69.7699C180.588 68.8185 180.822 67.8724 181.061 66.9238C181.345 65.7981 181.634 64.6745 181.935 63.5554C182.086 62.9956 182.237 62.444 182.397 61.8962C182.476 61.6234 182.557 61.3537 182.639 61.0967C182.678 60.9743 182.723 60.8407 182.761 60.7372C182.78 60.6824 182.8 60.6328 182.81 60.6094C182.815 60.5976 182.82 60.5891 182.805 60.6181C182.793 60.6391 182.794 60.643 182.741 60.7227C182.713 60.7618 182.676 60.814 182.604 60.8893C182.534 60.9373 182.298 61.3 181.553 61.333Z" fill="#07FF13"/>
<path d="M108.639 119.564C108.72 119.073 108.604 118.569 108.314 118.164C108.024 117.758 107.585 117.485 107.093 117.403C106.602 117.321 106.098 117.438 105.692 117.728C105.287 118.018 105.013 118.457 104.932 118.948C104.774 119.9 104.606 120.851 104.429 121.798C103.556 126.41 102.491 131.012 100.964 135.352C100.845 135.685 100.716 136.019 100.584 136.343C100.272 137.102 99.9017 137.821 99.5056 138.487C99.4226 138.627 99.3374 138.764 99.2479 138.902C99.2025 138.972 99.158 139.04 99.1041 139.121C99.0754 139.165 99.0508 139.201 99.0015 139.28C98.9745 139.327 98.952 139.353 98.8673 139.524C98.8425 139.577 98.8008 139.663 98.7535 139.818C98.7442 139.859 98.6568 140.091 98.6697 140.476C98.6739 140.576 98.6859 140.692 98.7153 140.825C98.7486 140.958 98.7753 141.094 98.9236 141.367C99.1862 141.879 99.832 142.27 100.255 142.331C100.471 142.375 100.657 142.37 100.707 142.368C100.787 142.365 100.857 142.358 100.918 142.35C101.041 142.332 101.133 142.309 101.209 142.287C101.36 142.241 101.441 142.202 101.477 142.186C101.566 142.145 101.622 142.113 101.667 142.087C103.553 140.977 104.568 139.315 105.405 138.066C105.524 137.887 105.639 137.719 105.727 137.604C105.77 137.548 105.807 137.505 105.811 137.502C105.805 137.501 105.81 137.543 105.542 137.701C105.604 137.655 105.724 137.667 105.352 137.731C105.207 137.748 104.591 137.789 104.023 137.264C103.51 136.746 103.525 136.363 103.498 136.242C103.485 135.979 103.501 136.091 103.473 136.17C103.447 136.268 103.404 136.405 103.353 136.546C103.139 137.14 102.818 137.83 102.49 138.509C101.818 139.941 101.098 141.088 100.349 143.043C100.291 143.237 100.222 143.405 100.179 143.843C100.173 144.063 100.124 144.279 100.306 144.845C100.395 145.111 100.643 145.567 101.061 145.873C101.494 146.203 101.982 146.303 102.281 146.316C102.914 146.328 103.111 146.204 103.294 146.146C103.485 146.069 103.573 146.02 103.676 145.963C104.027 145.76 104.192 145.623 104.371 145.485C104.709 145.217 104.974 144.98 105.235 144.748C105.494 144.518 105.739 144.296 105.969 144.096C106.187 143.903 106.454 143.689 106.494 143.669C106.494 143.67 106.487 143.674 106.47 143.684C106.424 143.703 106.368 143.765 106.022 143.834C105.924 143.851 105.805 143.863 105.666 143.859C105.519 143.856 105.312 143.829 105.114 143.762C104.696 143.637 104.28 143.277 104.112 143.01C103.773 142.459 103.837 142.291 103.812 142.207C103.807 142.122 103.811 142.124 103.808 142.139C103.802 142.233 103.739 142.551 103.664 142.852C103.587 143.164 103.496 143.499 103.4 143.884C103.353 144.08 103.305 144.279 103.257 144.545C103.233 144.686 103.208 144.83 103.194 145.067C103.189 145.195 103.181 145.331 103.211 145.588C103.287 145.817 103.161 146.323 104.097 147.156C104.647 147.6 105.475 147.772 105.996 147.718C107.53 147.498 107.856 147.011 108.385 146.681C108.855 146.327 109.236 145.987 109.6 145.659C110.316 145.01 110.977 144.367 111.533 143.938L108.044 142.611C108.058 142.686 108.072 142.768 108.084 142.853C108.192 143.612 108.214 144.565 108.26 145.601C108.297 146.182 108.282 146.698 108.485 147.627L108.805 148.346C108.855 148.418 108.909 148.489 108.968 148.558C109.581 149.281 110.408 149.47 110.826 149.506C111.278 149.547 111.556 149.506 111.77 149.489C112.252 149.443 112.714 149.192 113.054 148.818C113.395 148.443 113.586 147.976 113.586 147.493C113.586 147.009 113.395 146.542 113.054 146.167C112.714 145.793 112.252 145.543 111.77 145.497C111.563 145.479 111.418 145.441 111.453 145.419C111.472 145.411 111.547 145.408 111.691 145.462C111.832 145.513 112.048 145.647 112.201 145.829C112.232 145.866 112.261 145.902 112.287 145.939L112.606 146.659C112.583 146.542 112.557 145.978 112.559 145.49C112.552 144.525 112.586 143.465 112.419 142.236C112.399 142.093 112.375 141.947 112.347 141.798L111.681 138.29L108.858 140.471C107.959 141.177 107.308 141.844 106.658 142.437C106.34 142.73 106.028 143.007 105.763 143.209C105.632 143.31 105.51 143.391 105.446 143.427C105.393 143.469 105.358 143.427 105.7 143.389C105.915 143.359 106.424 143.456 106.729 143.709C107.157 144.03 107.355 144.468 107.409 144.622C107.483 144.822 107.503 144.97 107.513 145.04C107.532 145.208 107.524 145.258 107.524 145.295C107.519 145.355 107.52 145.325 107.527 145.286C107.541 145.201 107.572 145.058 107.609 144.907C107.683 144.599 107.776 144.251 107.867 143.871C107.956 143.48 108.056 143.104 108.112 142.489C108.124 142.33 108.135 142.155 108.117 141.888C108.079 141.634 108.112 141.276 107.676 140.579C107.459 140.238 106.969 139.819 106.468 139.667C106.231 139.587 105.975 139.552 105.785 139.548C105.605 139.543 105.442 139.559 105.297 139.584C105.024 139.633 104.862 139.693 104.702 139.759C104.572 139.813 104.458 139.871 104.353 139.93C104.282 139.971 104.218 140.01 104.158 140.049C103.225 140.706 102.873 141.124 102.359 141.583C102.124 141.802 101.891 142.015 101.706 142.168C101.622 142.24 101.519 142.309 101.582 142.272C101.606 142.26 101.631 142.244 101.736 142.201C101.844 142.173 101.958 142.075 102.505 142.084C102.763 142.095 103.209 142.184 103.608 142.487C103.994 142.771 104.217 143.187 104.293 143.415C104.448 143.902 104.398 144.039 104.399 144.165C104.373 144.404 104.363 144.356 104.376 144.326C104.729 143.322 105.574 141.707 106.227 140.272C106.568 139.523 106.906 138.781 107.216 137.873C107.291 137.647 107.365 137.41 107.434 137.113C107.493 136.817 107.587 136.521 107.542 135.87C107.498 135.556 107.46 134.967 106.803 134.313C106.09 133.648 105.252 133.666 104.927 133.704C104.155 133.82 103.941 133.993 103.622 134.149C103.154 134.416 102.995 134.618 102.836 134.782C102.687 134.948 102.585 135.083 102.492 135.209C102.311 135.459 102.176 135.67 102.047 135.871C101.226 137.196 100.483 138.213 99.68 138.689C99.7129 138.67 99.7575 138.644 99.8379 138.607C99.8702 138.593 99.9428 138.557 100.089 138.513C100.161 138.492 100.25 138.469 100.371 138.452C100.431 138.443 100.5 138.437 100.578 138.434C100.628 138.432 100.812 138.427 101.026 138.471C101.446 138.531 102.089 138.921 102.35 139.43C102.498 139.702 102.524 139.837 102.557 139.969C102.586 140.1 102.598 140.215 102.602 140.314C102.615 140.694 102.53 140.915 102.522 140.954C102.477 141.099 102.441 141.172 102.421 141.214C102.356 141.346 102.359 141.329 102.356 141.335C102.358 141.331 102.382 141.293 102.406 141.256C102.455 141.178 102.512 141.089 102.567 140.998C102.679 140.818 102.791 140.63 102.896 140.443C103.4 139.549 103.783 138.624 104.118 137.697C104.247 137.337 104.376 136.972 104.504 136.613C106.14 131.956 107.222 127.236 108.122 122.49C108.305 121.516 108.477 120.541 108.639 119.564Z" fill="#07FF13"/>
<path d="M302.355 135.273C303.014 135.273 303.646 135.011 304.113 134.544C304.579 134.078 304.841 133.446 304.841 132.786C304.841 132.127 304.579 131.494 304.113 131.028C303.646 130.562 303.014 130.3 302.355 130.3C301.528 130.266 300.657 130.845 300.365 131.287C300.2 131.502 300.093 131.727 300.049 131.833C300.015 131.914 299.989 131.986 299.968 132.051C299.888 132.312 299.871 132.472 299.858 132.6C299.841 132.8 299.846 132.866 299.847 132.96C299.853 133.117 299.861 133.184 299.87 133.269C299.886 133.404 299.903 133.51 299.919 133.607C299.951 133.794 299.982 133.955 300.015 134.113C300.079 134.423 300.146 134.717 300.212 135C300.348 135.578 300.486 136.128 300.628 136.685C301.287 139.253 301.987 141.763 302.7 144.28C302.777 144.55 302.851 144.812 302.928 145.085C303.794 147.903 304.406 150.633 306.588 153.675C306.805 153.948 307.051 154.228 307.35 154.507C307.622 154.77 308.074 155.097 308.254 155.211C308.281 155.229 308.307 155.247 308.34 155.268C308.363 155.282 308.399 155.306 308.474 155.349C308.497 155.362 308.51 155.37 308.56 155.396C308.612 155.422 308.67 155.455 308.827 155.517C308.91 155.548 309.013 155.589 309.229 155.636C309.458 155.657 309.77 155.821 310.682 155.517C311.124 155.361 311.74 154.911 312.042 154.289C312.354 153.673 312.345 153.104 312.295 152.76C312.171 152.063 311.994 151.886 311.903 151.72C311.786 151.546 311.787 151.558 311.766 151.529C311.748 151.507 311.732 151.487 311.717 151.47C311.497 151.22 311.471 151.22 311.421 151.171C311.251 151.029 311.266 151.046 311.213 151.004C311.141 150.95 311.082 150.906 311.017 150.858C310.901 150.772 310.782 150.686 310.669 150.604C310.439 150.438 310.213 150.277 309.986 150.117C309.531 149.796 309.078 149.481 308.624 149.17C307.717 148.547 306.801 147.934 305.881 147.331C305.426 147.032 304.968 146.735 304.509 146.44C304.298 146.328 304.191 146.179 303.427 146.001C303.171 145.954 302.832 145.923 302.411 146.002C301.938 146.074 301.246 146.434 300.882 146.892C300.533 147.303 300.384 147.718 300.311 148.021C300.256 148.256 300.241 148.443 300.236 148.6C300.237 149.145 300.302 149.294 300.34 149.48C300.378 149.634 300.418 149.759 300.45 149.856C300.587 150.254 300.698 150.502 300.808 150.757C301.023 151.247 301.234 151.693 301.367 152.026C301.403 152.115 301.433 152.206 301.425 152.183C301.422 152.16 301.399 152.147 301.371 151.861C301.366 151.798 301.359 151.663 301.372 151.502C301.387 151.357 301.408 151.075 301.595 150.665C301.732 150.311 302.277 149.627 302.935 149.385C303.522 149.152 303.953 149.181 304.258 149.221C303.406 149.109 302.342 148.364 300.761 147.114C300.311 146.839 300.121 146.455 298.642 146.067C298.35 146.015 298.056 145.965 297.557 145.997C297.314 146.016 296.969 146.067 296.587 146.22C296.164 146.388 295.695 146.692 295.329 147.161C294.608 148.12 294.669 148.978 294.688 149.382C294.729 149.848 294.813 150.122 294.889 150.372C295.204 151.302 295.512 151.79 295.813 152.327C296.391 153.322 297.085 154.316 297.409 154.899C297.426 154.929 297.434 154.952 297.408 154.897C297.391 154.855 297.372 154.824 297.323 154.653C297.298 154.56 297.267 154.435 297.249 154.241C297.233 154.009 297.195 153.522 297.504 152.866C297.469 152.953 297.445 152.842 297.813 152.587C297.989 152.47 298.274 152.368 298.504 152.35C298.735 152.328 298.891 152.362 298.962 152.381C299.101 152.424 298.984 152.388 298.844 152.278C298.7 152.17 298.509 152.003 298.313 151.808C297.917 151.416 297.496 150.923 297.068 150.389C296.853 150.121 296.639 149.845 296.402 149.543C296.277 149.385 296.159 149.234 296.002 149.046C295.924 148.953 295.833 148.846 295.706 148.711C295.64 148.642 295.539 148.538 295.404 148.422C295.315 148.346 295.183 148.236 294.971 148.106C294.852 148.042 294.779 147.973 294.359 147.826C293.989 147.708 293.322 147.563 292.498 147.859C292.416 147.889 292.334 147.922 292.252 147.958C291.45 148.247 290.332 149.315 290.078 150.407C289.793 151.467 289.941 152.177 290.051 152.726C290.311 153.807 290.667 154.479 290.994 155.132C291.325 155.772 291.659 156.342 291.947 156.855C292.089 157.109 292.222 157.353 292.311 157.536C292.354 157.624 292.387 157.702 292.391 157.713C292.401 157.704 292.344 157.729 292.319 157.203L292.898 155.483C293.053 155.284 293.18 155.183 293.264 155.119C293.332 155.069 293.376 155.044 293.403 155.029C293.517 154.975 293.341 155.057 293.135 155.104C292.917 155.16 292.648 155.213 292.29 155.283C292.251 155.291 292.214 155.298 292.176 155.306C291.731 155.394 291.084 155.554 290.618 155.719C289.913 155.955 289.331 156.461 289 157.125C288.668 157.79 288.614 158.559 288.85 159.264C289.085 159.968 289.591 160.55 290.256 160.882C290.92 161.213 291.69 161.267 292.394 161.032C292.594 160.964 292.669 160.942 292.815 160.904C292.953 160.868 293.122 160.83 293.3 160.794C293.329 160.788 293.357 160.782 293.387 160.776C294.024 160.625 294.758 160.616 296.1 159.948C296.252 159.864 296.417 159.764 296.601 159.628C296.827 159.459 297.087 159.237 297.35 158.897L297.933 158.136L297.929 157.177C297.898 156.338 297.747 156.07 297.648 155.759C297.546 155.485 297.446 155.27 297.354 155.081C297.169 154.703 296.998 154.398 296.835 154.107C296.511 153.533 296.212 153.022 295.968 152.553C295.727 152.1 295.535 151.628 295.51 151.492C295.485 151.435 295.565 151.5 295.451 151.957C295.391 152.177 295.232 152.482 295.026 152.695C294.819 152.914 294.611 153.026 294.495 153.076C294.471 153.087 294.448 153.095 294.428 153.103C293.621 153.393 292.976 153.249 292.631 153.139C292.239 153.001 292.183 152.943 292.081 152.888C291.903 152.779 291.814 152.702 291.764 152.66C291.686 152.592 291.663 152.566 291.659 152.561C291.651 152.552 291.689 152.593 291.728 152.639C291.811 152.737 291.915 152.867 292.029 153.01C292.252 153.288 292.491 153.59 292.742 153.896C293.249 154.513 293.79 155.145 294.454 155.785C295.16 156.41 295.797 157.134 297.448 157.674C298.247 157.942 299.728 157.919 300.729 157.235C301.725 156.583 302.127 155.841 302.423 155.252C302.748 154.564 302.714 154.028 302.694 153.749C302.672 153.518 302.633 153.352 302.596 153.213C302.52 152.95 302.476 152.855 302.42 152.721C302.33 152.517 302.251 152.373 302.187 152.258C301.458 151.034 300.915 150.354 300.426 149.559C300.196 149.2 299.979 148.777 299.96 148.721C299.956 148.723 299.975 148.747 299.993 148.949C299.991 149.109 300.078 149.672 299.517 150.429C299.234 150.793 298.866 151.027 298.571 151.143C298.302 151.249 298.097 151.274 297.978 151.283C297.737 151.297 297.688 151.272 297.675 151.272C297.272 151.178 297.309 151.136 297.348 151.169C297.401 151.199 297.516 151.274 297.643 151.367C298.898 152.27 300.722 153.968 303.494 154.397C303.842 154.444 304.307 154.47 304.926 154.224C305.618 153.969 306.188 153.254 306.339 152.871C306.44 152.654 306.497 152.459 306.533 152.291C306.569 152.116 306.576 152.038 306.586 151.93C306.603 151.736 306.594 151.554 306.587 151.461C306.547 151.034 306.486 150.873 306.445 150.717C306.355 150.417 306.281 150.237 306.21 150.061C305.972 149.487 305.757 149.052 305.577 148.647C305.49 148.455 305.407 148.254 305.384 148.187C305.379 148.174 305.38 148.173 305.39 148.214C305.397 148.276 305.438 148.307 305.44 148.731C305.436 148.855 305.424 149.013 305.375 149.221C305.311 149.49 305.174 149.877 304.844 150.267C304.498 150.702 303.835 151.046 303.393 151.113C302.998 151.187 302.689 151.156 302.468 151.116C301.817 150.961 301.814 150.871 301.719 150.831C302.166 151.112 302.612 151.395 303.055 151.681C303.951 152.257 304.842 152.843 305.722 153.436C306.162 153.733 306.601 154.032 307.036 154.334C307.252 154.484 307.467 154.634 307.679 154.784C307.782 154.857 307.891 154.934 307.986 155.003C308.038 155.041 308.085 155.076 308.119 155.1C308.123 155.102 308.191 155.159 308.072 155.06C308.029 155.018 308.009 155.022 307.792 154.776C307.777 154.759 307.761 154.739 307.744 154.717C307.723 154.688 307.724 154.701 307.607 154.528C307.517 154.362 307.34 154.185 307.215 153.489C307.166 153.145 307.157 152.576 307.469 151.96C307.771 151.339 308.386 150.889 308.828 150.732C309.74 150.428 310.052 150.592 310.28 150.613C310.496 150.66 310.598 150.701 310.68 150.731C310.835 150.793 310.891 150.825 310.94 150.849C310.987 150.874 310.998 150.88 311.018 150.892C311.083 150.93 311.099 150.94 311.106 150.945C311.116 150.952 311.114 150.95 311.107 150.946C310.874 150.793 310.918 150.821 310.832 150.748C310.764 150.688 310.679 150.598 310.585 150.483C309.432 148.998 308.447 146.24 307.712 143.718C307.634 143.448 307.56 143.189 307.484 142.921C306.778 140.431 306.083 137.937 305.446 135.454C305.309 134.918 305.177 134.391 305.054 133.865C304.994 133.609 304.934 133.346 304.885 133.107C304.86 132.988 304.837 132.871 304.823 132.784C304.816 132.742 304.811 132.703 304.811 132.708C304.812 132.715 304.814 132.722 304.817 132.804C304.818 132.859 304.822 132.897 304.809 133.061C304.798 133.167 304.784 133.31 304.708 133.557C304.688 133.619 304.664 133.688 304.631 133.765C304.589 133.867 304.485 134.086 304.323 134.297C304.036 134.732 303.172 135.307 302.355 135.273Z" fill="#07FF13"/>
<path d="M182.736 189.769C182.014 189.533 181.226 189.593 180.548 189.938C179.87 190.282 179.357 190.881 179.121 191.604C178.885 192.327 178.945 193.114 179.29 193.792C179.634 194.47 180.233 194.984 180.956 195.22C181.291 195.329 181.626 195.439 181.962 195.548C185.458 196.667 188.928 197.864 192.882 198.591C192.884 198.591 192.885 198.591 192.887 198.592C195.343 199.026 198.04 198.729 200.504 198.241C200.504 198.241 200.504 198.241 200.504 198.241C200.991 198.15 201.491 198.049 202.044 197.896C202.467 197.783 202.974 197.597 203.302 197.462C203.917 197.215 204.409 196.733 204.67 196.124C204.93 195.514 204.938 194.826 204.691 194.21C204.444 193.595 203.963 193.103 203.353 192.842C202.743 192.582 202.055 192.574 201.44 192.821C201.115 192.952 200.961 193.007 200.704 193.079C200.387 193.168 200 193.25 199.597 193.324C199.597 193.324 199.596 193.324 199.596 193.324C197.661 193.697 195.812 193.278 193.863 192.941C193.862 192.941 193.861 192.941 193.86 192.941C190.637 192.357 187.176 191.205 183.738 190.096C183.405 189.987 183.071 189.878 182.736 189.769Z" fill="#07FF13"/>
<path d="M163.357 214.199C163.731 213.658 163.874 212.99 163.755 212.343C163.637 211.696 163.266 211.122 162.724 210.749C162.183 210.375 161.515 210.232 160.868 210.35C160.221 210.469 159.648 210.84 159.274 211.381C156.836 214.928 154.385 218.482 152.156 222.319C151.691 223.123 151.239 223.942 150.806 224.783C150.795 224.805 150.784 224.827 150.773 224.849C146.978 233.349 145.138 241.45 142.464 249.592C142.446 249.65 142.427 249.708 142.409 249.766C139.801 258.693 143.073 267.262 147.491 274.248C147.503 274.268 147.516 274.287 147.529 274.306C148.975 276.464 150.942 278.248 153.16 279.52C153.189 279.537 153.219 279.554 153.249 279.571C158.858 282.257 163.481 280.152 166.683 280.713C166.734 280.72 166.784 280.726 166.834 280.733C170.158 281.277 173.94 280.274 176.335 279.683C176.382 279.673 176.431 279.663 176.48 279.653C181.575 278.636 186.881 278.131 192.174 277.923C192.206 277.922 192.238 277.92 192.271 277.92C195.713 277.791 199.425 279.708 203.394 281.63C203.431 281.648 203.468 281.667 203.506 281.685C206.252 283.02 209.302 284.894 212.961 285.778C213.002 285.788 213.044 285.798 213.085 285.808C215.852 286.474 218.435 286.937 220.915 287.624C220.953 287.634 220.991 287.644 221.029 287.654C225.375 288.794 229.67 288.746 233.742 288.46C233.774 288.458 233.805 288.455 233.836 288.453C241.952 287.38 248.371 284.485 255.165 281.566C255.184 281.557 255.203 281.549 255.222 281.54C261.266 278.187 264.774 273.991 268.523 269.267C268.524 269.266 268.526 269.264 268.527 269.263C270.444 266.185 269.976 264.138 269.988 262.097C269.872 260.086 269.577 258.21 269.226 256.362C268.515 252.679 267.558 249.138 266.514 245.65C266.498 245.597 266.481 245.544 266.464 245.492C263.866 239.059 260.395 235.14 257.696 230.417C257.683 230.396 257.67 230.374 257.657 230.352C255.462 226.311 252.48 221.696 249.354 217.965L249.637 218.366C249.631 218.356 249.624 218.345 249.618 218.335C249.589 218.287 249.56 218.24 249.531 218.192C247.434 214.774 244.872 211.87 243.121 209.208C243.12 209.207 243.12 209.207 243.119 209.206L242.92 208.926C242.484 208.386 241.939 207.872 241.064 207.443C240.228 207.012 238.786 206.765 237.578 207.205C236.83 207.515 236.216 208.14 235.859 208.903C235.502 209.668 235.431 210.51 235.674 211.281C235.916 212.052 236.456 212.701 237.187 213.124C237.917 213.545 238.779 213.706 239.569 213.532C238.962 213.775 238.186 213.639 237.9 213.503C237.581 213.366 237.504 213.29 237.456 213.239L237.257 212.959C237.258 212.961 237.259 212.962 237.259 212.963C239.536 216.407 241.839 219.021 243.559 221.855C243.582 221.893 243.606 221.931 243.629 221.969C243.634 221.977 243.639 221.986 243.644 221.994L243.927 222.395C246.971 226.077 249.317 229.498 251.813 233.864C251.828 233.889 251.843 233.913 251.858 233.937C254.832 238.809 258.675 243.572 260.322 247.516C260.33 247.538 260.337 247.56 260.344 247.58C261.428 250.917 262.442 254.275 263.18 257.603C263.544 259.263 263.841 260.923 263.963 262.486C264.023 263.263 264.035 264.02 263.974 264.65C263.93 265.275 263.717 265.794 263.736 265.728C263.737 265.728 263.737 265.728 263.737 265.728C260.693 269.793 256.546 274.173 252.761 276.213C252.752 276.218 252.744 276.222 252.735 276.226C246.449 279.001 239.503 281.857 233.374 282.635C233.354 282.637 233.333 282.639 233.313 282.64C229.534 282.922 225.812 282.93 222.494 282.076C222.465 282.068 222.436 282.061 222.407 282.053C219.653 281.316 216.889 280.855 214.378 280.292C214.34 280.283 214.302 280.275 214.264 280.266C211.571 279.682 208.924 278.281 205.85 276.796C205.808 276.776 205.766 276.756 205.724 276.736C201.862 274.976 197.555 272.473 192.117 272.58C192.067 272.581 192.017 272.583 191.967 272.585C186.438 272.812 180.947 273.323 175.411 274.431C175.356 274.442 175.302 274.453 175.25 274.464C172.012 275.254 170.007 275.81 167.501 275.458C167.465 275.454 167.428 275.449 167.391 275.444C162.276 275.008 158.045 276.285 155.868 274.958C155.847 274.946 155.826 274.934 155.806 274.922C154.251 274.03 152.925 272.798 151.948 271.34C151.938 271.325 151.928 271.309 151.917 271.294C148.062 265.324 145.503 257.677 147.471 251.353C147.49 251.294 147.508 251.235 147.527 251.176C150.16 243.042 151.974 234.261 155.187 227.112C155.197 227.092 155.207 227.073 155.218 227.053C155.606 226.299 156.02 225.547 156.452 224.799C158.528 221.222 160.938 217.714 163.357 214.199Z" fill="#07FF13"/>
<path d="M217.598 99.9219C217.465 100.189 217.443 100.499 217.538 100.782C217.633 101.066 217.836 101.3 218.104 101.433C218.371 101.567 218.681 101.588 218.964 101.493C219.248 101.398 219.482 101.195 219.615 100.927C219.678 100.802 219.738 100.682 219.798 100.564C220.088 99.9979 220.421 99.4287 220.764 98.8536C220.764 98.8535 220.764 98.8535 220.764 98.8534C221.701 97.2937 222.682 95.7286 223.655 94.1651C223.729 94.0463 223.803 93.9273 223.877 93.8083C224.035 93.5547 224.086 93.2486 224.018 92.9574C223.951 92.6663 223.77 92.414 223.516 92.2559C223.263 92.0979 222.957 92.047 222.666 92.1147C222.374 92.1823 222.122 92.3628 221.964 92.6165C221.89 92.7355 221.816 92.8544 221.742 92.9733C220.767 94.5403 219.79 96.098 218.829 97.6973C218.829 97.6974 218.829 97.6974 218.829 97.6975C218.476 98.2899 218.123 98.8926 217.793 99.5348C217.726 99.6661 217.661 99.7966 217.598 99.9219Z" fill="#07FF13"/>
<path d="M226.841 107.144C226.71 107.439 226.702 107.774 226.818 108.075C226.934 108.376 227.165 108.618 227.46 108.749C227.755 108.88 228.09 108.888 228.391 108.772C228.692 108.656 228.935 108.425 229.066 108.13C229.114 108.021 229.161 107.913 229.209 107.805C230.072 105.858 230.935 103.91 231.798 101.963C231.846 101.855 231.894 101.747 231.942 101.639C232.072 101.344 232.08 101.009 231.964 100.708C231.848 100.407 231.617 100.164 231.322 100.033C231.027 99.9025 230.692 99.8943 230.391 100.011C230.09 100.127 229.847 100.358 229.717 100.653C229.669 100.761 229.621 100.869 229.573 100.977C228.71 102.925 227.847 104.872 226.984 106.819C226.936 106.927 226.889 107.036 226.841 107.144Z" fill="#07FF13"/>
<path d="M168.021 99.7034C168.021 99.3905 167.896 99.0905 167.675 98.8692C167.454 98.648 167.154 98.5237 166.841 98.5237C166.528 98.5237 166.228 98.648 166.007 98.8692C165.786 99.0905 165.661 99.3905 165.661 99.7034C165.662 99.7382 165.66 99.7925 165.668 99.9019C165.673 99.9582 165.679 100.028 165.708 100.143C165.741 100.255 165.776 100.434 166 100.693C166.219 100.965 166.708 101.122 166.947 101.096C167.207 101.084 167.321 101.031 167.421 100.993C167.601 100.914 167.668 100.861 167.739 100.813C168.202 100.45 168.33 100.256 168.559 100.008C168.571 99.9939 168.584 99.9795 168.597 99.9649C170.013 98.2922 171.261 96.639 172.56 94.9744C172.642 94.8683 172.724 94.7626 172.806 94.6565C172.998 94.4092 173.083 94.0959 173.044 93.7855C173.005 93.4751 172.844 93.193 172.597 93.0013C172.349 92.8096 172.036 92.724 171.726 92.7633C171.415 92.8025 171.133 92.9635 170.942 93.2108C170.859 93.3169 170.777 93.4226 170.695 93.5286C169.408 95.1789 168.118 96.8803 166.816 98.4167C166.805 98.4294 166.795 98.4418 166.784 98.4539C166.624 98.6413 166.367 98.9005 166.366 98.8944C166.382 98.8854 166.394 98.8679 166.512 98.816C166.58 98.7912 166.663 98.7478 166.888 98.7373C167.094 98.7123 167.548 98.8575 167.745 99.1045C167.947 99.3378 167.969 99.4842 167.995 99.5639C168.015 99.6465 168.017 99.6831 168.019 99.7061C168.022 99.7487 168.02 99.7356 168.021 99.7034Z" fill="#07FF13"/>
<path d="M172.271 109.767C172.071 110.043 171.989 110.387 172.043 110.724C172.096 111.06 172.281 111.362 172.557 111.562C172.833 111.762 173.177 111.844 173.514 111.791C173.851 111.737 174.152 111.552 174.352 111.276C174.448 111.144 174.544 111.011 174.64 110.879C176.365 108.499 178.091 106.119 179.816 103.739C179.912 103.607 180.008 103.475 180.104 103.342C180.304 103.067 180.386 102.722 180.333 102.386C180.279 102.049 180.094 101.748 179.818 101.548C179.542 101.348 179.198 101.265 178.861 101.319C178.525 101.373 178.223 101.558 178.023 101.834C177.927 101.966 177.831 102.098 177.735 102.23C176.01 104.61 174.284 106.991 172.559 109.371C172.463 109.503 172.367 109.635 172.271 109.767Z" fill="#07FF13"/>
<path d="M402 0C401.331 0.199496 400.84 0.7763 400.294 1.2029C398.97 2.33936 397.679 3.51399 396.385 4.69128C396.379 4.69613 396.374 4.70098 396.369 4.70583C388.319 12.078 380.353 19.5477 372.367 26.9909C371.852 27.4715 371.338 27.9512 370.823 28.432C371.338 27.9512 371.852 27.4715 372.367 26.9909C380.353 19.5477 388.319 12.078 396.369 4.70583C396.374 4.70098 396.379 4.69613 396.385 4.69128C397.679 3.51399 398.97 2.33936 400.294 1.2029C400.84 0.7763 401.331 0.199496 402 0Z" fill="#07FF13"/>
<path d="M402 0.710815C401.563 1.1136 401.126 1.51639 400.689 1.91918C392.824 9.16934 384.959 16.4195 377.094 23.6697C376.657 24.0725 376.22 24.4753 375.783 24.878C376.22 24.4753 376.657 24.0725 377.094 23.6697C384.959 16.4195 392.824 9.16934 400.689 1.91918C401.126 1.51639 401.563 1.1136 402 0.710815Z" fill="#07FF13"/>
<path d="M0.237688 29.8538C0.192128 29.831 0.146116 29.8078 0.100112 29.7857C0.0712089 29.7694 -0.0527232 29.7196 0.0295011 29.7773C0.113326 29.8417 0.196414 29.8959 0.279512 29.9518C0.450448 30.0656 0.619231 30.1746 0.791779 30.2856C1.13348 30.5051 1.48072 30.7252 1.82345 30.9417C3.23813 31.8345 4.65064 32.7151 6.07635 33.6033C6.1964 33.6781 6.31873 33.7542 6.44329 33.8318C17.3712 40.6251 28.3144 47.3859 39.2537 54.1551C39.9481 54.5846 40.6406 55.013 41.3351 55.4426C40.6406 55.013 39.9481 54.5846 39.2537 54.1551C28.3144 47.3859 17.3712 40.6251 6.44329 33.8318C6.31873 33.7542 6.1964 33.6781 6.07635 33.6033C4.65064 32.7151 3.23813 31.8345 1.82345 30.9417C1.48072 30.7252 1.13348 30.5051 0.791779 30.2856C0.619231 30.1746 0.450448 30.0656 0.279512 29.9518C0.196414 29.8959 0.113326 29.8417 0.0295011 29.7773C-0.0527232 29.7196 0.0712089 29.7694 0.100112 29.7857C0.146116 29.8078 0.192128 29.831 0.237688 29.8538Z" fill="#07FF13"/>
<path d="M323.441 54.0275C322.877 53.6271 322.177 53.467 321.495 53.5825C320.814 53.6981 320.206 54.0797 319.805 54.6435C319.405 55.2073 319.245 55.9071 319.36 56.5889C319.476 57.2707 319.857 57.8787 320.421 58.2791C321.268 58.8809 322.128 59.479 323.004 60.0653C327.964 63.3729 333.758 66.5621 340.466 66.8194C340.493 66.8205 340.521 66.8213 340.549 66.822C345.241 66.6456 347.333 63.4014 348.841 61.0249C348.851 61.0087 348.86 60.9924 348.869 60.976C351.205 56.5852 352.248 52.431 352.881 47.7567C352.882 47.7465 352.884 47.7364 352.885 47.7262C353.022 46.3535 353.138 44.8657 352.737 43.0753C352.382 41.2653 351.002 39.3811 349.743 38.431C349.738 38.4269 349.733 38.4228 349.728 38.4187C347.171 36.4405 344.737 35.5197 342.24 34.5917C342.237 34.5907 342.234 34.5897 342.231 34.5887C341.424 34.3004 340.607 34.0475 339.894 33.8186C338.979 33.5261 338.24 33.2478 337.434 32.865C336.725 32.5269 335.909 32.4743 335.163 32.7272C334.416 32.9801 333.8 33.5163 333.45 34.2196C333.1 34.923 333.043 35.7375 333.291 36.4856C333.54 37.2338 334.073 37.8529 334.771 38.2152C335.793 38.7511 336.963 39.2222 337.991 39.5637C338.795 39.8347 339.501 40.0594 340.198 40.3085C340.201 40.3094 340.203 40.3103 340.206 40.3112C342.335 41.0715 344.554 42.0537 345.902 43.1316C345.905 43.1337 345.907 43.1358 345.91 43.1378C346.563 43.6945 346.693 43.899 346.865 44.4858C347.024 45.078 347.04 46.0715 346.939 47.1191C346.938 47.1269 346.938 47.1347 346.937 47.1425C346.535 50.852 345.466 55.0693 343.873 58.1932C343.867 58.2042 343.862 58.2152 343.856 58.2262C342.899 60.1458 341.373 61.7522 340.674 61.6086C340.67 61.6085 340.665 61.6084 340.66 61.6082C335.559 61.4368 330.58 58.8703 325.904 55.7307C325.08 55.1799 324.261 54.6098 323.441 54.0275Z" fill="#07FF13"/>
<path d="M320.991 78.648C320.925 77.9576 320.587 77.3219 320.052 76.8808C319.516 76.4396 318.828 76.2292 318.137 76.2957C317.447 76.3622 316.811 76.7003 316.37 77.2356C315.929 77.7708 315.718 78.4594 315.785 79.1498C315.994 80.7901 316.49 81.7194 316.953 82.7097C320.074 88.5496 324.186 92.8764 328.377 97.2463C328.39 97.2593 328.402 97.2723 328.415 97.2853C329.669 98.6676 332.075 100.294 334.324 100.405C334.345 100.408 334.366 100.41 334.387 100.412C336.841 100.549 338.082 99.5937 339.239 98.8884C340.368 98.1212 341.292 97.2862 342.154 96.4246C343.868 94.6943 345.3 92.8506 346.612 90.9355C346.616 90.9287 346.621 90.9219 346.626 90.9151C347.602 89.5821 348.033 87.4566 347.628 85.835C347.264 84.1969 346.491 83.0084 345.77 82.0227C345.762 82.0117 345.754 82.0008 345.746 81.9898C344.356 80.1328 342.375 79.2947 340.935 78.4376C340.93 78.4342 340.924 78.4309 340.919 78.4276C339.974 77.8659 339.075 77.3075 338.192 76.7168C337.436 76.2122 336.69 75.6877 335.943 75.1515C335.518 74.8466 334.98 74.7229 334.453 74.7985C333.925 74.8747 333.452 75.1439 333.131 75.5562C332.81 75.9684 332.665 76.4927 332.72 77.0228C332.776 77.5523 333.028 78.0444 333.428 78.3814C334.163 78.9999 334.916 79.6051 335.684 80.1981C336.58 80.8915 337.502 81.5633 338.382 82.2202C338.388 82.2241 338.393 82.2279 338.398 82.2318C339.785 83.2562 340.68 84.3799 341.331 85.2831C341.335 85.2886 341.339 85.2942 341.343 85.2998C341.843 85.9672 342.161 86.5964 342.236 86.9866C342.297 87.3842 342.286 87.4475 342.068 87.8086C342.064 87.8147 342.06 87.8208 342.056 87.8268C340.887 89.5359 339.624 91.1734 338.256 92.5831C337.576 93.2814 336.863 93.9242 336.178 94.4005C335.839 94.6369 335.507 94.8266 335.247 94.9358C334.993 95.0507 334.819 95.044 334.949 95.0506C334.934 95.0491 334.919 95.0477 334.904 95.0462C334.241 94.9771 333.98 94.9132 333.535 94.695C333.109 94.4794 332.62 94.1031 332.148 93.6215C332.136 93.609 332.124 93.5965 332.111 93.5841C328.115 89.4621 324.084 85.0204 321.639 80.3856C321.291 79.707 320.998 78.8693 320.991 78.648Z" fill="#07FF13"/>
<path d="M102.032 74.5497C102.198 74.0498 102.159 73.5043 101.923 73.0333C101.687 72.5624 101.273 72.2044 100.773 72.0383C100.273 71.8722 99.728 71.9114 99.2571 72.1475C98.7861 72.3835 98.4282 72.797 98.262 73.2969C97.8421 74.5713 97.6327 75.7945 97.4611 76.9721C97.3761 77.5663 97.3042 78.1508 97.2366 78.7294C97.2349 78.7436 97.2332 78.7579 97.2316 78.7722C97.1253 80.1716 95.1058 82.01 92.9899 83.185C92.9716 83.1955 92.9533 83.2059 92.935 83.2163C85.3607 84.4763 74.2349 77.986 66.5599 72.2947C66.5582 72.2931 66.557 72.2917 66.5561 72.2907C66.5678 72.2704 66.6154 72.38 66.6193 72.0781C66.6372 71.797 66.7359 71.3066 66.8539 70.6876L66.6108 71.3965C66.6278 71.3649 66.6448 71.3334 66.6617 71.3019C68.6865 67.5179 71.7878 64.1479 75.384 62.2211L75.272 62.276C75.2809 62.2719 75.2898 62.2679 75.2985 62.2639C75.6694 62.0928 75.8872 62.0112 75.992 61.9736C76.1417 61.843 77.0079 61.9256 77.9982 62.2171C78.4737 62.3581 78.9933 62.3649 79.4662 62.1889C79.9389 62.0133 80.3233 61.6748 80.5406 61.2363C80.758 60.7977 80.7945 60.2868 80.648 59.8043C80.5017 59.3215 80.1815 58.9121 79.7813 58.6191C78.7456 57.9327 77.4054 57.0372 75.2652 57.2547C74.4372 57.3587 73.772 57.6364 73.2889 57.8545C73.2771 57.8599 73.2653 57.8653 73.2535 57.8707L73.1415 57.9256C68.3736 60.5079 64.8594 64.4891 62.4105 69.0298C62.3904 69.0674 62.3705 69.1052 62.3508 69.1431L62.1077 69.8519C61.9972 70.5389 61.8802 71.374 61.9929 72.4223C62.0768 73.4387 62.6441 74.892 63.7029 75.7147C63.7501 75.7537 63.7983 75.7918 63.8472 75.829C68.2492 79.1124 72.9743 81.7422 77.9323 83.9382C83.0467 85.7671 87.6491 88.9726 94.881 86.6438C94.9029 86.6314 94.9247 86.6189 94.9465 86.6065C97.3786 85.0825 100.415 83.3983 101.178 79.2317C101.179 79.2178 101.181 79.204 101.182 79.1902C101.248 78.6296 101.316 78.0763 101.394 77.5356C101.547 76.464 101.737 75.4372 102.032 74.5497Z" fill="#07FF13"/>
<path d="M119.821 49.3018C120.455 49.3458 121.08 49.1363 121.559 48.7194C122.038 48.3025 122.332 47.7124 122.376 47.0789C122.42 46.4453 122.21 45.8203 121.793 45.3412C121.377 44.8621 120.786 44.5682 120.153 44.5242C118.942 44.44 117.77 44.349 116.575 44.2437C108.757 43.4382 100.4 42.7178 94.7422 38.3457C94.7129 38.3233 94.6836 38.3008 94.6543 38.2783C91.0488 35.4004 92.2045 27.594 93.1746 21.2616C93.1764 21.2501 93.1782 21.2386 93.18 21.2273C93.4592 19.9575 93.6957 19.656 95.2241 19.0922L94.4633 19.2188C94.4865 19.2187 94.5098 19.2186 94.5329 19.2186C98.157 19.1981 101.623 20.0526 104.457 22.0375L104.34 21.9496C104.349 21.9564 104.357 21.9632 104.366 21.97C104.987 22.4587 105.726 22.7664 106.586 23.1411C107.714 23.6266 108.998 24.1617 110.067 24.8782C109.712 23.6407 109.523 22.2524 109.039 20.9385C108.678 19.9493 108.099 18.9834 107.288 18.33C107.277 18.3211 107.266 18.3122 107.255 18.3033L107.138 18.2155C103.467 15.5541 98.8404 14.426 94.5342 14.4451C94.5064 14.4451 94.4786 14.445 94.4508 14.445L93.69 14.5716C92.6447 14.9173 91.2964 15.5134 90.2541 16.6348C89.1966 17.7464 88.6472 19.2014 88.4524 20.4629C88.4485 20.4865 88.4448 20.5101 88.4412 20.5338C87.8714 27.0071 84.73 35.1269 91.7302 42.071C91.7654 42.0981 91.8007 42.1252 91.8362 42.1523C99.317 47.7182 108.133 48.1104 116.155 49.0142C117.383 49.1225 118.584 49.2158 119.821 49.3018Z" fill="#07FF13"/>
<path d="M196.513 155.545C197.047 155.545 197.558 155.333 197.936 154.956C198.313 154.578 198.525 154.067 198.525 153.533C198.525 153 198.313 152.488 197.936 152.111C197.558 151.733 197.047 151.521 196.513 151.521C196.444 151.524 196.322 151.512 196.031 151.551C195.883 151.574 195.682 151.605 195.38 151.741C195.089 151.868 194.657 152.183 194.413 152.62C194.08 153.213 194.11 153.676 194.127 153.935C194.153 154.208 194.203 154.368 194.244 154.502C194.245 154.506 194.246 154.509 194.248 154.513C194.439 155.047 194.593 155.224 194.812 155.517C194.925 155.657 195.036 155.794 195.246 155.996C195.365 156.1 195.466 156.222 195.837 156.428C196.038 156.517 196.33 156.708 197.018 156.654C197.355 156.621 197.753 156.458 198.016 156.244C198.287 156.027 198.427 155.819 198.529 155.639C198.68 155.356 198.714 155.186 198.745 155.055C198.829 154.597 198.797 154.452 198.792 154.263C198.78 154.088 198.761 153.944 198.739 153.804C198.692 153.525 198.631 153.27 198.543 153.005C198.346 152.487 198.155 151.868 197.248 151.229C197.191 151.193 197.134 151.158 197.075 151.126C195.957 150.542 194.958 150.767 194.266 151.058C193.561 151.39 192.93 151.809 192.459 152.835C192.439 152.882 192.421 152.93 192.404 152.978C192.272 153.353 192.209 153.731 192.242 154.182C192.262 154.41 192.3 154.657 192.432 154.984C192.576 155.293 192.78 155.8 193.581 156.21C193.978 156.404 194.489 156.463 194.879 156.393C195.261 156.33 195.534 156.191 195.721 156.074C196.094 155.83 196.242 155.631 196.364 155.476C196.597 155.158 196.681 154.944 196.759 154.745C196.84 154.528 196.888 154.342 196.925 154.159C196.996 153.688 196.936 153.193 196.709 152.765C196.482 152.338 196.112 152.014 195.668 151.862C195.224 151.71 194.734 151.739 194.292 151.938C193.851 152.137 193.5 152.492 193.267 152.907C193.219 152.975 193.174 153.029 193.144 153.048C193.122 153.061 193.093 153.056 193.178 152.924C193.228 152.859 193.292 152.749 193.565 152.567C193.702 152.481 193.919 152.365 194.243 152.311C194.575 152.251 195.026 152.302 195.368 152.47C196.062 152.829 196.197 153.228 196.298 153.428C196.386 153.645 196.402 153.775 196.414 153.886C196.431 154.102 196.405 154.241 196.353 154.394C196.346 154.413 196.338 154.433 196.33 154.452C196.134 154.843 196.067 154.792 195.981 154.84C195.905 154.85 195.66 154.973 195.158 154.717C195.133 154.703 195.108 154.687 195.084 154.671C194.721 154.385 194.862 154.358 194.9 154.43C194.929 154.463 194.959 154.518 194.976 154.554C194.984 154.571 194.99 154.586 194.991 154.572C194.998 154.543 194.972 154.559 195.024 154.259C195.046 154.169 195.067 154.042 195.199 153.795C195.288 153.638 195.413 153.448 195.665 153.247C195.908 153.048 196.283 152.895 196.595 152.865C197.233 152.816 197.477 152.988 197.634 153.055C197.918 153.213 197.944 153.266 197.993 153.3C198.065 153.361 198.056 153.337 198.057 153.313C198.055 153.276 198.011 153.105 198.072 153.264C198.073 153.265 198.073 153.267 198.074 153.268C198.089 153.319 198.116 153.394 198.135 153.579C198.144 153.752 198.18 154.123 197.892 154.641C197.68 155.021 197.302 155.293 197.069 155.393C196.827 155.502 196.69 155.518 196.606 155.533C196.443 155.553 196.453 155.543 196.513 155.545Z" fill="#07FF13"/>
</svg>
