<svg width="259" height="282" viewBox="0 0 259 282" fill="none" xmlns="http://www.w3.org/2000/svg">
<path d="M80.0665 138.744C80.5424 138.392 80.859 137.866 80.9469 137.281C81.0348 136.696 80.8868 136.1 80.5353 135.624C80.1838 135.149 79.6577 134.832 79.0727 134.744C78.4877 134.656 77.8917 134.804 77.4159 135.156C76.5663 135.783 75.6956 136.382 74.8056 136.951C72.5607 138.387 70.1919 139.627 67.7309 140.676C64.7619 141.946 61.6575 142.912 58.4597 143.73C56.0927 144.329 53.5143 144.728 50.8976 145.233C49.7977 145.454 48.7361 145.638 47.4431 146.046L44.685 146.948L46.2117 149.491C47.3594 151.367 48.6181 152.961 49.885 154.53C54.7779 160.516 60.0782 166.1 64.8536 171.615L64.8005 171.55C64.9707 171.764 65.1377 171.977 65.3007 172.188C65.4333 172.36 65.5774 172.518 65.7354 172.665C66.4942 173.377 67.4589 173.712 68.9142 174.225C69.1352 174.297 69.3507 174.365 69.5519 174.393C69.7539 174.42 69.9325 174.402 70.086 174.323C70.2395 174.243 70.3577 174.108 70.4521 173.928C70.5456 173.747 70.6152 173.532 70.684 173.31C71.1524 171.841 70.9315 170.303 70.3647 169.24C70.2437 169.01 70.1075 168.798 69.954 168.599C69.7653 168.354 69.5757 168.114 69.3846 167.877L69.3314 167.813C64.1502 161.916 58.5289 156.955 53.6156 151.38C52.3671 149.954 51.1214 148.468 50.1891 147.028L48.9577 150.472C49.7118 150.204 50.7814 149.968 51.799 149.757C54.3107 149.241 56.9126 148.815 59.6104 148.105C62.9193 147.221 66.26 146.158 69.4817 144.779C72.1547 143.64 74.7494 142.282 77.2079 140.71C78.1828 140.087 79.1365 139.431 80.0665 138.744Z" fill="#07FF13"/>
<path d="M83.5291 152.071C83.7102 151.534 83.6708 150.947 83.4194 150.44C83.168 149.932 82.7252 149.545 82.1885 149.364C81.6518 149.183 81.0652 149.222 80.5576 149.474C80.05 149.725 79.6631 150.168 79.4819 150.705C78.5752 153.401 77.5633 156.038 76.4456 158.659C75.4698 160.953 74.4281 163.237 73.3684 165.524C73.366 165.529 73.3636 165.534 73.3613 165.539C70.0394 172.462 65.5473 179.04 61.4862 185.759C61.4794 185.771 61.4725 185.782 61.4657 185.793C56.8437 193.37 51.9409 200.802 47.0487 208.309C47.0369 208.327 47.0253 208.345 47.0136 208.363C43.3886 213.977 40.4619 220.958 41.8202 228.4C41.8222 228.41 41.8242 228.42 41.8262 228.431C43.39 234.793 47.3116 238.559 50.7306 242.543C50.7377 242.551 50.7448 242.559 50.752 242.567C56.1717 248.032 62.7379 249.725 68.6842 251.892L69.4455 252.039C69.4555 252.039 69.4654 252.04 69.4754 252.04C79.6101 252.132 88.505 249.654 97.5872 247.351L97.7024 247.317C97.7073 247.316 97.7121 247.314 97.717 247.313C103.067 245.625 108.101 243.335 113.008 240.74C115.588 239.372 118.132 237.912 120.675 236.385C117.722 236.673 114.801 237.12 111.926 237.684C106.457 238.754 101.159 240.27 96.0151 241.892C96.0104 241.894 96.0058 241.895 96.0011 241.897L96.1163 241.863C87.3531 244.13 78.1482 246.525 69.7562 246.446C69.7485 246.445 69.7409 246.445 69.7332 246.445L70.4945 246.591C64.5845 244.566 58.3528 242.609 54.7342 238.898C54.7273 238.891 54.7204 238.883 54.7136 238.876C51.3926 235.25 47.7901 231.226 46.9576 227.437C46.9561 227.43 46.9546 227.422 46.9532 227.415C45.8986 222.064 48.0623 216.189 51.335 211.162C51.3465 211.144 51.358 211.126 51.3696 211.108C56.2263 203.641 61.1733 196.148 65.8498 188.462C65.8567 188.451 65.8636 188.44 65.8705 188.429C69.9731 181.616 73.7164 174.666 77.2362 167.336C77.2386 167.331 77.2409 167.326 77.2433 167.321C78.3122 165.015 79.3705 162.695 80.3764 160.331C81.5279 157.631 82.591 154.861 83.5291 152.071Z" fill="#07FF13"/>
<path d="M168.988 142.747C168.98 142.117 168.722 141.516 168.27 141.077C167.819 140.638 167.212 140.395 166.582 140.404C165.952 140.412 165.351 140.67 164.912 141.122C164.472 141.573 164.23 142.18 164.239 142.81C164.363 146.199 165.147 148.962 165.883 151.817C166.222 153.072 166.58 154.31 166.953 155.548C166.956 155.558 166.959 155.567 166.962 155.577C169.576 164.495 173.218 173.205 176.269 181.576C176.277 181.599 176.284 181.621 176.292 181.644C179.082 190.228 183.397 199.226 184.884 206.855C184.885 206.875 184.887 206.894 184.888 206.912C185.252 213.155 183.384 219.883 182.571 227.012C182.568 227.042 182.564 227.072 182.561 227.102C181.605 235.765 172.6 241.971 163.906 245.807C163.903 245.809 163.9 245.81 163.896 245.811C156.586 247.397 145.558 245.274 136.129 244.527L136.275 244.546C136.261 244.543 136.248 244.541 136.234 244.539C131.437 243.821 126.691 242.91 121.818 241.628C121.427 241.528 121.036 241.428 120.64 241.327C120.635 241.326 120.63 241.325 120.625 241.324C118.196 240.695 115.479 240.193 112.976 240.008C112.315 239.948 111.657 240.152 111.147 240.577C110.636 241.002 110.315 241.612 110.255 242.274C110.195 242.935 110.399 243.593 110.824 244.103C111.249 244.614 111.859 244.935 112.521 244.995C114.925 245.181 117.06 245.582 119.396 246.178C119.401 246.179 119.406 246.181 119.41 246.182C119.781 246.276 120.156 246.376 120.535 246.479C125.313 247.823 130.279 249.381 135.38 250.143C135.394 250.145 135.409 250.147 135.423 250.149L135.569 250.167C145.525 250.75 154.23 253.4 166.078 250.809C166.09 250.804 166.101 250.799 166.112 250.794C175.323 246.544 186.25 240.064 187.921 227.682C187.924 227.655 187.927 227.628 187.929 227.601C188.62 221.005 190.601 214.187 190.176 206.542C190.173 206.505 190.171 206.467 190.167 206.429C188.097 196.153 184.021 188.681 181.17 179.947C181.162 179.923 181.153 179.899 181.145 179.875C177.841 171.033 174.069 162.923 171.51 154.205C171.507 154.196 171.504 154.186 171.501 154.177C171.139 152.973 170.792 151.777 170.469 150.578C169.761 147.909 169.055 145.086 168.988 142.747Z" fill="#07FF13"/>
<path d="M178.164 169.292C177.657 169.742 177.35 170.375 177.31 171.052C177.27 171.729 177.5 172.394 177.95 172.901C178.4 173.408 179.033 173.716 179.71 173.756C180.387 173.796 181.052 173.566 181.559 173.116C182.423 172.349 183.326 171.564 184.22 170.787C192.187 163.893 200.092 156.867 207.74 149.549C207.747 149.542 207.754 149.536 207.761 149.529C209.001 148.16 211.285 146.462 210.615 142.623C209.418 139.158 207.104 138.505 205.466 137.612C205.455 137.607 205.445 137.602 205.434 137.597L205.197 137.503C197.982 135.069 190.486 133.757 182.792 133.233C182.693 133.228 182.595 133.224 182.499 133.22C182.497 133.22 182.496 133.22 182.495 133.22L182.45 133.216C181.303 133.206 180.072 133.995 179.088 134.597C180.265 134.848 181.232 135.648 182.267 135.799L182.222 135.795C182.223 135.795 182.224 135.795 182.226 135.796C182.312 135.811 182.401 135.828 182.491 135.845C189.617 137.342 196.522 140.24 203.448 142.585L203.211 142.491C203.219 142.495 203.227 142.498 203.235 142.502C204.576 143.038 205.703 144.065 205.546 143.967C205.546 143.944 205.565 143.905 205.558 143.983C205.551 144.056 205.498 144.222 205.385 144.425C205.161 144.835 204.733 145.351 204.221 145.839C204.216 145.844 204.211 145.848 204.206 145.853C196.638 153.095 188.824 160.04 180.865 166.929C179.968 167.709 179.062 168.496 178.164 169.292Z" fill="#07FF13"/>
<path d="M161.601 250.4C161.36 249.687 160.846 249.097 160.172 248.763C159.497 248.428 158.717 248.375 158.003 248.616C157.289 248.856 156.7 249.37 156.366 250.045C156.031 250.72 155.978 251.5 156.218 252.213C156.35 252.593 156.489 252.813 156.606 252.99C156.694 253.119 156.77 253.214 156.843 253.301C156.999 253.484 157.07 253.552 157.177 253.658C157.353 253.829 157.509 253.962 157.645 254.074C157.927 254.307 158.171 254.49 158.422 254.674C162.637 257.607 166.712 259.888 171.028 262.211C171.06 262.228 171.092 262.245 171.125 262.261C171.67 262.53 172.393 262.767 173.296 262.696C174.195 262.641 175.164 262.14 175.714 261.545C176.814 260.317 176.876 259.338 176.982 258.574C176.983 258.563 176.984 258.553 176.985 258.542C177.086 255.373 176.518 253.433 175.932 251.049C175.93 251.044 175.929 251.04 175.928 251.035C175.433 249.123 174.535 247.087 173.581 245.45C173.296 244.951 173.008 244.468 172.716 243.992C172.325 243.358 171.704 242.894 170.98 242.709C170.256 242.524 169.49 242.631 168.848 243.009C168.206 243.386 167.74 244.003 167.549 244.726C167.358 245.448 167.461 246.216 167.826 246.866C168.08 247.321 168.327 247.77 168.561 248.211C169.361 249.712 169.902 250.999 170.322 252.57C170.323 252.573 170.324 252.577 170.325 252.581C170.829 254.427 171.291 256.821 171.233 258.045C171.233 258.047 171.233 258.049 171.232 258.051C171.252 258.184 171.104 258.142 171.576 257.59C171.815 257.326 172.353 257.044 172.799 257.025C173.247 256.994 173.515 257.109 173.656 257.176C173.664 257.18 173.673 257.185 173.681 257.189C169.615 255.01 165.37 252.597 161.772 250.087C161.581 249.948 161.404 249.813 161.266 249.699C161.202 249.646 161.142 249.592 161.134 249.583C161.132 249.582 161.134 249.58 161.188 249.644C161.215 249.677 161.252 249.722 161.307 249.802C161.379 249.912 161.487 250.073 161.601 250.4Z" fill="#07FF13"/>
<path d="M53.1908 240.368C53.4647 239.997 53.5801 239.532 53.5116 239.077C53.443 238.621 53.1962 238.211 52.8253 237.937C52.4545 237.663 51.99 237.547 51.5341 237.616C51.0782 237.685 50.6682 237.931 50.3944 238.302C49.9447 238.911 49.513 239.53 49.0957 240.152C47.4148 242.685 45.8896 245.272 44.6347 248.135C44.5739 248.276 44.5099 248.424 44.4481 248.566C44.3332 248.864 44.12 249.421 44.4217 250.204C44.7552 250.978 45.3338 251.244 45.6209 251.369C46.2264 251.6 46.5247 251.593 46.8317 251.627C47.4163 251.67 47.8741 251.658 48.3278 251.65C49.2058 251.631 50.099 251.569 50.6606 251.578C50.6928 251.578 50.7213 251.58 50.7424 251.582C50.7147 251.583 50.5848 251.597 50.3348 251.477C50.0876 251.367 49.8278 251.07 49.7563 250.902C49.6141 250.549 49.6969 250.696 49.6552 250.883C49.6037 251.298 49.4265 251.952 49.23 252.609C49.0323 253.278 48.805 253.982 48.6061 254.796C48.5084 255.207 48.4142 255.64 48.3634 256.178C48.3404 256.719 48.2222 257.375 48.7376 258.466C48.9928 258.985 49.5264 259.584 50.1457 259.9C51.8883 260.669 52.7074 260.295 53.4312 260.254L53.8256 260.142C54.0209 260.078 54.2093 260.012 54.3998 259.939C57.7734 258.686 61.2476 256.89 64.0817 255.892L64.0038 255.915C64.0538 255.901 64.1045 255.887 64.1566 255.873C64.8411 255.693 65.7493 255.445 66.5512 255.135C67.3314 254.839 68.0579 254.508 68.7604 254.162C69.3363 253.878 69.776 253.377 69.9827 252.769C70.1894 252.161 70.1461 251.496 69.8624 250.92C69.5787 250.344 69.0777 249.904 68.4697 249.697C67.8617 249.49 67.1965 249.533 66.6203 249.817C66.0141 250.115 65.4189 250.383 64.8376 250.603C64.2248 250.837 63.6707 250.989 62.891 251.196C62.832 251.211 62.7722 251.228 62.7111 251.245L62.6332 251.268C58.7735 252.651 55.9488 254.234 52.6648 255.467C52.4852 255.537 52.3118 255.61 52.1339 255.688L52.5283 255.576C52.2933 255.637 52.089 255.686 51.9933 255.708C51.8932 255.74 51.9524 255.704 52.2566 255.857C52.4771 255.969 52.6925 256.227 52.7414 256.35C52.9271 256.797 52.8053 256.692 52.8318 256.52C52.8376 256.337 52.8776 256.06 52.9367 255.766C53.0562 255.168 53.2426 254.489 53.4276 253.765C53.6094 253.027 53.8163 252.286 53.9036 251.257C53.919 250.73 54.0139 250.128 53.5701 249.109C53.3497 248.615 52.8327 248.034 52.2664 247.762C51.689 247.475 51.2132 247.43 50.806 247.425C50.7261 247.425 50.6463 247.427 50.571 247.43C49.4707 247.496 48.7136 247.711 47.9355 247.858C47.5618 247.933 47.1864 247.997 46.9387 248.019C46.8316 248.038 46.7039 248.001 46.9234 248.084C47.0174 248.134 47.4054 248.277 47.6586 248.856C47.8796 249.445 47.7098 249.787 47.6755 249.887C47.7228 249.762 47.7752 249.632 47.8285 249.508C48.9368 246.972 50.4065 244.459 51.9839 242.087C52.3755 241.503 52.7788 240.926 53.1908 240.368Z" fill="#07FF13"/>
<path d="M153.146 141.235C152.69 141.394 152.316 141.728 152.106 142.163C151.895 142.599 151.867 143.099 152.026 143.556C152.185 144.012 152.519 144.387 152.954 144.597C153.39 144.807 153.89 144.835 154.347 144.676C156.622 143.65 158.101 142.782 159.94 141.807C162.756 140.282 165.541 138.73 168.325 137.157C168.334 137.152 168.343 137.147 168.352 137.141C175.648 133.023 182.377 127.675 187.612 120.97C187.629 120.947 187.647 120.924 187.665 120.901C190.552 116.949 190.557 112.483 190.805 108.82C190.805 108.815 190.805 108.81 190.806 108.805C187.839 96.8273 180.756 91.2001 175.253 83.0439L175.08 82.8413C175.066 82.8259 175.051 82.8105 175.037 82.7951C169.725 77.0504 163.965 71.171 160.956 64.7154L161 64.8262C160.997 64.8169 160.994 64.8077 160.99 64.7985C159.927 61.934 158.71 59.0526 157.259 56.208C156.343 54.4091 155.338 52.6194 154.234 50.8328C154.103 52.9286 154.121 55.0021 154.296 57.0485C154.576 60.2873 155.232 63.4579 156.369 66.5218C156.373 66.5317 156.377 66.5417 156.38 66.5515L156.425 66.6623C160.246 74.6866 166.092 80.2299 171.542 86.1207C171.557 86.1362 171.572 86.1517 171.587 86.1673L171.414 85.9646C176.852 93.3733 184.431 101.88 186.305 108.546C186.305 108.552 186.304 108.558 186.304 108.564C186.178 112.402 186.149 116.098 184.443 118.443C184.427 118.465 184.411 118.486 184.395 118.507C179.679 124.814 173.499 130.052 166.558 133.969C166.549 133.974 166.541 133.979 166.532 133.984C163.762 135.549 160.992 137.093 158.205 138.602C156.516 139.513 154.494 140.602 153.146 141.235Z" fill="#07FF13"/>
<path d="M123.597 48.3726C123.293 48.7571 123.155 49.2465 123.212 49.7332C123.269 50.2199 123.517 50.664 123.901 50.9678C124.286 51.2715 124.775 51.4101 125.262 51.3531C125.749 51.296 126.193 51.0479 126.497 50.6634C126.628 50.497 126.757 50.3335 126.885 50.1739C127.922 48.8611 128.899 47.8638 130.041 47.4228C130.042 47.4223 130.044 47.4217 130.045 47.4212C131.42 46.8815 133.259 46.3617 135.459 45.8104C135.684 45.7553 135.914 45.7004 136.148 45.6463C135.974 45.481 135.791 45.324 135.602 45.1757C133.751 43.7394 131.226 43.0215 128.678 43.988C128.676 43.989 128.673 43.9899 128.671 43.9909C126.551 44.8238 125.096 46.4892 124 47.865C123.862 48.0366 123.729 48.2061 123.597 48.3726Z" fill="#07FF13"/>
<path d="M180.311 91.9114C179.853 92.5039 179.648 93.2544 179.743 93.9977C179.838 94.741 180.224 95.4161 180.816 95.8747C181.409 96.3333 182.159 96.5377 182.903 96.4429C183.646 96.3482 184.321 95.962 184.78 95.3695C186.117 93.6409 187.429 91.8919 188.703 90.092C192.894 84.1672 196.802 77.5469 198.486 70.0052C198.495 69.9686 198.503 69.9321 198.511 69.8955C200.529 59.5308 196.203 50.4912 192.998 42.2967C192.993 42.2846 192.988 42.2725 192.983 42.2604C189.235 33.3563 182.297 26.8793 174.12 22.4257C174.11 22.4206 174.1 22.4154 174.09 22.4104C164.786 18.9255 157.176 20.6783 148.948 22.348C148.941 22.35 148.933 22.3519 148.926 22.3539C143.415 24.0798 140.382 27.8874 137.384 30.8293L137.036 31.2505C137.026 31.2647 137.017 31.2789 137.007 31.2931C135.805 33.0792 134.947 34.9729 134.305 36.9485C133.885 38.253 133.566 39.595 133.372 40.9918L133.351 41.1501C133.351 41.1539 133.351 41.1577 133.35 41.1616C133.245 42.25 133.448 43.6432 133.68 44.5552C133.814 45.1444 134.197 45.6744 134.714 46.0326C135.232 46.3905 135.843 46.5474 136.441 46.4646C137.039 46.3818 137.583 46.0648 137.985 45.5794C138.385 45.0941 138.609 44.4802 138.579 43.8766C138.524 42.9543 138.64 42.4784 138.743 41.7187C138.744 41.7162 138.744 41.7137 138.744 41.7112L138.723 41.8695C138.926 40.8589 139.247 39.8361 139.641 38.8411C140.241 37.3336 141.012 35.8738 141.878 34.5916C141.885 34.5814 141.892 34.5712 141.899 34.5611L141.551 34.9823C144.569 31.8666 147.563 28.8447 150.461 28.0369C150.465 28.0359 150.468 28.035 150.472 28.034C157.261 26.4547 166.019 25.5336 171.381 27.7444C171.389 27.7484 171.397 27.7525 171.405 27.7566C178.267 31.4359 184.757 37.3345 187.679 44.3997C187.684 44.412 187.689 44.4243 187.694 44.4367C191.057 52.6305 194.595 61.0748 192.996 68.6667C192.989 68.6981 192.982 68.7295 192.975 68.7608C191.545 75.1994 188.105 81.1623 184.092 86.8273C182.878 88.5417 181.613 90.2295 180.311 91.9114Z" fill="#07FF13"/>
<path d="M128.566 56.891C129.162 56.4308 129.551 55.7526 129.648 55.0056C129.744 54.2586 129.539 53.504 129.079 52.9077C128.619 52.3115 127.941 51.9225 127.194 51.8262C126.447 51.73 125.692 51.9345 125.096 52.3946C124.506 52.8743 124.345 53.1297 124.118 53.4059C123.912 53.673 123.747 53.9152 123.591 54.1536C123.282 54.6292 123.021 55.0835 122.774 55.5423C122.05 56.897 121.462 58.2578 120.965 59.696C120.921 59.8251 120.877 59.9546 120.835 60.085C120.805 60.1751 120.777 60.2696 120.75 60.3735C120.725 60.4737 120.695 60.5941 120.666 60.7964C120.645 61.0061 120.597 61.1517 120.665 61.7231C120.685 61.8547 120.715 62.0003 120.763 62.1601C120.787 62.2399 120.816 62.3232 120.851 62.4095C120.899 62.528 120.96 62.657 121.035 62.7859C121.313 63.3048 121.952 63.851 122.505 64.0444C123.062 64.2606 123.563 64.261 123.879 64.2285C124.13 64.2025 124.324 64.154 124.485 64.1047C124.835 63.9899 124.918 63.9365 125.072 63.8601C125.339 63.7175 125.464 63.6268 125.592 63.5376C126.058 63.1995 126.305 62.964 126.579 62.7168C127.1 62.2354 127.547 61.7867 127.991 61.3427C128.432 60.9012 128.86 60.4691 129.273 60.0685C129.478 59.8696 129.677 59.6805 129.855 59.5226C129.943 59.4447 130.025 59.3752 130.07 59.3402C130.093 59.3225 130.107 59.3136 130.082 59.3301C130.048 59.3471 130.016 59.3947 129.682 59.5247C129.156 59.7883 127.877 59.6729 127.352 59.2359C126.798 58.8357 126.716 58.5999 126.623 58.4645C126.468 58.1657 126.525 58.231 126.532 58.2916C126.551 58.3659 126.577 58.4924 126.601 58.6346C126.651 58.9236 126.696 59.273 126.744 59.646C126.793 60.0212 126.843 60.42 126.917 60.871C127.016 61.3527 127.014 61.738 127.442 62.7239C127.633 63.0896 127.82 63.5316 128.507 64.1367C128.872 64.4474 129.494 64.8174 130.267 64.9075C131.04 65.0056 131.749 64.7904 132.186 64.565C133.066 64.0905 133.349 63.6636 133.623 63.3307C134.122 62.6543 134.343 62.1429 134.56 61.6362C134.627 61.4751 134.687 61.3172 134.743 61.1668C135.384 59.3663 135.764 57.5458 136.123 56.7679C136.128 56.7575 136.132 56.7492 136.135 56.7431C136.149 56.7137 136.15 56.732 136.063 56.8344C135.981 56.9302 135.765 57.1409 135.414 57.2818C135.066 57.4271 134.704 57.427 134.578 57.4089C134.441 57.391 134.469 57.3847 134.578 57.421C134.579 57.4215 134.581 57.4219 134.582 57.4224C135.019 57.4746 136.06 58.3126 138.31 57.8401C138.396 57.8171 138.48 57.7918 138.565 57.7633C140.539 57.1212 141.536 55.3258 141.885 54.2079C142.274 53.0125 142.352 51.9944 142.391 51.0527C142.395 50.9559 142.397 50.8608 142.399 50.7703C142.395 50.812 142.407 50.9176 142.311 51.2154C142.228 51.5053 141.851 52.1935 141.14 52.5414C140.446 52.8752 140.013 52.795 139.83 52.7785C139.647 52.7499 139.611 52.727 139.613 52.7302C139.676 52.7479 140.13 53.0089 140.531 53.288C140.952 53.574 141.407 53.9082 141.934 54.2696C142.203 54.4531 142.484 54.6433 142.862 54.8597C143.048 54.9645 143.263 55.0838 143.588 55.2176C143.969 55.3164 144.208 55.6302 145.654 55.4575L146.854 54.9269C147.595 54.4108 148.159 53.3829 148.256 52.6068C148.43 51.1536 148.056 50.5102 147.843 49.9399C147.6 49.3912 147.35 48.9834 147.096 48.6115C146.992 48.4604 146.88 48.3093 146.769 48.1694C145.409 46.4703 143.607 45.4567 141.763 44.978C140.717 44.7075 139.653 44.6123 138.599 44.666C138.293 44.6903 137.984 44.7566 137.719 44.9077C137.454 45.0587 137.257 45.2806 137.16 45.5477C137.064 45.8147 137.076 46.1119 137.184 46.3969C137.292 46.6819 137.488 46.9299 137.708 47.1436C138.377 47.817 138.992 48.4529 139.557 49.0544C140.552 50.1156 141.394 51.0748 142.058 51.9095C142.111 51.9773 142.166 52.0462 142.217 52.1106C142.343 52.27 142.445 52.4136 142.479 52.4533C142.536 52.4709 142.388 52.4716 142.468 51.6706C142.512 51.2436 142.89 50.5445 143.345 50.2372L144.544 49.7066C144.82 49.654 145.041 49.6548 145.209 49.6671C145.351 49.6781 145.457 49.6979 145.538 49.7166C145.688 49.7521 145.748 49.7791 145.778 49.7909C145.837 49.8168 145.79 49.7988 145.735 49.7677C145.613 49.7012 145.413 49.5753 145.206 49.4365C144.786 49.1567 144.309 48.8149 143.779 48.4615C143.223 48.1046 142.717 47.7314 141.71 47.3199C141.445 47.2199 141.127 47.1092 140.668 47.0401C140.197 46.9823 139.47 46.9076 138.517 47.3719C137.544 47.8504 137 48.7855 136.823 49.3541C136.73 49.63 136.681 49.877 136.65 50.0953C136.623 50.2892 136.611 50.4723 136.607 50.6486C136.606 50.7172 136.604 50.7856 136.602 50.8527C136.584 51.4894 136.5 52.0625 136.393 52.3727C136.344 52.525 136.291 52.5895 136.332 52.5346C136.363 52.4838 136.554 52.324 136.724 52.2746C136.753 52.2652 136.78 52.2568 136.809 52.2492C137.176 52.1557 137.343 52.2381 137.217 52.2028C137.1 52.1767 136.805 52.0661 136.328 51.9111C136.325 51.91 136.321 51.9089 136.318 51.9079C135.862 51.789 134.765 51.3398 133.243 51.9193C131.786 52.5558 131.313 53.5172 130.988 54.0933C130.955 54.1583 130.923 54.2226 130.892 54.2879C129.959 56.5087 129.812 57.9459 129.343 59.2124C129.311 59.303 129.279 59.3895 129.249 59.4648C129.16 59.6988 129.032 59.9181 129.052 59.8869C129.086 59.8689 129.089 59.7512 129.612 59.4611C129.871 59.3262 130.377 59.162 130.951 59.2352C131.523 59.302 131.96 59.5745 132.172 59.7564C132.57 60.1163 132.561 60.2269 132.585 60.2515C132.664 60.4304 132.625 60.3627 132.609 60.2828C132.587 60.1958 132.56 60.0644 132.534 59.9181C132.483 59.6237 132.435 59.2718 132.384 58.8972C132.332 58.5195 132.279 58.1217 132.2 57.6626C132.159 57.4313 132.113 57.1907 132.039 56.8955C131.951 56.5894 131.902 56.2901 131.562 55.6593C131.388 55.3832 131.217 55.0202 130.527 54.5264C129.871 53.9967 128.422 53.8637 127.743 54.1862C127.513 54.2706 127.353 54.3533 127.217 54.4287C127.112 54.488 127.023 54.5441 126.941 54.5983C126.784 54.7032 126.681 54.7812 126.577 54.8622C126.385 55.0123 126.23 55.1457 126.085 55.2746C125.798 55.5302 125.557 55.7603 125.317 55.9923C124.842 56.454 124.405 56.8971 123.973 57.3287C123.544 57.7582 123.119 58.1817 122.733 58.537C122.55 58.7074 122.336 58.8868 122.304 58.9068C122.306 58.9068 122.308 58.8983 122.431 58.8321C122.509 58.7944 122.545 58.7645 122.806 58.6788C122.928 58.6416 123.086 58.6008 123.304 58.5781C123.578 58.5501 124.037 58.547 124.562 58.7502C125.081 58.9311 125.69 59.4523 125.948 59.9358C126.018 60.0559 126.074 60.1751 126.118 60.2836C126.15 60.3624 126.176 60.4381 126.198 60.5098C126.241 60.6535 126.267 60.7815 126.284 60.894C126.341 61.3776 126.299 61.4609 126.289 61.5921C126.251 61.8268 126.241 61.8174 126.235 61.8443C126.268 61.7427 126.302 61.6413 126.337 61.5396C126.726 60.41 127.22 59.2715 127.777 58.2311C127.964 57.8822 128.16 57.5453 128.35 57.2533C128.444 57.1089 128.538 56.9747 128.612 56.879C128.667 56.7955 128.8 56.6931 128.566 56.891Z" fill="#07FF13"/>
<path d="M213.459 100.1C213.154 99.5884 212.657 99.2194 212.08 99.0738C211.502 98.9282 210.89 99.0181 210.379 99.3236C209.868 99.6292 209.498 100.125 209.353 100.703C209.207 101.281 209.297 101.892 209.603 102.404C209.898 102.898 210.194 103.393 210.489 103.887C214.412 110.52 218.521 117.157 221.737 123.893C221.739 123.898 221.742 123.903 221.744 123.907C222.778 126.177 223.663 128.497 223.587 130.456C223.575 130.904 223.519 131.378 223.444 131.952C223.367 132.542 223.529 133.139 223.893 133.611C224.256 134.083 224.793 134.391 225.383 134.467C225.974 134.543 226.571 134.382 227.043 134.018C227.515 133.654 227.823 133.118 227.899 132.527C227.973 131.958 228.058 131.289 228.077 130.584C228.14 127.232 226.929 124.528 225.825 122.031C225.823 122.026 225.821 122.021 225.818 122.016C222.362 114.793 218.29 108.262 214.346 101.584C214.05 101.089 213.755 100.594 213.459 100.1Z" fill="#07FF13"/>
<path d="M225.953 89.0383C226.446 89.4849 226.702 90.1162 226.962 90.7123C227.691 92.4974 228.259 94.3346 228.839 96.1805C228.841 96.185 228.842 96.1894 228.843 96.1939C231.732 105.661 234.372 115.215 237.072 124.741C237.251 125.374 237.429 126.006 237.608 126.64C237.429 126.006 237.251 125.374 237.072 124.741C234.372 115.215 231.732 105.661 228.843 96.1939C228.842 96.1894 228.841 96.185 228.839 96.1805C228.259 94.3346 227.691 92.4974 226.962 90.7123C226.702 90.1162 226.446 89.4849 225.953 89.0383Z" fill="#07FF13"/>
<path d="M31.4648 194.701C31.2806 194.743 31.2257 194.948 31.1856 195.109C31.1464 195.279 31.1248 195.453 31.107 195.626C31.0722 195.978 31.0569 196.32 31.0453 196.671C30.999 198.374 31.0412 200.081 31.0832 201.788C31.0838 201.81 31.0844 201.833 31.085 201.855C31.4219 212.697 31.9868 223.526 32.4934 234.359C32.5268 235.057 32.5601 235.754 32.5935 236.452C32.5601 235.754 32.5268 235.057 32.4934 234.359C31.9868 223.526 31.4219 212.697 31.085 201.855C31.0844 201.833 31.0838 201.81 31.0832 201.788C31.0412 200.081 30.999 198.374 31.0453 196.671C31.0569 196.32 31.0722 195.978 31.107 195.626C31.1248 195.453 31.1464 195.279 31.1856 195.109C31.2257 194.948 31.2806 194.743 31.4648 194.701Z" fill="#07FF13"/>
<path d="M36.5322 197.788C36.7503 196.907 36.6095 195.976 36.1409 195.198C35.6722 194.421 34.914 193.862 34.033 193.644C33.1521 193.426 32.2206 193.567 31.4434 194.035C30.6663 194.504 30.1072 195.262 29.889 196.143C29.7404 196.743 29.5917 197.344 29.4431 197.946C27.8827 204.448 26.1354 210.84 25.3835 217.992C25.3835 217.992 25.3834 217.992 25.3834 217.992C25.0854 221.566 25.1516 225.881 27.4655 229.712C27.4693 229.718 27.473 229.725 27.4768 229.731C28.1024 230.94 30.4992 232.106 32.1565 231.684C33.0647 231.528 33.8175 231.2 34.5223 230.99C34.0355 230.445 33.6086 229.742 33.3945 229.059C32.9458 227.72 33.7635 227.091 33.2787 226.327C33.2764 226.323 33.2742 226.32 33.272 226.316C32.0928 224.349 31.9381 221.612 32.2006 218.594C32.2006 218.594 32.2006 218.594 32.2006 218.594C32.8245 212.512 34.5349 205.996 36.0872 199.587C36.2352 198.988 36.3836 198.388 36.5322 197.788Z" fill="#07FF13"/>
<path d="M19.9699 190.568C19.9248 191.311 19.8798 192.054 19.8349 192.797C19.2768 202.985 18.4313 213.195 18.9281 223.396C18.9291 223.41 18.9301 223.425 18.9311 223.439C19.1944 226.564 19.5035 229.929 21.5299 232.448C22.002 233.024 22.5614 233.521 23.123 234.008C22.5614 233.521 22.002 233.024 21.5299 232.448C19.5035 229.929 19.1944 226.564 18.9311 223.439C18.9301 223.425 18.9291 223.41 18.9281 223.396C18.4313 213.195 19.2768 202.985 19.8349 192.797C19.8798 192.054 19.9248 191.311 19.9699 190.568Z" fill="#07FF13"/>
<path d="M22.6538 200.499C22.8644 200.123 22.9171 199.679 22.8001 199.264C22.6832 198.849 22.4062 198.498 22.0302 198.287C21.6542 198.077 21.21 198.024 20.7951 198.141C20.3803 198.258 20.029 198.535 19.8184 198.911C19.5367 199.414 19.2546 199.917 18.9728 200.423C16.1866 205.549 13.0872 210.707 11.9781 216.975C11.9776 216.978 11.9771 216.982 11.9767 216.985C11.0834 221.988 13.3773 227.07 16.6601 230.282C17.0735 230.706 17.5017 231.113 17.9424 231.505C17.698 230.968 17.461 230.433 17.2343 229.898C15.3927 225.678 14.4906 221.538 15.1883 217.483C15.1887 217.48 15.1891 217.477 15.1895 217.475C16.0947 212.183 19.0357 207.059 21.8112 202.006C22.0911 201.504 22.3721 201.002 22.6538 200.499Z" fill="#07FF13"/>
<path d="M225.277 101.76C225.616 101.979 226.029 102.055 226.425 101.971C226.82 101.886 227.166 101.648 227.386 101.308C227.606 100.968 227.682 100.555 227.597 100.16C227.512 99.7642 227.274 99.4185 226.934 99.1986C226.444 98.8817 225.952 98.5617 225.439 98.2416C225.204 98.0954 224.964 97.9479 224.703 97.7986C224.571 97.7233 224.436 97.648 224.267 97.5639C224.182 97.5229 224.09 97.4775 223.943 97.4219C223.864 97.3944 223.793 97.3626 223.587 97.3219C223.539 97.3132 223.479 97.3033 223.387 97.297C223.291 97.2932 223.216 97.2846 223.008 97.3162C222.913 97.3325 222.803 97.3596 222.681 97.4087C222.553 97.4589 222.365 97.5621 222.211 97.7052C221.878 98.0035 221.73 98.4311 221.711 98.7257L221.658 99.3579L222.07 99.841C222.09 99.8648 222.11 99.8886 222.13 99.9125C227.945 106.852 231.8 115.445 233.474 124.356L233.452 124.193C233.453 124.198 233.453 124.202 233.454 124.206C233.499 124.759 233.543 125.305 233.571 125.822C233.6 126.367 233.607 126.779 233.564 127.342C233.537 127.726 233.649 128.113 233.89 128.418C234.131 128.724 234.478 128.923 234.86 128.972C235.241 129.021 235.628 128.917 235.939 128.683C236.249 128.449 236.455 128.103 236.528 127.725C236.649 127.133 236.715 126.377 236.714 125.756C236.717 125.131 236.684 124.535 236.636 123.944C236.636 123.94 236.635 123.935 236.635 123.93L236.613 123.768C234.828 114.31 230.656 105.344 224.458 97.9403C224.436 97.9147 224.414 97.8891 224.393 97.8636L224.751 98.9789C224.734 99.2545 224.592 99.6679 224.272 99.9546C224.124 100.092 223.943 100.191 223.823 100.238C223.708 100.284 223.605 100.309 223.519 100.324C223.19 100.369 223.107 100.329 223.039 100.323C222.902 100.295 222.893 100.285 222.876 100.28C222.853 100.271 222.886 100.284 222.918 100.3C222.989 100.335 223.089 100.39 223.189 100.447C223.39 100.562 223.609 100.696 223.825 100.831C224.302 101.128 224.788 101.443 225.277 101.76Z" fill="#07FF13"/>
<path d="M154.459 51.4791C153.95 51.6563 153.533 52.0282 153.299 52.5128C153.065 52.9975 153.033 53.5553 153.211 54.0635C153.388 54.5717 153.76 54.9886 154.244 55.2226C154.729 55.4567 155.287 55.4886 155.795 55.3113C156.225 55.1613 156.655 55.0194 157.083 54.8887C158.891 54.3137 161.095 53.9391 161.916 54.3072L161 53.5646C161.001 53.5664 161.003 53.5682 161.004 53.57C162.986 56.5301 164.147 60.3955 164.215 63.5083L164.228 63.2585C164.228 63.2603 164.228 63.2622 164.228 63.2641C163.95 65.4919 163.927 68.237 164.642 70.8997C164.774 71.4069 164.928 71.9155 165.104 72.425C165.419 71.9874 165.717 71.5507 165.997 71.1135C167.468 68.7743 168.534 66.5653 168.89 63.7735C168.89 63.7711 168.89 63.7686 168.89 63.7662L168.904 63.5164C168.72 58.6851 166.717 54.9224 164.366 51.2967C164.365 51.2945 164.363 51.2923 164.362 51.2901L164.016 50.7797L163.445 50.5476C160.206 49.5143 158.075 50.4536 155.897 51.0073C155.41 51.156 154.931 51.3142 154.459 51.4791Z" fill="#07FF13"/>
<path d="M105.983 70.1296C106.367 69.7165 106.571 69.1679 106.55 68.6044C106.529 68.0409 106.285 67.5088 105.872 67.125C105.459 66.7413 104.911 66.5373 104.347 66.558C103.784 66.5788 103.252 66.8225 102.868 67.2356C101.226 69.0166 99.9308 70.8849 98.6628 72.7294C95.559 77.3178 92.7141 81.9702 89.8636 86.6338C89.855 86.648 89.8464 86.6621 89.8378 86.6763C85.3333 94.0218 81.5619 101.854 78.8376 109.989C78.8269 110.021 78.8161 110.053 78.8054 110.086C76.4682 117.042 75.3845 124.606 76.2526 132.004C76.2553 132.029 76.258 132.054 76.2606 132.079C77.8031 140.555 83.2727 145.596 88.0785 150.738C88.0826 150.742 88.0868 150.746 88.0909 150.75C91.802 154.296 96.322 154.376 99.9895 154.662C99.9904 154.662 99.9913 154.662 99.9921 154.662L100.425 154.645C108.57 153.674 116.69 152.567 124.803 149.642C125.656 149.316 126.523 148.961 127.44 148.49L127.311 148.553C127.312 148.552 127.314 148.551 127.315 148.551C128.433 148.089 130.011 147.302 131.181 146.596C131.831 146.213 132.302 145.589 132.491 144.859C132.68 144.129 132.572 143.354 132.19 142.704C131.808 142.054 131.184 141.583 130.454 141.393C129.724 141.203 128.949 141.311 128.299 141.693C127.153 142.364 126.321 142.792 124.956 143.371C124.954 143.372 124.952 143.373 124.951 143.374L124.822 143.436C124.231 143.742 123.492 144.055 122.772 144.332C115.67 146.943 107.669 148.296 99.7887 149.332L100.221 149.315C100.221 149.315 100.22 149.315 100.219 149.315C96.7785 149.193 93.3421 148.818 91.7148 147.112C91.7127 147.11 91.7106 147.108 91.7085 147.106C87.082 142.441 82.102 136.936 81.2666 131.536C81.264 131.513 81.2614 131.488 81.2588 131.464C80.4681 124.82 81.4279 118.088 83.5602 111.67C83.5705 111.639 83.5809 111.608 83.5912 111.577C86.2066 103.708 89.1518 95.9383 93.4692 88.888C93.4778 88.8739 93.4864 88.8598 93.495 88.8457C96.3272 84.2108 99.1725 79.5633 102.177 75.1237C103.393 73.3481 104.64 71.5794 105.983 70.1296Z" fill="#07FF13"/>
<path d="M86.8832 97.8344C87.4932 97.7276 88.0358 97.3829 88.3916 96.8761C88.7475 96.3693 88.8874 95.7419 88.7807 95.1319C88.6739 94.5219 88.3292 93.9793 87.8224 93.6234C87.3156 93.2676 86.6882 93.1276 86.0782 93.2344C85.8466 93.293 84.7603 93.1618 83.9452 92.9127C83.0742 92.6642 82.2021 92.3155 81.3735 91.8945C80.2784 91.3373 79.2576 90.6513 78.3884 89.8571C78.3833 89.8525 78.3781 89.8478 78.373 89.8431C74.8632 86.5652 72.0059 82.343 69.3528 78.1287C69.3527 78.1286 69.3527 78.1286 69.3527 78.1285C65.9431 72.649 67.5511 64.82 69.1418 57.3828C69.1518 57.3351 69.1618 57.2876 69.1721 57.2401C70.6188 49.7655 77.5206 44.3069 84.0087 38.8892C84.0396 38.864 84.0705 38.8388 84.1013 38.8138C87.9706 35.6372 92.4899 33.606 97.133 33.9875L96.8853 33.9584C96.9161 33.9636 96.9469 33.9687 96.9777 33.9739C106.446 35.5476 115.417 37.5852 122.869 43.2012L122.506 42.8985C122.509 42.9018 122.512 42.9052 122.516 42.9085C122.836 43.2297 123.127 43.5542 123.401 43.896C124.489 45.2454 125.399 47.0566 126.313 48.94C126.625 49.5855 127.18 50.0792 127.859 50.3114C128.537 50.5436 129.283 50.4953 129.93 50.178C130.578 49.8608 131.073 49.301 131.305 48.6228C131.537 47.9445 131.487 47.2033 131.168 46.5613C130.178 44.6016 129.159 42.5382 127.539 40.5393C127.139 40.0503 126.71 39.5821 126.273 39.1476C126.269 39.1431 126.264 39.1386 126.26 39.1341L125.897 38.8314C117.762 32.7198 107.273 30.3724 97.8333 28.8495C97.8019 28.8443 97.7705 28.8391 97.7389 28.8338L97.4913 28.8047C91.2393 28.2828 85.2261 31.1413 80.8322 34.786C80.7965 34.8149 80.7608 34.844 80.7251 34.8733C74.3043 40.3446 66.2149 46.2147 64.1012 56.1464C64.0883 56.2062 64.0756 56.2661 64.0631 56.3261C62.6283 63.7009 60.1137 72.5944 65.0078 80.8612C65.0078 80.8613 65.0079 80.8614 65.0079 80.8614C67.8693 85.3508 71.1875 89.5121 75.2199 93.2878C75.226 93.2934 75.2321 93.2989 75.2381 93.3045C76.4655 94.4241 77.8241 95.327 79.2567 96.0571C81.5358 97.0929 83.4051 98.0972 86.8832 97.8344Z" fill="#07FF13"/>
<path d="M104.425 68.6825C104.419 68.5355 104.441 68.2819 104.239 68.2819C104.071 68.2933 103.927 68.389 103.786 68.4747C103.172 68.884 102.627 69.3919 102.082 69.8876C102.05 69.9174 102.017 69.9476 101.984 69.9783C98.2135 73.5569 94.6287 77.3211 90.9955 81.0357C90.7636 81.274 90.5323 81.5118 90.3004 81.7502C90.5323 81.5118 90.7636 81.274 90.9955 81.0357C94.6287 77.3211 98.2135 73.5569 101.984 69.9783C102.017 69.9476 102.05 69.9174 102.082 69.8876C102.627 69.3919 103.172 68.884 103.786 68.4747C103.927 68.389 104.071 68.2933 104.239 68.2819C104.441 68.2819 104.419 68.5355 104.425 68.6825Z" fill="#07FF13"/>
<path d="M89.8572 87.196C90.1689 87.7079 90.6711 88.0751 91.2535 88.2167C91.8359 88.3582 92.4506 88.2627 92.9625 87.951C93.4745 87.6394 93.8416 87.1371 93.9832 86.5547C94.1248 85.9724 94.0292 85.3576 93.7176 84.8457C93.4401 84.39 93.1866 83.9192 92.9581 83.4359C91.4183 80.201 91.079 76.4428 91.8435 72.852C91.8465 72.8379 91.8495 72.8237 91.8525 72.8096C92.3218 70.3968 94.6058 68.4954 97.4707 67.1393L96.9366 67.3267C96.9441 67.3251 96.9516 67.3235 96.9592 67.3219C98.8213 66.9258 100.426 66.9135 101.852 67.4408L101.626 67.3465C101.627 67.3469 101.628 67.3473 101.629 67.3477C102.644 67.8404 103.653 68.0834 105.022 68.5091C105.622 68.6972 106.284 68.9239 107.006 69.2191C107.122 68.4476 107.079 67.6633 106.883 66.9191C106.451 65.2247 105.164 63.793 103.673 63.0947C103.672 63.0941 103.67 63.0935 103.669 63.093L103.444 62.9986C100.92 62.0601 98.178 62.3273 95.9879 62.828C95.9787 62.8301 95.9695 62.8321 95.9604 62.8341L95.4263 63.0215C92.214 64.5886 88.3674 67.3458 87.4309 71.8738C87.4272 71.8912 87.4235 71.9086 87.4199 71.926C86.4739 76.344 86.8746 81.1811 88.8722 85.3677C89.168 85.9934 89.4968 86.6041 89.8572 87.196Z" fill="#07FF13"/>
<path d="M160.91 79.6345C160.849 79.761 160.787 79.8877 160.727 80.0146C160.342 80.8143 160.022 81.6442 159.763 82.4939C159.763 82.494 159.763 82.4941 159.763 82.4942C159.287 84.0664 158.921 85.6705 158.541 87.2682C158.508 87.4051 158.476 87.5418 158.444 87.6788C158.476 87.5418 158.508 87.4051 158.541 87.2682C158.921 85.6705 159.287 84.0664 159.763 82.4942C159.763 82.4941 159.763 82.494 159.763 82.4939C160.022 81.6442 160.342 80.8143 160.727 80.0146C160.787 79.8877 160.849 79.761 160.91 79.6345Z" fill="#07FF13"/>
<path d="M119.605 81.5438C119.688 81.2395 119.646 80.915 119.489 80.6417C119.332 80.3683 119.073 80.1685 118.768 80.0862C118.464 80.0039 118.14 80.0459 117.866 80.2028C117.593 80.3598 117.393 80.6189 117.311 80.9232C117.005 82.0543 116.711 83.1895 116.436 84.3344C116.028 86.0524 115.649 87.7802 115.411 89.5865C115.41 89.5946 115.409 89.6026 115.408 89.6107C115.155 91.4344 115.511 93.2985 116.015 94.8636C116.018 94.8734 116.021 94.8831 116.024 94.8929C116.727 96.9937 118.043 98.4624 119.321 99.812C119.331 99.8227 119.341 99.8335 119.352 99.8442C121.67 102.191 124.885 102.738 127.668 102.795C127.68 102.796 127.691 102.796 127.703 102.796C129.198 102.815 130.533 102.275 131.636 101.566C131.649 101.558 131.661 101.55 131.674 101.541C135.109 98.5042 135.211 95.1359 136.154 91.9601C136.156 91.951 136.158 91.9418 136.16 91.9326C137.008 88.2041 135.187 84.9995 134.04 82.3692C134.037 82.3628 134.035 82.3565 134.032 82.3502C132.844 79.6566 130.343 78.0449 128.076 77.0373C128.073 77.0359 128.07 77.0346 128.067 77.0332C125.977 76.0645 123.52 75.9347 121.463 76.2266L121.296 76.2565C121.291 76.2576 121.287 76.2587 121.282 76.2598C120.688 76.3975 120.165 77.0158 119.907 77.6515C119.632 78.2943 119.595 78.8966 119.331 79.2823C119.33 79.2845 119.328 79.2866 119.327 79.2888C119.108 79.6063 118.927 79.95 118.765 80.2995C118.282 81.3577 117.941 82.4727 117.585 83.5785C117.941 82.4727 118.282 81.3577 118.765 80.2995C118.927 79.95 119.108 79.6063 119.327 79.2888C119.328 79.2866 119.33 79.2845 119.331 79.2823C119.607 78.8863 120.239 78.7912 120.753 78.9026C121.281 79.0033 121.656 79.266 121.986 79.1842C121.988 79.1836 121.991 79.1829 121.993 79.1823L121.827 79.2123C123.679 78.962 125.337 79.0453 126.88 79.7222C126.882 79.7232 126.884 79.7242 126.886 79.7251C128.909 80.5953 130.664 81.7993 131.415 83.5223C131.417 83.5264 131.419 83.5306 131.421 83.5347C132.697 86.3204 133.96 88.9354 133.374 91.2811C133.372 91.2899 133.37 91.2987 133.368 91.3076C132.656 94.2522 131.717 97.9022 130.113 99.1506C130.104 99.1564 130.095 99.1621 130.086 99.1678C129.323 99.6634 128.486 99.9633 127.739 99.9541C127.729 99.954 127.719 99.9539 127.709 99.9538C125.256 99.9353 122.809 99.402 121.321 97.9011C121.311 97.8914 121.301 97.8816 121.292 97.872C120.096 96.6683 118.933 95.3941 118.457 94.0853C118.454 94.0762 118.45 94.0672 118.447 94.0582C117.925 92.6151 117.585 91.2708 117.766 89.9118C117.767 89.9045 117.768 89.8971 117.769 89.8898C117.985 88.2392 118.349 86.5594 118.748 84.8884C119.015 83.7727 119.304 82.6581 119.605 81.5438Z" fill="#07FF13"/>
<path d="M145.261 77.9817C145.21 77.6049 145.012 77.2636 144.71 77.0329C144.408 76.8022 144.026 76.701 143.649 76.7516C143.273 76.8022 142.931 77.0004 142.701 77.3026C142.47 77.6049 142.369 77.9864 142.419 78.3632C142.559 79.3997 142.706 80.4311 142.87 81.4681C143.347 84.1756 143.637 86.7989 144.965 89.698C144.968 89.7025 144.97 89.7071 144.973 89.7116C145.844 91.3786 147.027 92.9093 148.59 94.0947C148.595 94.0984 148.6 94.102 148.605 94.1057C150.985 95.5664 152.812 94.8143 154.443 94.594C154.446 94.5933 154.449 94.5927 154.452 94.5921C156.461 94.1715 157.821 92.8407 158.865 91.6481C158.866 91.647 158.867 91.6458 158.868 91.6446C160.581 89.4408 160.658 87.2699 161.065 85.2898C161.065 85.2872 161.065 85.2846 161.066 85.2819C161.471 82.8287 161.35 80.2938 160.442 77.8531C160.441 77.8511 160.44 77.8492 160.439 77.8472C159.337 75.4777 157.752 74.54 156.405 73.3039C156.403 73.3021 156.401 73.3004 156.399 73.2987C154.539 71.7276 152.276 70.7587 149.935 70.3623C149.934 70.3623 149.934 70.3622 149.934 70.3622C146.437 69.7804 143.414 71.5473 141.104 73.1749L140.842 73.4104C140.841 73.4115 140.84 73.4126 140.839 73.4137C140.709 73.5616 140.589 73.7222 140.479 73.8935C140.03 74.6184 139.692 75.4999 139.659 76.5939L139.646 76.7516C139.646 76.7517 139.646 76.7518 139.646 76.752C139.719 77.2979 140.09 77.6021 140.323 77.8263C140.397 77.8981 140.521 77.9479 140.641 77.9738C140.763 77.9992 140.872 77.9987 140.968 77.9633C141.064 77.9278 141.148 77.8578 141.224 77.7596C141.299 77.6619 141.361 77.5441 141.371 77.441C141.396 77.1015 141.555 76.8257 141.634 76.7635C141.634 76.7634 141.634 76.7634 141.634 76.7634L141.62 76.921C141.855 76.5623 142.377 76.1899 142.827 75.7719C142.936 75.6705 143.042 75.5639 143.143 75.4494C143.144 75.4486 143.144 75.4477 143.145 75.4468L142.883 75.6823C145.019 74.1538 147.317 72.9996 149.432 73.3813C149.432 73.3813 149.432 73.3814 149.433 73.3814C151.275 73.6864 153.059 74.443 154.456 75.6099C154.458 75.6112 154.459 75.6125 154.461 75.6137C155.788 76.728 157.28 77.9715 157.667 78.9314C157.668 78.9321 157.668 78.9328 157.668 78.9335C158.354 80.709 158.518 82.8216 158.19 84.8017C158.189 84.8038 158.189 84.806 158.189 84.8081C157.867 86.7236 157.511 88.7749 156.669 89.7532C156.668 89.7537 156.668 89.7542 156.667 89.7548C155.793 90.7804 154.823 91.5785 153.878 91.755C153.877 91.7553 153.875 91.7556 153.874 91.7559C152.426 92.0784 150.737 92.1706 150.34 91.789C150.337 91.7864 150.333 91.7837 150.329 91.7811C149.185 90.9165 148.211 89.7231 147.515 88.3858C147.513 88.3831 147.512 88.3803 147.511 88.3776C146.571 86.3833 146.128 83.5896 145.702 81.0211C145.543 80.0123 145.398 79.0014 145.261 77.9817Z" fill="#07FF13"/>
<path d="M134.795 88.3049C134.587 88.5978 134.503 88.9616 134.563 89.316C134.623 89.6705 134.821 89.9867 135.114 90.195C135.407 90.4034 135.771 90.4868 136.125 90.427C136.48 90.3671 136.796 90.1689 137.004 89.8759C137.1 89.7419 137.207 89.5988 137.314 89.4607C137.977 88.6107 138.734 87.7694 139.511 86.994C139.901 86.6071 140.301 86.234 140.7 85.9057C140.899 85.7427 141.099 85.5903 141.282 85.47C141.447 85.3517 141.684 85.2604 141.578 85.2955C141.579 85.2954 141.579 85.2953 141.58 85.2951C141.678 85.2743 141.845 85.336 142.057 85.4721C142.057 85.4723 142.057 85.4725 142.058 85.4728C142.125 85.5133 142.232 85.6129 142.557 86.0215C142.558 86.0237 142.56 86.026 142.562 86.0282C142.728 86.2438 143.143 86.5774 143.463 86.6897C143.77 86.8109 144.012 86.8464 144.236 86.8897C144.495 86.9304 144.783 86.8573 145.026 86.7118C145.271 86.5648 145.451 86.3574 145.537 86.11C145.622 85.8626 145.608 85.5881 145.507 85.3216C145.405 85.0567 145.225 84.8215 144.996 84.6932C144.857 84.6102 144.74 84.5092 144.711 84.445C144.675 84.3658 144.787 84.421 144.705 84.3177C144.705 84.3167 144.704 84.3157 144.703 84.3146C144.543 84.0947 144.184 83.521 143.57 83.1295C143.567 83.1273 143.563 83.125 143.56 83.1228C142.904 82.701 142.002 82.4522 141.073 82.6319C141.067 82.6331 141.061 82.6342 141.055 82.6354C139.842 82.9824 139.533 83.4076 138.98 83.8105C138.483 84.22 138.035 84.6404 137.601 85.071C136.736 85.935 135.936 86.8208 135.171 87.8005C135.046 87.9615 134.918 88.1323 134.795 88.3049Z" fill="#07FF13"/>
<path d="M139.223 119.394C138.922 119.685 138.749 120.083 138.742 120.501C138.735 120.919 138.894 121.322 139.184 121.623C139.475 121.924 139.873 122.097 140.291 122.104C140.709 122.111 141.112 121.952 141.413 121.662C141.601 121.48 141.789 121.299 141.977 121.118C143.302 119.853 144.684 118.48 145.951 117.555C145.951 117.554 145.952 117.554 145.952 117.554C146.171 117.39 146.451 117.292 146.341 117.343C146.29 117.37 146.025 117.359 145.914 117.302C145.803 117.251 145.861 117.277 145.977 117.384C145.977 117.385 145.978 117.386 145.979 117.386C146.55 117.928 147.563 118.757 148.599 119.144C148.6 119.145 148.601 119.145 148.602 119.146C150.057 119.707 151.387 119.82 152.699 119.863C152.979 119.87 153.258 119.87 153.535 119.865C153.926 119.856 154.306 119.707 154.592 119.436C154.878 119.164 155.047 118.794 155.061 118.404C155.076 118.014 154.935 117.633 154.669 117.341C154.404 117.049 154.036 116.873 153.646 116.836C153.4 116.811 153.156 116.784 152.914 116.755C151.792 116.618 150.661 116.42 149.829 116.09C149.829 116.089 149.828 116.089 149.828 116.089C149.217 115.84 148.829 115.558 148.108 114.921C148.107 114.92 148.106 114.919 148.105 114.918C147.94 114.784 147.711 114.568 147.262 114.361C146.815 114.145 146.164 114.099 145.747 114.199C144.907 114.4 144.547 114.711 144.154 114.965C144.153 114.965 144.152 114.966 144.151 114.966C142.41 116.251 141.165 117.546 139.789 118.848C139.6 119.03 139.411 119.213 139.223 119.394Z" fill="#07FF13"/>
<path d="M116.517 90.3822C116.829 90.4982 117.173 90.4857 117.476 90.3475C117.778 90.2093 118.013 89.9567 118.129 89.6453C118.245 89.3339 118.232 88.9892 118.094 88.687C117.956 88.3848 117.703 88.1499 117.392 88.0339C117.494 88.0805 117.369 88.0195 117.287 87.9502C117.195 87.8788 117.087 87.786 116.98 87.6871C116.112 86.8688 115.246 85.8189 114.421 84.7917C114.42 84.7911 114.42 84.7904 114.419 84.7898C112.689 82.674 111.285 80.3411 109.138 78.1622L109.1 78.1275C109.099 78.1265 109.098 78.1256 109.097 78.1247C108.205 77.3258 107.268 76.6016 106.281 75.9399C106.281 75.9396 106.28 75.9394 106.28 75.9391C105.49 75.4132 104.748 74.9782 104.042 74.5039C103.772 74.3238 103.505 74.1398 103.238 73.9506C102.967 73.7578 102.632 73.6725 102.301 73.7195C101.969 73.7665 101.671 73.9409 101.47 74.2054C101.269 74.4699 101.18 74.8042 101.223 75.1358C101.267 75.4674 101.438 75.7682 101.697 75.9778C101.975 76.2029 102.259 76.4221 102.547 76.6343C103.304 77.1937 104.098 77.6858 104.798 78.1531C104.799 78.1533 104.799 78.1535 104.799 78.1538C105.688 78.7493 106.548 79.3988 107.347 80.097C107.348 80.0978 107.349 80.0987 107.35 80.0995L107.312 80.0648C109.092 81.8059 110.695 84.1785 112.461 86.3539C112.462 86.3546 112.462 86.3552 112.463 86.3559C113.334 87.4336 114.183 88.489 115.281 89.5291C115.604 89.7987 115.764 90.0442 116.517 90.3822Z" fill="#07FF13"/>
<path d="M156.897 73.8367C156.834 74.167 156.905 74.5087 157.094 74.7867C157.283 75.0647 157.574 75.2563 157.905 75.3192C158.235 75.3821 158.577 75.3113 158.855 75.1223C159.133 74.9333 159.324 74.6415 159.387 74.3113C159.405 74.2189 159.422 74.1265 159.44 74.0341C159.698 72.6664 159.965 71.3189 160.188 69.8913C160.19 69.8792 160.191 69.8672 160.192 69.8552C160.219 69.5418 160.023 69.1876 159.56 68.8027C159.484 68.7399 159.405 68.6807 159.304 68.6031C159.277 68.5838 159.252 68.561 159.209 68.5226C159.183 68.5014 159.157 68.4621 159.067 68.4368C158.966 68.416 158.914 68.4721 158.901 68.4951C158.868 68.5895 158.922 68.6224 158.951 68.6682C159.001 68.6723 159.076 68.6601 159.078 68.7244C159.075 68.7398 159.034 68.7908 158.944 68.7741C158.866 68.7531 158.846 68.7236 158.826 68.7138C158.793 68.6953 158.773 68.6978 158.751 68.7001C158.665 68.7151 158.585 68.7516 158.508 68.7826C158.026 68.9866 157.744 69.2125 157.687 69.4839C157.684 69.4943 157.682 69.5049 157.681 69.5156C157.476 70.8283 157.206 72.2027 156.95 73.5598C156.932 73.6521 156.914 73.7444 156.897 73.8367Z" fill="#07FF13"/>
<path d="M123.817 84.2766C123.772 84.293 123.727 84.3103 123.686 84.3346C123.514 84.4384 123.414 84.6207 123.321 84.793C123.321 84.7937 123.32 84.7945 123.32 84.7952C123.024 85.3909 122.805 86.0214 122.57 86.6428C122.553 86.6877 122.536 86.7327 122.519 86.7777C122.536 86.7327 122.553 86.6877 122.57 86.6428C122.805 86.0214 123.024 85.3909 123.32 84.7952C123.32 84.7945 123.321 84.7937 123.321 84.793C123.414 84.6207 123.514 84.4384 123.686 84.3346C123.727 84.3103 123.772 84.293 123.817 84.2766Z" fill="#07FF13"/>
<path d="M124.823 84.3891C124.711 84.3875 124.672 84.5178 124.618 84.5982C124.493 84.8267 124.388 85.064 124.283 85.3027C124.281 85.3064 124.28 85.31 124.278 85.3137C123.65 86.7747 123.068 88.2547 122.475 89.73C122.437 89.8257 122.399 89.9212 122.36 90.017C122.399 89.9212 122.437 89.8257 122.475 89.73C123.068 88.2547 123.65 86.7747 124.278 85.3137C124.28 85.31 124.281 85.3064 124.283 85.3027C124.388 85.064 124.493 84.8267 124.618 84.5982C124.672 84.5178 124.711 84.3875 124.823 84.3891Z" fill="#07FF13"/>
<path d="M126.656 85.3036C126.78 85.3979 126.936 85.4393 127.09 85.4186C127.244 85.3979 127.383 85.3169 127.478 85.1934C127.572 85.0698 127.613 84.9139 127.593 84.7599C127.572 84.6059 127.491 84.4664 127.368 84.3721C127.278 84.3035 127.185 84.2327 127.088 84.1616C126.524 83.7161 125.624 83.2868 124.76 83.3975C124.76 83.3975 124.76 83.3975 124.76 83.3975C123.498 83.5724 122.808 84.5976 122.002 85.2093C121.999 85.2117 121.996 85.214 121.993 85.2163C121.772 85.4035 121.521 85.6701 121.614 85.9805C121.645 86.0899 121.704 86.1881 121.761 86.2855C121.704 86.1881 121.645 86.0899 121.614 85.9805C121.521 85.6701 121.772 85.4035 121.993 85.2163C121.996 85.214 121.999 85.2117 122.002 85.2093C122.831 84.5683 124.075 84.6546 124.867 84.5645C124.867 84.5645 124.867 84.5645 124.867 84.5645C125.409 84.5092 125.866 84.7089 126.394 85.1056C126.479 85.1685 126.567 85.235 126.656 85.3036Z" fill="#07FF13"/>
<path d="M123.974 90.925C123.859 90.7811 123.692 90.6888 123.509 90.6683C123.326 90.6478 123.142 90.7008 122.998 90.8157C122.854 90.9307 122.762 91.098 122.741 91.281C122.721 91.464 122.774 91.6477 122.889 91.7916C122.952 91.8712 123.016 91.9509 123.08 92.0305C123.905 93.0471 124.676 94.0768 125.715 95.0524C125.716 95.0534 125.718 95.0544 125.719 95.0554C126.145 95.4457 126.765 95.8659 127.457 95.9621C127.581 95.9826 127.695 95.9952 127.796 96.0066C127.979 96.0271 128.163 95.974 128.307 95.8591C128.451 95.7442 128.543 95.5768 128.564 95.3938C128.584 95.2108 128.531 95.0272 128.416 94.8833C128.301 94.7394 128.134 94.647 127.951 94.6265C127.85 94.6152 127.762 94.605 127.684 94.5921C127.312 94.5379 127.005 94.3417 126.647 94.0223C126.646 94.0215 126.645 94.0208 126.644 94.02C125.783 93.2162 124.974 92.1656 124.164 91.1635C124.101 91.0842 124.037 91.0046 123.974 90.925Z" fill="#07FF13"/>
<path d="M148.741 78.044C148.936 78.0659 149.133 78.0091 149.287 77.8861C149.441 77.7631 149.54 77.584 149.562 77.3881C149.584 77.1923 149.527 76.9957 149.404 76.8417C149.281 76.6877 149.102 76.5888 148.906 76.5669C148.898 76.5662 148.884 76.5636 148.835 76.5611C148.807 76.561 148.78 76.556 148.682 76.5693C148.636 76.5786 148.555 76.5838 148.408 76.6674C148.227 76.7383 147.987 77.1491 148.049 77.3968C148.125 77.7611 148.199 77.7442 148.226 77.7999C148.258 77.8368 148.279 77.8561 148.294 77.8702C148.326 77.9001 148.343 77.9126 148.358 77.9243C148.415 77.9682 148.442 77.985 148.473 78.0054C148.532 78.0437 148.581 78.0731 148.631 78.1029C148.809 78.2093 148.976 78.3032 149.147 78.3997C149.161 78.4074 149.174 78.4151 149.188 78.423C150.331 79.0641 151.68 79.318 152.766 80.002C152.768 80.0033 152.77 80.0046 152.772 80.0059C153.07 80.1999 153.402 80.4263 153.551 80.6278C153.588 80.6856 153.594 80.6947 153.615 80.7965C153.634 80.8816 153.685 80.956 153.758 81.0034C153.831 81.0507 153.92 81.0671 154.005 81.049C154.09 81.0308 154.164 80.9796 154.212 80.9065C154.259 80.8335 154.275 80.7447 154.257 80.6596C154.241 80.5552 154.174 80.3624 154.087 80.2499C153.776 79.8531 153.452 79.6757 153.128 79.4547C153.126 79.4533 153.124 79.452 153.122 79.4506C152.003 78.7417 151.049 77.7626 149.916 77.1268C149.902 77.1191 149.889 77.1116 149.875 77.1042C149.71 77.0111 149.546 76.9182 149.394 76.8275C149.353 76.8031 149.313 76.7784 149.283 76.7591C149.27 76.7509 149.254 76.7386 149.27 76.7506C149.275 76.7547 149.281 76.7589 149.303 76.7795C149.314 76.7893 149.33 76.8036 149.357 76.8358C149.38 76.8868 149.45 76.864 149.525 77.2223C149.586 77.4662 149.348 77.8743 149.17 77.9433C149.026 78.0254 148.949 78.0297 148.906 78.0386C148.814 78.0509 148.794 78.046 148.772 78.0461C148.736 78.0443 148.735 78.0432 148.741 78.044Z" fill="#07FF13"/>
<path d="M150.738 83.3775C150.636 83.2176 150.475 83.1049 150.289 83.0641C150.104 83.0233 149.91 83.0579 149.75 83.1602C149.59 83.2625 149.477 83.4241 149.436 83.6095C149.396 83.7949 149.43 83.989 149.532 84.1489C149.595 84.2467 149.658 84.3447 149.72 84.4427C150.52 85.6574 151.221 86.8892 152.356 88.0638C152.356 88.0643 152.357 88.0649 152.357 88.0654C152.632 88.3273 152.987 88.5895 153.463 88.6999C153.944 88.8149 154.419 88.684 154.738 88.5103C154.856 88.4481 154.964 88.3799 155.068 88.3085C155.137 88.2591 155.198 88.1945 155.233 88.1156C155.268 88.0368 155.275 87.9511 155.25 87.8731C155.224 87.7951 155.169 87.7293 155.095 87.6859C155.02 87.6424 154.933 87.6258 154.847 87.6265C154.729 87.6267 154.615 87.6265 154.509 87.6222C153.875 87.5958 153.783 87.4163 153.351 87.0346C153.35 87.0342 153.35 87.0338 153.35 87.0334C152.473 86.1373 151.7 84.861 150.926 83.6707C150.864 83.5731 150.801 83.4754 150.738 83.3775Z" fill="#07FF13"/>
<path d="M154.446 83.7846C154.261 83.8619 154.114 84.0095 154.038 84.1949C153.962 84.3803 153.962 84.5884 154.04 84.7734C154.117 84.9584 154.265 85.1051 154.45 85.1813C154.635 85.2575 154.843 85.2569 155.028 85.1796C155.087 85.155 155.146 85.1303 155.206 85.1055C155.719 84.8825 156.225 84.7006 156.817 84.3038C156.818 84.3037 156.818 84.3036 156.818 84.3035C157.004 84.1724 157.133 83.8965 157.17 83.6114C157.213 83.3217 157.143 83.0765 157.164 82.8932C157.164 82.8932 157.164 82.8932 157.164 82.8931C157.197 82.5912 157.177 82.3094 157.156 82.0383C157.151 81.9737 157.146 81.9096 157.14 81.8461C157.134 81.7723 157.098 81.704 157.042 81.6564C156.985 81.6087 156.912 81.5854 156.838 81.5918C156.764 81.5981 156.696 81.6336 156.648 81.6902C156.6 81.7469 156.577 81.8202 156.584 81.894C156.589 81.9576 156.594 82.0205 156.6 82.083C156.62 82.3442 156.635 82.5991 156.609 82.8291C156.609 82.8291 156.609 82.8292 156.609 82.8292C156.594 82.9775 156.436 83.0644 156.296 83.057C156.155 83.0554 156.03 83.0081 155.944 83.07C155.944 83.07 155.944 83.0701 155.944 83.0701C155.63 83.2868 155.11 83.5053 154.622 83.7112C154.563 83.7356 154.505 83.7601 154.446 83.7846Z" fill="#07FF13"/>
<path d="M126.882 88.6963C126.733 88.5993 126.55 88.5657 126.376 88.6029C126.201 88.6401 126.049 88.7452 125.952 88.8949C125.855 89.0446 125.821 89.2268 125.858 89.4013C125.896 89.5759 126.001 89.7284 126.15 89.8255C126.231 89.8861 126.46 89.9948 126.589 90.0208C126.957 90.1058 127.197 90.0998 127.461 90.109C127.461 90.109 127.461 90.109 127.461 90.109C128.441 90.1112 129.339 89.5917 130.258 89.3494C130.26 89.3489 130.262 89.3483 130.264 89.3478C130.697 89.234 131.166 88.9305 131.369 88.496C131.413 88.4119 131.452 88.3285 131.489 88.2483C131.51 88.2036 131.512 88.1526 131.495 88.1064C131.478 88.0602 131.443 88.0226 131.399 88.002C131.354 87.9813 131.303 87.9792 131.257 87.9962C131.21 88.0132 131.173 88.0478 131.152 88.0925C131.115 88.1727 131.079 88.2497 131.041 88.3216C130.868 88.6762 130.551 88.8797 130.159 88.9919C130.157 88.9924 130.155 88.9929 130.154 88.9934C129.295 89.2187 128.336 88.7671 127.485 88.7635C127.485 88.7635 127.485 88.7635 127.485 88.7635C127.269 88.7603 127.024 88.7443 126.924 88.7176C126.881 88.7015 126.948 88.7359 126.882 88.6963Z" fill="#07FF13"/>
<path d="M178.772 38.4953C178.627 38.2152 178.377 38.004 178.077 37.9082C177.777 37.8123 177.451 37.8397 177.171 37.9843C176.891 38.1289 176.679 38.3788 176.584 38.6791C176.488 38.9793 176.515 39.3054 176.66 39.5855C176.963 40.1757 177.306 40.832 177.749 41.4525C178.335 42.2859 179.081 43.0142 179.874 43.6008C179.878 43.6043 179.883 43.6079 179.888 43.6114C182.133 45.0152 184.17 45.1066 186.354 45.0463C186.367 45.0454 186.38 45.0445 186.393 45.0436C189.933 44.86 192.857 42.4298 194.773 40.0867C194.774 40.0855 194.775 40.0843 194.776 40.0831C197.129 37.3564 197.253 33.6635 196.69 30.6183C196.689 30.6155 196.689 30.6127 196.688 30.6099C195.926 27.8775 193.669 27.5161 192.24 26.9705L192.081 26.9337C192.073 26.9324 192.066 26.9311 192.058 26.9298C190.466 26.6496 188.82 26.5658 187.184 26.7557C187.183 26.7558 187.182 26.7559 187.181 26.7561L187.296 26.7475C187.219 26.7502 187.131 26.7591 187.033 26.7756C186.384 26.848 185.255 27.4833 185.117 28.5494C186.131 28.9219 186.381 29.4172 187.054 29.507C187.155 29.522 187.266 29.5291 187.387 29.5253L187.503 29.5167C187.504 29.5166 187.505 29.5165 187.505 29.5164C188.856 29.3594 190.244 29.3892 191.616 29.6004C191.622 29.6014 191.629 29.6024 191.635 29.6034L191.475 29.5666C192.851 29.91 194.189 30.5993 194.17 31.0797C194.171 31.0821 194.171 31.0845 194.172 31.0869C194.682 33.7486 194.462 36.5955 192.853 38.4225C192.852 38.4237 192.85 38.4249 192.849 38.4261C190.998 40.6661 188.812 42.361 186.214 42.5109C186.204 42.5116 186.194 42.5123 186.183 42.513C184.5 42.6199 182.387 42.4353 181.305 41.7027C181.301 41.6999 181.297 41.6971 181.293 41.6943C180.66 41.2233 180.125 40.6961 179.687 40.0766C179.356 39.6126 179.076 39.088 178.772 38.4953Z" fill="#07FF13"/>
<path d="M188.333 60.4595C188.18 60.1426 187.907 59.8996 187.575 59.7838C187.242 59.6681 186.877 59.6892 186.561 59.8424C186.244 59.9956 186.001 60.2684 185.885 60.6008C185.769 60.9332 185.79 61.298 185.943 61.6149C186.285 62.3215 186.639 63.0271 187.013 63.7278C188.633 66.8621 191.064 70.164 194.452 71.9153C194.482 71.9317 194.511 71.948 194.541 71.9642C196.7 73.1705 199.137 72.6944 200.854 72.3008C200.877 72.2956 200.901 72.2906 200.924 72.2857C203.118 71.7661 204.346 70.2649 205.429 69.0468C205.452 69.0199 205.475 68.9929 205.497 68.9657C208.963 65.1092 209.185 59.1531 207.268 54.721C207.265 54.7129 207.262 54.7047 207.258 54.6965C206.849 53.6537 206.375 51.9608 205.05 50.8384L204.719 50.6217C204.706 50.6158 204.694 50.6101 204.682 50.6044C203.317 50.0393 202.222 50.0451 200.963 50.1104C200.957 50.1109 200.951 50.1113 200.945 50.1118C200.94 50.1122 200.936 50.1126 200.931 50.113C199.986 50.1645 198.922 50.5943 198.264 50.9605C197.945 51.1253 197.704 51.4104 197.594 51.7528C197.485 52.0953 197.516 52.4672 197.681 52.7866C197.846 53.1061 198.131 53.347 198.474 53.4563C198.816 53.5655 199.188 53.5343 199.507 53.3694C200.187 53.0103 200.574 52.8651 201.158 52.8144C201.161 52.8141 201.164 52.8139 201.167 52.8137C201.17 52.8134 201.174 52.8131 201.177 52.8128C201.957 52.7516 202.968 52.9449 203.495 53.1866C203.499 53.1886 203.504 53.1905 203.508 53.1924L203.177 52.9757C203.847 53.5365 204.217 54.3957 204.718 55.7172C204.722 55.7271 204.726 55.737 204.73 55.747C206.35 59.615 206.134 64.1278 203.407 67.2028C203.386 67.2274 203.366 67.2518 203.345 67.276C202.382 68.4165 201.322 69.4287 200.355 69.6112C200.329 69.6167 200.304 69.6222 200.278 69.6277C198.475 70.0577 196.963 70.2854 195.819 69.6381C195.793 69.624 195.768 69.6098 195.742 69.5956C192.863 68.0842 190.94 65.4953 189.355 62.4778C189.002 61.8174 188.663 61.142 188.333 60.4595Z" fill="#07FF13"/>
<path d="M75.7898 73.8095C75.9082 73.5534 75.9201 73.2607 75.8228 72.9958C75.7255 72.7309 75.5269 72.5156 75.2708 72.3971C75.0147 72.2786 74.722 72.2668 74.4572 72.3641C74.1923 72.4614 73.9769 72.66 73.8585 72.9161C73.5272 73.6319 73.1837 74.3402 72.8234 75.0285C71.5246 77.5399 69.9858 79.6963 67.6442 81.1396C67.6343 81.1461 67.6244 81.1527 67.6145 81.1592C63.8219 83.2869 58.2666 83.2344 54.0432 81.6593C54.0372 81.6569 54.0313 81.6545 54.0253 81.652C53.5179 81.4739 53.184 80.6676 53.0207 79.677C53.0195 79.6704 53.0184 79.6637 53.0172 79.657C52.6562 77.6156 52.9939 75.5191 53.8742 73.5568C53.8752 73.5546 53.8762 73.5524 53.8771 73.5502L53.6657 73.8774C55.4816 71.9136 58.2724 70.3845 60.7534 69.7534C60.8061 69.7434 60.8559 69.7359 60.8847 69.7331L60.7806 69.7409C60.7819 69.7408 60.7833 69.7408 60.7847 69.7408C61.3644 69.7266 62.0473 69.8051 62.7615 69.8875C63.0944 69.926 63.4286 69.8306 63.6905 69.6214C63.9523 69.4123 64.1205 69.1066 64.158 68.7723C64.1954 68.438 64.099 68.1027 63.8899 67.8409C63.6807 67.579 63.376 67.412 63.0428 67.3759C62.3238 67.3009 61.5688 67.2033 60.7045 67.2303C60.7024 67.2304 60.7004 67.2305 60.6983 67.2305L60.5942 67.2383C60.4775 67.2524 60.3673 67.2717 60.2676 67.2919C56.9064 68.2163 54.2307 69.8234 51.8945 72.2688L51.683 72.5961C51.682 72.5985 51.6809 72.6009 51.6799 72.6034C50.6647 74.8601 50.2046 77.5322 50.6659 80.0665C50.6674 80.0753 50.669 80.0841 50.6705 80.0929C50.896 81.3128 51.4565 83.02 53.1897 83.7308C53.1969 83.7336 53.2041 83.7365 53.2113 83.7393C58.3237 85.4757 63.7633 85.6364 68.7857 82.9358C68.7965 82.9287 68.8072 82.9216 68.8179 82.9145C71.442 81.3232 73.3931 78.6098 74.7086 76.0155C75.0896 75.2875 75.4473 74.5495 75.7898 73.8095Z" fill="#07FF13"/>
<path d="M78.5401 58.1247C78.7648 57.9172 78.8979 57.6289 78.91 57.3232C78.9222 57.0176 78.8124 56.7197 78.6049 56.495C78.3973 56.2703 78.109 56.1372 77.8034 56.1251C77.4977 56.1129 77.1998 56.2227 76.9751 56.4303C76.4836 56.8843 75.9619 57.3031 75.4132 57.682C73.048 59.3285 70.1734 60.1613 67.2481 60.227C67.231 60.2275 67.214 60.2279 67.1969 60.2283C64.5598 60.2764 62.1917 57.9101 59.9344 55.653C59.9335 55.652 59.9325 55.6511 59.9316 55.6501C58.9237 54.4615 59.4334 50.9433 59.9667 48.3502C59.9678 48.3447 59.9689 48.3393 59.9701 48.334C60.1667 47.4806 60.5126 47.0512 61.4555 46.5462L61.165 46.6631C61.1768 46.6601 61.1886 46.6571 61.2004 46.6541C63.2442 46.1409 65.6213 46.0157 67.3084 46.6042C67.3124 46.6057 67.3165 46.6072 67.3205 46.6088C67.5392 46.6925 67.7651 46.7785 67.9959 46.8624C68.7109 47.1239 69.4484 47.3466 70.1711 47.5395C70.5054 47.6291 70.8606 47.5817 71.159 47.4065C71.4574 47.2314 71.6746 46.9427 71.7623 46.6054C71.8501 46.2682 71.8012 45.9102 71.6261 45.6119C71.4509 45.3134 71.1638 45.0989 70.8283 45.0142C70.1518 44.8438 69.5049 44.6561 68.8598 44.4314C68.6496 44.3586 68.4368 44.2816 68.2169 44.2019C68.2128 44.2005 68.2088 44.199 68.2047 44.1975C65.4578 43.3506 63.0212 43.7291 60.5987 44.3041C60.5851 44.3077 60.5715 44.3112 60.5578 44.3148L60.2673 44.4316C59.1519 44.9381 57.8116 46.3913 57.6044 47.8338C57.6024 47.8431 57.6005 47.8524 57.5986 47.8616C57.3024 49.3117 57.0483 50.782 56.9588 52.3269C56.9541 53.8504 56.6834 55.5812 58.2253 57.3744C58.2291 57.3781 58.2329 57.3819 58.2368 57.3857C60.5021 59.5531 63.1302 62.4948 67.2499 62.5343C67.2692 62.5339 67.2884 62.5334 67.3076 62.5329C70.6006 62.4625 73.9655 61.5039 76.7242 59.5799C77.3638 59.1381 77.9707 58.6507 78.5401 58.1247Z" fill="#07FF13"/>
<path d="M147.766 123.725C147.799 123.433 147.714 123.139 147.531 122.909C147.347 122.679 147.08 122.532 146.787 122.499C146.495 122.466 146.201 122.551 145.971 122.735C145.742 122.918 145.594 123.186 145.561 123.478C145.559 123.497 145.557 123.515 145.555 123.533C145.548 123.6 145.54 123.667 145.533 123.734C145.533 123.735 145.532 123.737 145.532 123.738C145.532 123.735 145.531 123.746 145.534 123.725C145.534 123.721 145.534 123.719 145.537 123.703C145.539 123.691 145.536 123.695 145.551 123.624C145.557 123.601 145.559 123.579 145.588 123.493C145.609 123.444 145.614 123.391 145.734 123.214C145.804 123.129 145.894 122.97 146.236 122.826C146.578 122.654 147.201 122.823 147.386 123.045C147.771 123.469 147.683 123.566 147.724 123.652C147.738 123.729 147.74 123.763 147.742 123.791C147.745 123.844 147.744 123.862 147.744 123.879C147.738 124.01 147.74 123.951 147.739 123.969C147.738 123.976 147.738 123.976 147.738 123.977C147.738 123.978 147.738 123.978 147.738 123.978C147.738 123.979 147.738 123.978 147.738 123.977C147.738 123.975 147.738 123.975 147.738 123.975C147.738 123.974 147.738 123.973 147.739 123.972C147.739 123.97 147.739 123.968 147.739 123.967C147.739 123.965 147.74 123.962 147.74 123.959C147.74 123.956 147.741 123.951 147.741 123.948C147.742 123.941 147.742 123.934 147.743 123.927C147.744 123.915 147.745 123.903 147.746 123.892C147.747 123.868 147.749 123.845 147.75 123.821C147.753 123.773 147.754 123.721 147.75 123.655C147.746 123.589 147.739 123.511 147.706 123.392C147.667 123.276 147.623 123.098 147.381 122.86C147.375 122.854 147.369 122.848 147.363 122.842C146.997 122.517 146.58 122.515 146.373 122.546C146.149 122.58 146.01 122.647 145.886 122.719C145.647 122.867 145.45 123.055 145.32 123.411C145.319 123.413 145.319 123.414 145.318 123.415C145.2 123.788 145.251 124.061 145.33 124.296C145.374 124.416 145.429 124.53 145.533 124.667C145.653 124.791 145.754 125.012 146.32 125.138C146.327 125.139 146.333 125.14 146.34 125.141C146.837 125.219 147.265 124.934 147.419 124.745C147.594 124.544 147.652 124.381 147.694 124.24C147.768 123.96 147.746 123.751 147.705 123.569C147.677 123.453 147.638 123.353 147.593 123.263C147.451 122.989 147.208 122.78 146.914 122.683C146.621 122.586 146.301 122.609 146.025 122.746C145.75 122.884 145.54 123.125 145.441 123.418C145.342 123.711 145.363 124.031 145.496 124.309C145.467 124.253 145.441 124.187 145.422 124.107C145.394 123.981 145.374 123.833 145.433 123.609C145.467 123.495 145.513 123.359 145.669 123.18C145.804 123.013 146.203 122.743 146.671 122.817C146.677 122.818 146.683 122.818 146.689 122.819C147.218 122.939 147.29 123.132 147.387 123.227C147.469 123.335 147.506 123.415 147.537 123.5C147.592 123.665 147.635 123.86 147.54 124.161C147.54 124.162 147.539 124.163 147.539 124.165C147.434 124.45 147.289 124.579 147.114 124.687C147.021 124.74 146.917 124.791 146.73 124.819C146.559 124.844 146.184 124.847 145.846 124.547C145.84 124.542 145.835 124.537 145.829 124.531C145.609 124.313 145.577 124.162 145.547 124.073C145.522 123.982 145.52 123.932 145.519 123.895C145.518 123.857 145.521 123.834 145.523 123.815C145.524 123.805 145.526 123.797 145.527 123.788C145.527 123.784 145.528 123.779 145.528 123.774C145.529 123.771 145.529 123.768 145.529 123.764C145.53 123.762 145.53 123.76 145.53 123.758C145.53 123.756 145.53 123.755 145.531 123.753C145.531 123.752 145.531 123.751 145.531 123.749C145.531 123.749 145.531 123.748 145.531 123.747C145.531 123.747 145.531 123.747 145.531 123.746C145.531 123.745 145.531 123.744 145.531 123.744C145.531 123.744 145.531 123.744 145.531 123.746C145.531 123.747 145.531 123.747 145.531 123.753C145.53 123.771 145.531 123.713 145.525 123.843C145.525 123.86 145.524 123.879 145.527 123.932C145.53 123.96 145.531 123.994 145.545 124.071C145.587 124.156 145.499 124.254 145.883 124.677C146.068 124.899 146.692 125.069 147.033 124.897C147.375 124.752 147.466 124.594 147.536 124.509C147.656 124.331 147.66 124.278 147.681 124.23C147.71 124.143 147.713 124.122 147.718 124.099C147.733 124.028 147.731 124.032 147.733 124.019C147.735 124.003 147.735 124.001 147.736 123.998C147.738 123.976 147.737 123.987 147.737 123.985C147.737 123.983 147.737 123.982 147.738 123.98C147.745 123.914 147.753 123.847 147.76 123.78C147.762 123.762 147.764 123.743 147.766 123.725Z" fill="#07FF13"/>
<path d="M149.392 62.4728C149.223 62.2611 148.977 62.1252 148.708 62.0951C148.438 62.0649 148.168 62.1429 147.956 62.312C147.745 62.4811 147.609 62.7273 147.579 62.9965C147.549 63.2658 147.627 63.5359 147.796 63.7476C147.797 63.7494 147.799 63.7512 147.8 63.7531C147.826 63.7856 147.852 63.8182 147.878 63.8508C147.88 63.8526 147.881 63.8544 147.882 63.8562C148.051 64.0679 148.298 64.2038 148.567 64.2339C148.836 64.2641 149.106 64.186 149.318 64.017C149.53 63.8479 149.666 63.6017 149.696 63.3325C149.726 63.0632 149.648 62.793 149.479 62.5814C149.477 62.5795 149.476 62.5777 149.474 62.5759C149.448 62.5433 149.422 62.5108 149.396 62.4782C149.395 62.4764 149.394 62.4746 149.392 62.4728Z" fill="#07FF13"/>
<path d="M151.166 68.4363C151.027 68.2623 150.824 68.1506 150.603 68.1258C150.382 68.101 150.159 68.1652 149.985 68.3042C149.811 68.4431 149.7 68.6456 149.675 68.8669C149.65 69.0883 149.714 69.3104 149.853 69.4845C149.856 69.4881 149.859 69.4917 149.862 69.4953C149.914 69.5605 149.966 69.6257 150.018 69.6908C150.021 69.6944 150.024 69.698 150.027 69.7017C150.166 69.8757 150.368 69.9874 150.589 70.0122C150.811 70.037 151.033 69.9728 151.207 69.8339C151.381 69.6949 151.493 69.4924 151.518 69.2711C151.542 69.0497 151.478 68.8276 151.339 68.6535C151.336 68.6499 151.333 68.6463 151.33 68.6427C151.278 68.5775 151.226 68.5124 151.174 68.4472C151.171 68.4436 151.169 68.44 151.166 68.4363Z" fill="#07FF13"/>
<path d="M150.509 68.9604L150.683 69.1776" stroke="#07FF13" stroke-width="2" stroke-linecap="round"/>
<path d="M141.122 100.912C141.29 100.777 141.399 100.581 141.423 100.366C141.447 100.152 141.385 99.9363 141.25 99.7675C141.115 99.5987 140.919 99.4904 140.704 99.4664C140.489 99.4423 140.274 99.5046 140.105 99.6393C140.075 99.6637 140.036 99.6947 139.99 99.7344C139.772 99.8898 139.481 100.362 139.468 100.697C139.468 100.698 139.468 100.7 139.467 100.702C139.444 101.731 139.835 102.102 140.146 102.587C140.172 102.621 140.196 102.653 140.222 102.687C140.321 102.81 140.453 102.909 140.608 102.952C140.762 102.996 140.924 102.982 141.062 102.911C141.2 102.84 141.306 102.717 141.36 102.566C141.415 102.415 141.412 102.25 141.369 102.098C141.359 102.061 141.349 102.025 141.339 101.989C141.271 101.744 141.202 101.508 141.15 101.296C141.095 101.09 141.076 100.884 141.085 100.89C141.085 100.89 141.085 100.89 141.085 100.89C141.105 100.877 141.004 101.029 141.056 100.965C141.069 100.954 141.091 100.936 141.122 100.912Z" fill="#07FF13"/>
<path d="M144.725 98.8768C144.586 98.7016 144.382 98.5891 144.159 98.5641C143.936 98.5392 143.712 98.6038 143.537 98.7437C143.362 98.8837 143.249 99.0875 143.224 99.3105C143.199 99.5334 143.264 99.757 143.404 99.9323C143.428 99.963 143.453 99.9937 143.477 100.024C143.919 100.577 144.36 101.129 144.801 101.682C144.825 101.713 144.85 101.743 144.874 101.774C145.014 101.949 145.218 102.062 145.441 102.087C145.664 102.112 145.888 102.047 146.063 101.907C146.238 101.767 146.351 101.563 146.376 101.34C146.401 101.117 146.336 100.894 146.196 100.718C146.172 100.688 146.147 100.657 146.123 100.626C145.681 100.074 145.24 99.5214 144.799 98.9689C144.774 98.9382 144.75 98.9075 144.725 98.8768Z" fill="#07FF13"/>
</svg>
