<svg width="301" height="484" viewBox="0 0 301 484" fill="none" xmlns="http://www.w3.org/2000/svg">
<path d="M128.967 210.038C131.219 208.536 133.506 207.387 135.964 207.006C137.295 207 138.796 207.376 140.133 208.508C141.47 209.64 142.596 211.517 143.757 213.451M135.793 233.929C132.789 244.441 128.99 256.99 122.573 274.368C113.74 298.29 102.834 316.548 102.408 326.952C105.36 332.1 114.746 336.98 120.144 339.87C125.542 342.76 126.669 343.511 127.829 344.284M229.083 247.581C229.083 247.957 229.083 248.332 229.646 248.15C234.587 246.553 240.05 240.778 249.146 237.729C253.116 236.398 256.376 237.718 258.833 238.85C261.923 240.273 263.964 243.395 265.289 246.233C268.412 252.921 261.711 263.486 258.862 268.987C256.4 273.738 251.859 279.778 247.303 284.539C246.159 285.864 245.033 287.742 244.265 289.272C243.497 290.802 243.122 291.928 241.597 294.226M59.3877 259.403C60.9009 265.831 54.2438 285.853 65.5751 325.496C69.8354 340.4 76.1328 357.959 80.5413 369.49C86.9182 386.168 96.2925 396.936 109.148 408.29C122.2 419.817 133.495 423.535 139.911 424.673C160.838 428.383 174.064 419.394 179.952 414.081C184.468 410.006 189.241 406.493 198.513 392.141C210.565 373.487 211.608 359.165 215.231 349.808C220.749 335.559 228.309 314.727 232.098 306.968C235.863 300.37 239.31 295 241.58 291.974C242.723 290.449 243.85 288.948 243.873 287.4M92.561 182.734C91.4347 184.986 90.3084 187.239 88.2265 192.341C86.1445 197.444 83.141 205.328 80.0465 213.451M163.097 115.61C166.101 114.109 169.104 112.607 173.092 112.209C177.079 111.811 181.96 112.562 185.037 113.324C188.115 114.086 189.241 114.837 190.402 115.61M69.8074 115.611C72.4468 114.86 79.2502 113.335 85.6894 114.274C88.3743 115.212 89.8761 117.09 91.5883 118.807C93.3005 120.525 95.1777 122.027 97.1117 123.574M215.431 100.821V108.784M226.807 107.647C226.432 107.647 226.057 107.647 226.239 112.34C226.421 117.032 227.171 126.418 227.945 136.089M234.771 132.676C234.396 133.051 234.02 133.427 234.578 137.937C235.135 142.448 236.637 151.083 238.184 159.98M243.873 189.56L241.597 188.422M232.496 186.147L231.358 182.734M231.358 161.118V159.98M233.633 141.777L232.496 139.502M227.945 123.574L230.22 120.161M239.322 115.61H238.184M248.423 266.922C246.922 269.175 246.899 272.963 248.6 277.32C251.427 284.563 260.915 288.151 264.328 288.538C265.489 286.672 265.864 283.999 266.433 281.353C266.626 279.835 266.626 277.958 264.351 274.886M251.836 245.306C256.342 238.924 260.847 232.541 262.604 228.878C264.362 225.215 263.236 224.464 262.093 223.889C260.949 223.315 259.823 222.939 258.679 223.121C256.41 224.054 254.874 225.954 253.742 228.036C252.985 228.992 251.859 229.743 250.699 232.792M119.865 326.081L111.902 344.284M119.975 327.01C121.303 327.621 122.939 329.051 124.122 332.07C125.228 334.889 122.545 338.169 121.466 339.862C119.518 342.921 116.606 343.807 115.011 344.275C114.262 344.495 113.218 344.431 112.144 344.175C111.318 343.979 110.553 343.103 109.683 342.08C108.908 339.826 109.01 338.08 109.265 337.466C109.419 337.157 109.622 336.853 109.831 336.539M128.94 422.594C128.94 422.191 128.94 421.787 129.142 427.23C129.343 432.674 129.747 443.976 128.542 453.835C127.337 463.694 124.512 471.768 120.377 481.309M206.003 388.344C212.865 415.793 219.727 443.242 223.666 458.594C227.605 473.945 228.412 476.367 229.244 478.862M130.662 374.09C132.15 374.396 134.403 374.248 138.294 372.789C140.696 371.637 143.969 369.647 146.621 367.551C149.274 365.455 153.571 361.965 154.662 360.222M138.388 374.932C142.697 377.087 146.398 378.331 148.844 378.266C149.829 378.24 150.213 377.527 150.421 376.913C150.629 375.626 150.495 373.989 150.156 372.09C149.952 371.133 151.107 367.69 150.421 365.903M139.849 388.936C139.591 388.899 139.332 388.862 139.162 388.917C138.992 388.972 138.918 389.12 138.954 389.27C138.99 389.42 139.137 389.567 139.324 389.569C139.511 389.572 139.733 389.424 139.961 389.272M214.924 387.98C221.025 382.989 227.495 380.695 232.815 380.699C235.59 380.701 238.705 381.787 244.155 385.022C246.462 386.392 249.327 382.434 251.028 381.283C252.73 380.132 253.562 380.686 254.407 381.804C255.251 382.922 256.083 384.585 256.928 385.72C257.772 386.854 258.604 387.409 259.587 386.863C262.248 385.385 263.377 381.829 264.633 380.703C265.156 380.235 266.167 381.796 267.427 381.535C270.856 380.827 273.175 375.955 275.41 373.153C276.294 372.044 277.646 372.569 278.356 373.128C279.066 373.686 279.343 374.518 280.041 374.531C282.024 374.567 286.318 366.476 291.637 354.872C295.578 346.274 295.586 339.267 297.263 330.217C298.467 323.718 298.939 313.125 298.813 303.675C298.579 286.142 295.603 274.571 294.204 267.726C293.491 264.236 293.36 260.605 292.108 253.34C290.855 246.075 288.637 235.26 287.078 223.866C285.519 212.471 284.688 200.824 284.259 182.761C283.83 164.699 283.83 140.573 283.137 122.737C282.444 104.902 281.057 94.0866 280.343 87.1287C279.347 77.4226 278.797 69.8265 277.259 61.7132C276.237 56.3222 272.654 49.3815 267.482 40.7094C263.731 34.4195 253.932 28.3651 240.373 21.3694C229.388 15.7016 221.109 15.441 215.252 15.2981C206.597 15.087 198.706 17.3905 192.286 20.0375C183.692 23.5806 176.858 30.2558 170.715 36.8145C167.345 40.6002 163.463 45.3144 161.324 48.1589C159.186 51.0033 158.908 51.8353 158.623 52.6924M157.782 14.0377C152.514 11.8193 147.245 9.6008 145.085 7.90336C142.925 6.20591 144.035 5.09669 145.161 4.10931C146.287 3.12193 147.396 2.29002 148.522 2.00011C150.757 1.9875 153.009 3.10513 155.522 5.47483C156.925 7.01262 158.589 9.23106 161.144 13.1974M164.505 14.0376C165.511 12.529 166.449 11.1576 167.319 9.93071M167.319 9.93071C170.288 5.74509 172.471 3.2401 173.874 2.69749C175.83 1.94157 178.219 4.22268 179.484 5.76466C176.534 6.31622 171.75 7.82053 167.319 9.93071ZM167.319 9.93071C166.113 10.505 164.933 11.1243 163.824 11.7814C162.555 12.9032 161.446 14.2897 160.303 15.7183M212.403 96.3891C216.008 92.2211 229.428 81.5827 238.419 77.4903C240.747 76.431 244.268 77.0617 247.092 77.4777C249.915 77.8936 252.134 78.7256 254.802 90.801C257.47 102.876 260.52 126.17 262.091 139.418C263.663 152.665 263.663 155.161 263.663 157.732M260.301 209.832C260.301 199.295 259.747 186.379 258.213 171.568C257.234 164.245 255.848 157.312 254.717 152.216C253.587 147.119 252.755 144.069 251.898 140.926M138.542 75.8171C133.552 73.5991 129.04 72.7337 125.545 73.5697C122.623 74.2686 120.908 76.9261 119.231 79.2995C115.543 84.5219 116.413 99.5095 120.601 115.951C123.597 127.714 127.003 131.76 129.239 134.415L129.284 134.469C130.376 135.766 131.519 136.846 132.09 135.338C134.108 130.012 135.157 117.901 141.155 104.479C144.659 98.5434 149.095 94.3846 152.35 92.6581C155.606 90.9315 157.547 91.7633 159.546 92.6202M169.628 95.9808C173.51 94.3173 176.896 92.3513 179.551 91.78C180.898 91.4901 181.928 94.5357 183.193 95.2625C185.843 95.1574 188.658 94.0232 191.174 93.8804C192.304 94.0148 193.136 94.5693 194.833 95.1406M171.309 32.9689C171.317 32.1372 166.856 28.2304 162.781 25.1387C160.503 23.4103 154.001 19.2744 141.857 13.9646C135.379 11.1321 127.772 9.20926 120.172 7.65076C105.211 4.58231 95.434 4.40355 91.2458 4.26493C86.4875 4.10743 80.8824 4.1179 69.6075 7.59196C61.2665 10.162 48.0742 15.7793 39.2778 20.0179C26.1038 26.3658 19.5509 34.6073 13.6824 43.681C7.3108 53.5325 4.68848 63.181 2.86954 72.7966C1.69326 79.0149 1.88235 88.2345 2.43265 105.424C2.98296 122.614 4.36922 147.567 5.22198 160.837C6.07474 174.107 6.35199 174.939 6.49482 174.536C7.18645 172.583 6.9149 169.923 8.02811 168.802C9.59356 167.224 13.3421 170.738 16.2785 173.12C17.4135 174.041 18.3831 173.561 19.2274 172.725C21.2054 170.767 22.5922 167.134 24.2684 164.748C26.5389 161.516 31.2711 165.437 33.3673 165.432C35.4954 165.428 36.8749 167.671 38.5511 167.676C39.3954 167.403 40.2272 166.571 41.2102 166.004C42.1931 165.437 43.3021 165.159 44.4448 164.874M91.4936 63.2146C90.9391 63.2146 84.2766 62.9374 71.565 65.1512C65.2302 67.6422 59.1307 72.91 55.0181 77.01C50.9055 81.11 48.9648 83.8825 46.9652 86.739M162.412 186.734C161.782 180.121 162.245 172.462 163.989 164.918C165.311 159.199 167.971 156.363 169.794 155.012C171.768 153.549 174.962 153.652 177.82 153.65C179.104 153.805 180.048 154.277 181.007 154.993C181.967 155.709 182.911 156.654 184.839 158.581M179.113 245.903C183.207 247.163 186.419 247.182 188.718 245.755C193.261 242.096 195.804 237.658 197.637 231.292C198.038 230.004 198.353 229.374 198.677 228.725M185.316 180.531C185.946 182.578 186.576 184.625 186.9 189.144C187.225 193.663 187.225 200.591 187.225 207.73L188.346 205.487C188.828 204.523 189.458 203.264 189.854 201.579C190.408 197.848 190.241 189.662 186.972 180.727C185.149 175.745 184.524 174.328 184.839 174.328M101.812 159.059C94.9928 152.708 89.8919 150.155 87.988 149.756C86.123 149.366 82.5912 151.725 77.2779 156.317C70.5248 162.155 67.4649 169.69 65.561 175.791C64.6018 179.372 63.657 183.938 63.0916 186.921C62.5262 189.903 62.3687 191.163 62.2065 192.461M76.5216 243.518C81.2456 248.242 86.1986 250.833 90.5671 250.914C93.5184 250.522 96.7011 249.096 100.826 246.166C102.904 244.338 104.951 241.819 107.538 238.269M83.6791 190.552C86.9859 191.807 96.2191 199.732 98.7839 207.066C99.2635 211.184 99.1108 216.133 98.2399 220.819C97.684 222.827 96.8967 224.087 96.0855 225.385M59.8206 194.846C59.0286 196.574 58.3891 206.088 60.9993 218.101C63.2945 224.211 65.6946 229.183 67.5222 232.283C68.2475 233.492 68.5624 233.965 68.8869 234.451M162.889 201.527C162.732 201.684 162.574 201.842 163.281 205.072C163.987 208.303 165.561 214.601 167.239 218.869C168.916 223.138 170.648 225.185 173.387 227.771M196.768 158.104C199.918 165.977 202.012 173.498 202.571 180.085C202.657 183.208 202.342 185.885 202.179 188.13C202.017 190.375 202.017 192.107 202.017 193.892M157.64 217.75C158.27 222.789 159.382 227.747 161.52 232.586C162.87 235.062 164.76 237.582 166.284 239.273C167.809 240.965 168.911 241.752 170.047 242.563M100.857 172.419C103.534 176.513 106.211 180.608 107.826 184.449C109.441 188.29 109.914 191.754 109.842 194.72C109.771 197.685 109.141 200.047 108.015 203.435M53.6174 209.161C54.4048 213.098 55.1921 217.035 57.566 222.842C59.9399 228.649 63.8765 236.207 67.9325 243.995M75.0901 202.004C74.7751 202.319 77.9197 210.669 84.3471 224.02C87.4678 229.183 90.3022 231.073 91.9985 232.204L94.654 233.974M177.395 193.153C177.112 198.255 177.816 203.86 180.238 210.14C181.81 213.445 184.077 216.988 185.458 218.955C186.839 220.922 187.264 221.205 187.702 221.497M129.051 197.939C129.051 239.138 108.979 272.536 84.2192 272.536C59.4594 272.536 39.3877 239.138 39.3877 197.939C39.3877 156.741 59.4594 123.343 84.2192 123.343C108.979 123.343 129.051 156.741 129.051 197.939ZM220.184 197.939C220.184 239.138 202.909 272.536 181.599 272.536C160.289 272.536 143.015 239.138 143.015 197.939C143.015 156.741 160.289 123.343 181.599 123.343C202.909 123.343 220.184 156.741 220.184 197.939Z" stroke="#07FF13" stroke-width="4" stroke-linecap="round"/>
</svg>
